<svg data-name="Livello 1" xmlns="http://www.w3.org/2000/svg" viewBox="0 0 274.65 274.65"><path d="M272.23 111.58V27.84h-52.01C197.18 10.37 168.46 0 137.32 0S77.46 10.37 54.43 27.84H2.42v83.74C.84 119.92 0 128.52 0 137.32c0 75.84 61.48 137.32 137.32 137.32s137.32-61.48 137.32-137.32c0-8.8-.84-17.4-2.42-25.74ZM137.33 243.2c-58.48 0-105.88-47.4-105.88-105.88S78.85 31.44 137.32 31.44 243.2 78.84 243.2 137.32 195.8 243.2 137.32 243.2Z" fill="#00d4d4"/><path d="M115.39 141.4c-.98-3.65-2.65-7.09-4.97-10.22-2.29-3.11-5.16-5.8-8.54-8.01a34.866 34.866 0 0 0-10.95-4.65 38 38 0 0 0-8.69-1.01c-4.67 0-9.21.85-13.49 2.54-3.6 1.43-6.82 3.37-9.57 5.79-1.53 1.36-2.86 2.81-3.99 4.38-1.45 2.06-3.94 7.78 4.18 16.39 6.59 6.99 17.55 10.54 32.56 10.54 7.48 0 14.08-.87 18.03-1.38l.26-.03c3.41-.45 6.04-3.36 6.1-6.78.01-.63 0-1.25-.04-1.87a28.43 28.43 0 0 0-.9-5.67Zm46.72 10.75 1.39.75c3.74-4.24 7.86-7.85 12.35-10.38a37.19 37.19 0 0 1 6.82-3.02c2.31-.74 4.59-1.25 6.94-1.45 2.37-.2 4.79.14 7.12.5 2.33.35 4.6.41 7 .23 2.39-.15 4.85-.36 7.5-.63l4.14-.44 4.72-.47.9-1.3c-15.69-26.86-50.65-7.49-58.87 16.21Z" fill="#00d4d4"/></svg>