<svg xmlns="http://www.w3.org/2000/svg" xmlns:xlink="http://www.w3.org/1999/xlink" width="782.8" height="1132.716" viewBox="0 0 782.8 1132.716">
  <defs>
    <radialGradient id="radial-gradient" cx="0.5" cy="0.5" r="0.534" gradientTransform="translate(0 0)" gradientUnits="objectBoundingBox">
      <stop offset="0" stop-color="#00acff" stop-opacity="0.251"/>
      <stop offset="0.847" stop-color="aqua" stop-opacity="0"/>
      <stop offset="1" stop-color="blue" stop-opacity="0"/>
    </radialGradient>
    <linearGradient id="linear-gradient" x1="0.5" y1="-0.013" x2="0.5" y2="1.013" gradientUnits="objectBoundingBox">
      <stop offset="0" stop-color="aqua"/>
      <stop offset="1" stop-color="#d0f"/>
    </linearGradient>
    <radialGradient id="radial-gradient-2" cx="0.5" cy="0.5" r="0.5" gradientTransform="translate(0)" gradientUnits="objectBoundingBox">
      <stop offset="0" stop-color="aqua"/>
      <stop offset="0.117" stop-color="aqua" stop-opacity="0.827"/>
      <stop offset="0.3" stop-color="aqua" stop-opacity="0.576"/>
      <stop offset="0.474" stop-color="aqua" stop-opacity="0.373"/>
      <stop offset="0.636" stop-color="aqua" stop-opacity="0.212"/>
      <stop offset="0.783" stop-color="aqua" stop-opacity="0.094"/>
      <stop offset="0.909" stop-color="aqua" stop-opacity="0.024"/>
      <stop offset="1" stop-color="aqua" stop-opacity="0"/>
    </radialGradient>
    <radialGradient id="radial-gradient-3" cx="0.5" cy="0.5" r="0.198" gradientTransform="translate(0 -0.715) scale(1 2.43)" gradientUnits="objectBoundingBox">
      <stop offset="0" stop-color="aqua"/>
      <stop offset="0.472" stop-color="aqua" stop-opacity="0.4"/>
      <stop offset="1" stop-color="aqua" stop-opacity="0"/>
    </radialGradient>
    <radialGradient id="radial-gradient-4" cx="0.549" cy="0.52" r="0.602" gradientTransform="matrix(-0.694, -0.72, 0.399, -0.384, 25.128, -25.134)" gradientUnits="objectBoundingBox">
      <stop offset="0" stop-color="aqua"/>
      <stop offset="0.213" stop-color="aqua" stop-opacity="0.714"/>
      <stop offset="0.425" stop-color="aqua" stop-opacity="0.463"/>
      <stop offset="0.615" stop-color="aqua" stop-opacity="0.263"/>
      <stop offset="0.781" stop-color="aqua" stop-opacity="0.118"/>
      <stop offset="0.915" stop-color="aqua" stop-opacity="0.031"/>
      <stop offset="1" stop-color="aqua" stop-opacity="0"/>
    </radialGradient>
    <radialGradient id="radial-gradient-5" cx="0.5" cy="0.5" r="0.5" gradientTransform="matrix(1, 0, 0, 1, 0, 0)" xlink:href="#radial-gradient-2"/>
    <radialGradient id="radial-gradient-6" cx="0.5" cy="0.5" r="0.5" xlink:href="#radial-gradient-2"/>
  </defs>
  <g id="Raggruppa_2425" data-name="Raggruppa 2425" transform="translate(-867 -3095)">
    <circle id="Ellisse_413" data-name="Ellisse 413" cx="391.4" cy="391.4" r="391.4" transform="translate(867 3095)" fill="url(#radial-gradient)"/>
    <g id="Livello_1" data-name="Livello 1" transform="translate(930.302 3258.132)">
      <g id="Raggruppa_1016" data-name="Raggruppa 1016" transform="translate(0 0)">
        <g id="Raggruppa_1015" data-name="Raggruppa 1015" transform="translate(0 7.578)" opacity="0.4">
          <path id="Unione_94" data-name="Unione 94" d="M278.406,955.227a6.784,6.784,0,0,1,5.757-6.694V906.185l20.713-15.127.01.013V841.81l20.267-15.877V799.74h.892v26.275l17.56,26.461V892.1l19.75,17.444v12.483a8.377,8.377,0,1,1-.981-.063c.03,0,.059,0,.089,0V909.945L342.714,892.5V853.576L326.045,867.81v42.668a6.807,6.807,0,1,1-.892-.011V867.4l.157-.133,17.26-14.738L325.494,826.8l-19.717,15.444V921.32a8.437,8.437,0,1,1-.891-.019V892.155l-19.831,14.484v41.816c.044,0,.086-.007.129-.007a6.779,6.779,0,1,1-6.778,6.78Zm.891,0a5.887,5.887,0,1,0,5.887-5.888A5.893,5.893,0,0,0,279.3,955.227Zm75.548-24.843a7.53,7.53,0,1,0,7.529-7.529A7.539,7.539,0,0,0,354.845,930.384Zm-57.235-.673a7.529,7.529,0,1,0,7.529-7.531A7.537,7.537,0,0,0,297.61,929.711ZM319.6,917.229a5.888,5.888,0,1,0,5.887-5.888A5.893,5.893,0,0,0,319.6,917.229ZM419.07,872.8a8.389,8.389,0,0,1,2.648-6.114l-12.027-12.027V836.434l-16.376-16.376H375.69l-14.882-14.882v20.815l21.921,26.889a6.917,6.917,0,1,1-.7.552l-22.112-27.124V788.724h.891v15.192l15.251,15.251h17.626l16.9,16.9v18.223L422.4,866.1a8.411,8.411,0,1,1-3.331,6.693Zm.891,0a7.551,7.551,0,1,0,2.655-5.728l-.256.255-.013-.012A7.5,7.5,0,0,0,419.961,872.8Zm-39.334-14.3a5.887,5.887,0,1,0,5.888-5.887A5.894,5.894,0,0,0,380.628,858.5Zm-165.8,14.3a8.405,8.405,0,0,1,13.511-6.693l11.818-11.818V836.064l16.9-16.9h17.626l15.25-15.251V788.724h.891v37.585l-.1.123L268.7,853.422a6.646,6.646,0,1,1-.7-.55l21.934-26.881V805.176l-14.881,14.882H257.426L241.05,836.434v18.221l-12.027,12.027A8.416,8.416,0,1,1,214.83,872.8Zm.892,0a7.529,7.529,0,1,0,12.673-5.484l-.013.012-.256-.255a7.52,7.52,0,0,0-12.4,5.728Zm42.618-14.3a5.887,5.887,0,1,0,5.887-5.887A5.893,5.893,0,0,0,258.339,858.5Zm209.531-27.683a8.976,8.976,0,0,1,1.874-5.486l-12.759-12.759H437.358l-18.18-18.18V775.409l-16.445-16.445H386.355v-.892h40.468l.124.1,29.094,23.741a7.129,7.129,0,1,1-.55.7l-28.984-23.652H403.993L420.07,775.04v18.983l17.657,17.658h19.626l12.969,12.968a9.02,9.02,0,1,1-2.452,6.169Zm3.081-5.539.036.036-.477.477a8.217,8.217,0,1,0,.441-.513Zm-15.817-38.593a6.375,6.375,0,1,0,6.375-6.377A6.383,6.383,0,0,0,455.134,786.686ZM164.8,830.818a9.022,9.022,0,0,1,15.62-6.169l12.969-12.968h19.625l17.658-17.658V775.04l16.076-16.076H224.235L195.25,782.617a7.4,7.4,0,1,1-.55-.7l29.218-23.841h40.468v.892H248.008l-16.445,16.445v18.983l-18.179,18.18H193.757L181,825.331a9.03,9.03,0,1,1-16.2,5.487Zm.891,0a8.145,8.145,0,1,0,14.543-5.022l-.481-.481.036-.037a8.133,8.133,0,0,0-14.1,5.54Zm17.165-44.132a6.376,6.376,0,1,0,6.375-6.377A6.382,6.382,0,0,0,182.857,786.686ZM368.583,677.336V641.55l-3.365-7.483V616.8l3.365-7.484V536.059l.139-.132,24.969-23.632V450.979l.16-.134,25.936-21.627a7.84,7.84,0,1,1,.691.585l-25.9,21.593v60.055L461.3,448.3V400l33.67-31.241v-48l.14-.133L522.4,295.1l3.662-7.727,11.775-10.955,7.747-3.011,12.818-11.994V237.138a7.766,7.766,0,1,1,.892,0V261.8l-.141.132-14.139,13.23L542.2,281.1l-11.775,10.955-5.931,2.3-28.635,26.793v47.359H538.81l24.517-27.732a11.183,11.183,0,1,1,.642.619l-24.757,28H495.59l-33.4,30.989v48.3l-.14.133-27.588,26.111h35.6l60.862-58.479V401.09a7.785,7.785,0,1,1,.891.016v15.727l-35.289,33.908H558.67L597.932,412.2V361.135l.14-.132,40.851-38.6V284.66a11.007,11.007,0,1,1,.892.03v38.1l-.14.132-40.852,38.594v51.056l-39.789,39.058H495.6l-25.178,24.192h-36.9l-64.046,60.617V609l3.507,7.8v17.267l-3.507,7.8v35.469Zm49.689-253.725a6.874,6.874,0,1,0,6.874-6.874A6.883,6.883,0,0,0,418.272,423.611Zm106.379-30.255a6.874,6.874,0,1,0,6.873-6.873A6.882,6.882,0,0,0,524.652,393.356Zm36.5-60.208a10.191,10.191,0,1,0,10.189-10.191A10.2,10.2,0,0,0,561.153,333.148Zm68.316-59.534a10.191,10.191,0,1,0,10.192-10.191A10.2,10.2,0,0,0,629.469,273.614ZM551.978,229.4a6.874,6.874,0,1,0,6.874-6.874A6.883,6.883,0,0,0,551.978,229.4ZM281.267,677.336V641.991l-3.683-7.925V616.8l3.683-7.926V536.441l-64.046-60.617h-36.9l-.13-.125-25.047-24.067H91.708l-.131-.128-39.659-38.93V361.518L10.927,322.791v-38.1a11.163,11.163,0,1,1,.892-.03v37.748l40.99,38.727V412.2l39.263,38.542h62.147L118.93,416.833V401.106a7.745,7.745,0,1,1,.891-.016v15.364l60.862,58.479h35.6l-27.728-26.245v-48.3l-33.4-30.989H111.53l-24.757-28a11.046,11.046,0,1,1,.643-.619l24.516,27.732H154.88V321.152l-23.729-22.2-6.814-2.648-11.775-10.955-3.23-6.812L91.444,261.8V237.138a7.765,7.765,0,1,1,.891,0v24.271l17.725,16.585,6.861,2.666L128.7,291.615l3.251,6.859,23.824,22.292v48L189.443,400v48.3l66.716,63.145V451.4l-25.9-21.593a7.754,7.754,0,1,1,.691-.585l26.1,21.761v61.316l25.108,23.764v73.317l3.45,7.424v17.267l-3.45,7.423v35.846ZM218.721,423.611a6.874,6.874,0,1,0,6.874-6.874A6.883,6.883,0,0,0,218.721,423.611ZM112.342,393.356a6.874,6.874,0,1,0,6.874-6.873A6.882,6.882,0,0,0,112.342,393.356ZM69.208,333.148A10.191,10.191,0,1,0,79.4,322.957,10.2,10.2,0,0,0,69.208,333.148ZM.891,273.614a10.191,10.191,0,1,0,10.191-10.191A10.2,10.2,0,0,0,.891,273.614ZM85.017,229.4a6.873,6.873,0,1,0,6.873-6.874A6.882,6.882,0,0,0,85.017,229.4Zm242.1,432.783V504.825L291.35,475.59V430.152l-50.75-46.2V351.72l-80.884-80.885V225.163a11.206,11.206,0,1,1,.891-.042v45.346l30.505,30.5V253.458l19.959-14.952v-44.22l-33.048-36.117V109.011a11.127,11.127,0,1,1,.891-.018v48.828l33.048,36.118v45.013L192,253.9v47.959l48.6,48.6V328.248l.133-.13,25.509-25.286V274.214a7.8,7.8,0,1,1,.892.022V303.2l-.132.131-25.51,25.286v54.935l49.858,45.39V410.178a11.061,11.061,0,1,1,.891.01v64.979l34.871,28.508V289.768l-42.594-36.255V236.581l-3.2-8.043V211.271l3.2-8.041V129.773L246.632,91.885V45.864h.57a7.736,7.736,0,1,1,.322,0V91.516L285.411,129.4v44.934l41.7-36.853v-12.25l-2.313-5.808v-13.82l2.313-5.808V53.666a7.752,7.752,0,1,1,.892-.014V85.939l43.043-33.689V22.14a11.064,11.064,0,1,1,.891,0v30.54L328,87.072V99.837l2.3,5.771v13.82L328,125.2v12.689l-.151.132-42.442,37.506v28.759l2.78,6.984v17.268l-2.78,6.986V253.1l42.149,35.878,53.579-44.666V166.966h.891v77.765l-.16.135L328,289.771V455.96l32.578-26.219V354.955a11.143,11.143,0,1,1,.892-.023V384.17L414.321,331.2V281.077l-.042,0a7.8,7.8,0,1,1,.7-.035h.229v19.928l47.753-47.753V204.79l-21.442-21.443V145.122a11.136,11.136,0,1,1,.892-.018v37.873l21.442,21.443v47.906l29.758-29.758V166.856a7.8,7.8,0,1,1,.891.025v56.057l-79.294,79.294v29.335l-.13.131-53.609,53.735v44.736L328,457.105V662.179ZM281.7,399.123A10.191,10.191,0,1,0,291.9,388.933,10.2,10.2,0,0,0,281.7,399.123Zm68.9-55.24A10.191,10.191,0,1,0,360.8,333.692,10.2,10.2,0,0,0,350.608,343.884Zm56.8-70.57a6.873,6.873,0,1,0,6.874-6.873A6.881,6.881,0,0,0,407.405,273.314Zm-147.37-6.832a6.874,6.874,0,1,0,6.874-6.874A6.883,6.883,0,0,0,260.035,266.482Zm-110.474-52.4a10.191,10.191,0,1,0,10.191-10.192A10.2,10.2,0,0,0,149.561,214.082Zm337.873-54.955a6.874,6.874,0,1,0,6.873-6.874A6.882,6.882,0,0,0,487.434,159.127Zm-55.822-25.074A10.191,10.191,0,1,0,441.8,123.862,10.2,10.2,0,0,0,431.612,134.053ZM168.1,97.943A10.191,10.191,0,1,0,178.3,87.752,10.2,10.2,0,0,0,168.1,97.943ZM320.545,45.916a6.874,6.874,0,1,0,6.874-6.874A6.882,6.882,0,0,0,320.545,45.916Zm-80.027-7.807a6.874,6.874,0,1,0,6.874-6.874A6.882,6.882,0,0,0,240.517,38.108ZM361.343,11.083A10.191,10.191,0,1,0,371.535.891,10.2,10.2,0,0,0,361.343,11.083ZM373.33,159.127a7.766,7.766,0,1,1,7.766,7.766A7.776,7.776,0,0,1,373.33,159.127Zm.892,0a6.874,6.874,0,1,0,6.874-6.874A6.882,6.882,0,0,0,374.222,159.127Z" transform="translate(0 0)" fill="url(#linear-gradient)"/>
        </g>
        <circle id="Ellisse_393" data-name="Ellisse 393" cx="24.072" cy="24.072" r="24.072" transform="translate(546.839 315.616)" fill="url(#radial-gradient-2)"/>
        <circle id="Ellisse_395" data-name="Ellisse 395" cx="23.181" cy="23.181" r="23.181" transform="translate(261.564 205.062)" fill="url(#radial-gradient-3)"/>
        <circle id="Ellisse_399" data-name="Ellisse 399" cx="20.506" cy="20.506" r="20.506" transform="translate(99.331 275.496)" fill="url(#radial-gradient-4)"/>
        <circle id="Ellisse_400" data-name="Ellisse 400" cx="24.072" cy="24.072" r="24.072" transform="translate(154.547 80.241)" fill="url(#radial-gradient-5)"/>
        <circle id="Ellisse_401" data-name="Ellisse 401" cx="18.277" cy="18.277" r="18.277" transform="translate(352.476)" fill="url(#radial-gradient-6)"/>
        <circle id="Ellisse_402" data-name="Ellisse 402" cx="17.831" cy="17.831" r="17.831" transform="translate(205.367 862.15)" fill="url(#radial-gradient-5)"/>
        <circle id="Ellisse_403" data-name="Ellisse 403" cx="17.831" cy="17.831" r="17.831" transform="translate(444.308 776.559)" fill="url(#radial-gradient-5)"/>
        <circle id="Ellisse_404" data-name="Ellisse 404" cx="17.831" cy="17.831" r="17.831" transform="translate(307.898 907.62)" fill="url(#radial-gradient-5)"/>
        <circle id="Ellisse_405" data-name="Ellisse 405" cx="18.277" cy="18.277" r="18.277" transform="translate(101.053 382.484)" fill="url(#radial-gradient-5)"/>
        <circle id="Ellisse_406" data-name="Ellisse 406" cx="23.181" cy="23.181" r="23.181" transform="translate(533.493 259.653) rotate(45)" fill="url(#radial-gradient-3)"/>
        <circle id="Ellisse_407" data-name="Ellisse 407" cx="23.181" cy="23.181" r="23.181" transform="translate(257.997 610.807)" fill="url(#radial-gradient-3)"/>
        <circle id="Ellisse_408" data-name="Ellisse 408" cx="23.181" cy="23.181" r="23.181" transform="translate(346.263 610.807)" fill="url(#radial-gradient-3)"/>
        <circle id="Ellisse_409" data-name="Ellisse 409" cx="15.157" cy="15.157" r="15.157" transform="translate(312.383 104.314)" fill="url(#radial-gradient-3)"/>
        <circle id="Ellisse_410" data-name="Ellisse 410" cx="23.181" cy="23.181" r="23.181" transform="translate(87.484 296.826) rotate(-48)" fill="url(#radial-gradient-3)"/>
      </g>
    </g>
    <g id="Raggruppa_1017" data-name="Raggruppa 1017" transform="translate(966.856 3177.81)">
      <path id="Tracciato_1299" data-name="Tracciato 1299" d="M1203.65,273.714a9.717,9.717,0,0,0-2.94,18.979v34.334l-37.446,35.378v46.676l-34.528,33.893h-50.214l28.874-27.742V401.824a9.349,9.349,0,1,0-5.349-.079v11.21l-54.246,52.12h-27.207L1042.9,443.96V399.848l28.976-26.885v.242H1112.9l23.97-26.718a9.749,9.749,0,1,0-3.927-3.634l-22.43,25h-36.85v-40.4l57.952-54.225V252.222a9.362,9.362,0,1,0-3.566,0v19.462l-57.952,54.224v43.844l-30.759,28.539v44.134L1015.4,465.074h-.232v.219l-33.142,31.369V446.908l21.706-17.974a9.277,9.277,0,0,0,3.948.885,9.4,9.4,0,1,0-7.98-4.491l-23.024,19.064v57.258h.081l-22.126,20.941v86.827l-5.749,14.444v38.085l5.749,14.444v107.39a74.573,74.573,0,0,0-26.176-6.154V727.359l6.162-15.483V673.791l-6.162-15.483V452.859l31.467-25.325V386.517l49.094-49.207v-26.8l72.437-72.438V187.867a9.352,9.352,0,1,0-5.349-.129v48.122l-22.65,22.649V219.28l-19.589-19.589V165.233a9.732,9.732,0,1,0-5.349.078v36.6l19.589,19.59v42.362l-39.089,39.089V291.971a9.361,9.361,0,1,0-5.349.267V335.1l-43.745,43.845V356.906a9.738,9.738,0,1,0-5.349.107v67.959l-26.118,21.021v-146l50.248-41.888V187.658a9.361,9.361,0,1,0-5.349.267V255.6L926,295.082l-36.449-31.028v-68.42l39.8-35.172V114.121l40.137-31.413V52.944a9.713,9.713,0,1,0-5.349-.02V80.1l-34.787,27.227V84.352A9.373,9.373,0,1,0,924,84.42v73.63L889.552,188.5V151.119L854.94,116.507V77.517a9.351,9.351,0,1,0-3.566-.107v40.574L885.985,152.6V265.7l38.909,33.121V489.545l-28.21-23.064V407.447a9.708,9.708,0,1,0-5.349-.046v12.8l-41.012-37.337V334.625l23.423-23.218V285.935a9.351,9.351,0,1,0-5.349-.115v23.357L844.973,332.4v15.762l-39.86-39.86V266.558L823.347,252.9V209.763l-30.191-32.994V132.243a9.733,9.733,0,1,0-5.349.082v46.522L818,211.841v38.382l-18.234,13.658v39.066l-23.333-23.332V238.267a9.724,9.724,0,1,0-5.349.21v43.354l73.892,73.891v29.507l46.362,42.207v41.583l33.56,27.437V660.149l-5.429,13.642v38.085l5.429,13.641v52.02c-.071,0-.142-.005-.214-.005a74.662,74.662,0,0,0-29.955,6.25V677.07l6.017-15.122V623.863l-6.017-15.122v-86.15L872.6,501.649h.081V444.392l-23.023-19.064a9.394,9.394,0,1,0-4.032,3.606l21.705,17.974v49.755l-33.142-31.369v-.219h-.232l-23.93-22.649V398.291l-30.759-28.539V325.908l-57.952-54.224V252.222a9.362,9.362,0,1,0-3.566,0V273.23L775.7,327.455v40.4H738.851l-22.431-25a9.735,9.735,0,1,0-3.927,3.634L736.463,373.2h41.02v-.242l28.976,26.885V443.96l22.308,21.114H801.561l-54.245-52.12v-11.21a9.374,9.374,0,1,0-5.349.079v13.409l28.873,27.742H720.625L686.1,409.082V362.406l-37.446-35.378V292.693a9.735,9.735,0,1,0-5.349.142v36.5l37.446,35.378v46.616l37.69,37h57.969l23,22.1h34.781V470.2l33.142,31.368v.077h.08l23.749,22.477V609.86l-5.573,14v38.085l5.573,14V785.456a75.315,75.315,0,0,0-40.717,55.714H824.5l-20.487-13.6H773.549l-13.506-15.292H749.021a6.173,6.173,0,1,0,.252,3.566h9.16L771.94,831.14h27.667l-8.563,10.03H759.859a6.694,6.694,0,1,0,.045,3.566h32.784l11.118-13.02,17.564,11.655L810.8,856.864H749.641a6.18,6.18,0,1,0,.086,3.566h20.3l-9.112,12.478H730.574a6.7,6.7,0,1,0-.256,3.566h32.406l11.717-16.045h38.1l12.293-15.694h25.154a74.861,74.861,0,0,0,1.266,23.7H823.324l-20.355,16.728a6.7,6.7,0,1,0,2.157,2.844L824.6,872.007h12.129l-9.49,9.489v13.646L815.4,906.98H801.3l-10.061,10.061a6.16,6.16,0,1,0,2.3,2.747l9.242-9.242h14.109l13.925-13.925V882.974l10.966-10.966h10.335a75.442,75.442,0,0,0,43.518,49.9v11.134l-10.965,10.966H871.014l-13.926,13.926v14.109l-9.242,9.242a6.189,6.189,0,1,0,2.747,2.3l10.061-10.061V959.415l11.836-11.837h13.647l9.489-9.49v12.13L879.621,969.7a6.717,6.717,0,1,0,2.843,2.157L899.193,951.5V923.3a74.73,74.73,0,0,0,23.7,4.414V949.99L907.2,962.282v38.1L891.159,1012.1V1044.5a6.672,6.672,0,1,0,3.566-.256v-30.339l12.479-9.113v20.3a6.17,6.17,0,1,0,3.566.087V964.018l13.491-10.567,11.656,17.564L922.9,982.133v32.784a6.682,6.682,0,1,0,3.566.045V983.776l10.029-8.564v27.667l15.293,13.507v9.16a6.178,6.178,0,1,0,3.566.252v-11.022l-15.293-13.506V970.807l-13.6-20.487v-22.6a74.729,74.729,0,0,0,23.35-4.294V951.5l16.728,20.355a6.693,6.693,0,1,0,2.843-2.157l-16-19.476V938.09l9.488,9.489h13.648l11.836,11.837v14.109l10.061,10.061a6.16,6.16,0,1,0,2.747-2.3l-9.242-9.242V957.939l-13.926-13.926H964.346L953.38,933.046V922.051a75.435,75.435,0,0,0,43.873-50.044h10.31l10.966,10.966v13.647l13.926,13.925h14.109l9.242,9.241a6.191,6.191,0,1,0,2.3-2.746l-10.061-10.061h-14.109L1022.1,895.143V881.5l-9.49-9.489h12.13l19.477,16.006a6.716,6.716,0,1,0,2.157-2.844l-20.355-16.728h-27.9a74.891,74.891,0,0,0,1.265-23.7h25.131L1036.8,860.43h38.1l11.718,16.045h32.406a6.673,6.673,0,1,0-.256-3.566h-30.339l-9.113-12.478h20.3a6.17,6.17,0,1,0,.086-3.566h-61.162l-10.567-13.491,17.564-11.656,11.118,13.02h32.784a6.681,6.681,0,1,0,.045-3.566h-31.185l-8.564-10.03H1077.4l13.507-15.292h9.16a6.179,6.179,0,1,0,.252-3.566h-11.022l-13.506,15.292h-30.464l-20.487,13.6H998.919A75.312,75.312,0,0,0,958.2,785.456V676.628l5.842-14.68V623.863L958.2,609.182V524.126l23.748-22.477h.08v-.077l33.142-31.368v.219h34.781l23-22.1h57.968l37.69-37V364.711l37.446-35.378v-36.5a9.711,9.711,0,0,0-2.41-19.121Zm-102.8,119.105a4.012,4.012,0,1,1,4.012,4.012A4.016,4.016,0,0,1,1100.854,392.819Zm24.964-149.784a4.012,4.012,0,1,1,4.012,4.012A4.016,4.016,0,0,1,1125.818,243.035ZM1007.685,416.445a4.012,4.012,0,1,1-4.012,4.012A4.017,4.017,0,0,1,1007.685,416.445Zm71.326-241.616a4.012,4.012,0,1,1-4.012,4.012A4.017,4.017,0,0,1,1079.011,174.83ZM1001.89,283.156a4.012,4.012,0,1,1,4.012,4.012A4.016,4.016,0,0,1,1001.89,283.156ZM971.576,178.842a4.012,4.012,0,1,1,4.012,4.012A4.016,4.016,0,0,1,971.576,178.842ZM922.54,75.419a4.012,4.012,0,1,1,4.012,4.012A4.016,4.016,0,0,1,922.54,75.419Zm-73.109-7.133a4.012,4.012,0,1,1,4.012,4.012A4.016,4.016,0,0,1,849.431,68.287ZM871.274,272.9a4.012,4.012,0,1,1-4.012,4.012A4.017,4.017,0,0,1,871.274,272.9Zm-29.6,151.567a4.012,4.012,0,1,1,4.012-4.012A4.016,4.016,0,0,1,841.677,424.47ZM715.52,243.035a4.012,4.012,0,1,1,4.012,4.012A4.016,4.016,0,0,1,715.52,243.035Zm24.964,149.784a4.012,4.012,0,1,1,4.012,4.012A4.016,4.016,0,0,1,740.484,392.819Zm12.96,453.343a3.121,3.121,0,1,1,3.12-3.12A3.124,3.124,0,0,1,753.443,846.162Zm-29.422,31.205a3.121,3.121,0,1,1,3.121-3.121A3.124,3.124,0,0,1,724.021,877.367Zm74.892,16.227a3.12,3.12,0,1,1,3.12-3.12A3.124,3.124,0,0,1,798.914,893.594Zm78.246,85.433a3.12,3.12,0,1,1,3.12-3.12A3.124,3.124,0,0,1,877.16,979.027Zm19.349,71.772a3.121,3.121,0,1,1-3.121-3.12A3.124,3.124,0,0,1,896.509,1050.8Zm31.2-29.422a3.12,3.12,0,1,1-3.12-3.121A3.124,3.124,0,0,1,927.714,1021.377Zm47.253-45.47a3.12,3.12,0,1,1-3.12-3.12A3.124,3.124,0,0,1,974.967,975.907Zm78.578-85.433a3.121,3.121,0,1,1-3.12-3.12A3.124,3.124,0,0,1,1053.545,890.474Zm71.772-19.348a3.121,3.121,0,1,1-3.12,3.12A3.124,3.124,0,0,1,1125.316,871.126Zm-29.422-31.205a3.121,3.121,0,1,1-3.12,3.121A3.124,3.124,0,0,1,1095.894,839.921ZM990.88,852.647a66.2,66.2,0,1,1-66.2-66.2A66.274,66.274,0,0,1,990.88,852.647Z" transform="translate(-635.994 -33.881)" fill="#fff"/>
    </g>
    <g id="token_flat" data-name="token flat" transform="translate(1214.579 3958.282)">
      <path id="Tracciato_2348" data-name="Tracciato 2348" d="M81.2,33.284V8.3H65.69a40.965,40.965,0,0,0-49.453,0H.723V33.284a40.963,40.963,0,1,0,80.481,0ZM40.961,72.548A31.585,31.585,0,1,1,72.548,40.961,31.583,31.583,0,0,1,40.961,72.548Z" fill="#00d4d4"/>
      <path id="Tracciato_2349" data-name="Tracciato 2349" d="M60.276,98.8a9.117,9.117,0,0,0-1.483-3.051,9.808,9.808,0,0,0-2.546-2.389,10.427,10.427,0,0,0-3.269-1.388,11.381,11.381,0,0,0-2.592-.3,11.005,11.005,0,0,0-4.026.757,9.7,9.7,0,0,0-2.852,1.724,7.971,7.971,0,0,0-1.193,1.308c-.432.616-1.174,2.321,1.246,4.89,1.965,2.087,5.234,3.143,9.715,3.143a40.831,40.831,0,0,0,5.379-.413l.08-.011a2.1,2.1,0,0,0,1.82-2.022c0-.187,0-.371-.011-.558a8.242,8.242,0,0,0-.271-1.694Z" transform="translate(-25.856 -56.623)" fill="#00d4d4"/>
      <path id="Tracciato_2350" data-name="Tracciato 2350" d="M126.474,104.642l.413.222a14.612,14.612,0,0,1,3.686-3.1,11.211,11.211,0,0,1,2.034-.9,9.145,9.145,0,0,1,2.068-.432,8.962,8.962,0,0,1,2.122.149,9.273,9.273,0,0,0,2.087.069c.711-.046,1.449-.107,2.237-.187l1.235-.13,1.407-.138.268-.386c-4.68-8.01-15.109-2.237-17.56,4.836Z" transform="translate(-78.118 -59.253)" fill="#00d4d4"/>
    </g>
  </g>
</svg>
