<svg data-name="Livello 1" xmlns="http://www.w3.org/2000/svg" viewBox="0 0 591.79 228.03"><defs><linearGradient id="Wink_flat_W_svg__a" data-name="Sfumatura senza nome 2" x1="182.54" y1="-11.57" x2="182.31" y2="225.96" gradientUnits="userSpaceOnUse"><stop offset="0" stop-color="#0ff" stop-opacity="0"/><stop offset=".8" stop-color="#008b8b" stop-opacity=".79"/><stop offset="1" stop-color="#006d6d"/></linearGradient><linearGradient id="Wink_flat_W_svg__b" data-name="Sfumatura senza nome 208" x1="15.59" y1="-20.34" x2="85.53" y2="159.96" gradientUnits="userSpaceOnUse"><stop offset="0" stop-color="#0ff" stop-opacity="0"/><stop offset=".47" stop-color="#00b7b7" stop-opacity=".49"/><stop offset="1" stop-color="#006d6d"/></linearGradient><linearGradient id="Wink_flat_W_svg__c" data-name="Sfumatura senza nome 209" x1="338.08" y1="5.51" x2="274.92" y2="172.28" gradientUnits="userSpaceOnUse"><stop offset="0" stop-color="#0ff" stop-opacity="0"/><stop offset=".35" stop-color="#00d0d0" stop-opacity=".32"/><stop offset="1" stop-color="#006d6d"/></linearGradient></defs><path d="m232.05 201.46-55.3-131.14-55.3 132.06-54.05 25.64 90.49-215.5C161.15 4.8 168.38 0 176.76 0s15.61 4.8 18.87 12.52l90.48 214.58-54.05-25.64ZM66.93 162.22 8.59 6.78 0 2.83l63.17 168.29 3.76-8.9zm210.89-47.14 23.03-61.36a67.618 67.618 0 0 1 35.03-37.66l20.11-9.25L358.54 0l-28.99 13.34c-17.25 7.94-30.43 22.1-37.1 39.89l-23.59 62.85 24.4 57.86 4.42-11.78-19.86-47.09Z" fill="#a0ffff"/><path d="M370.5 108.48v99.94c0 10.83-8.78 19.61-19.61 19.61v-99.94c0-10.83 8.78-19.61 19.61-19.61Zm168.48 59.86 51.95-59.86h-11.56c-8.27 0-16.12 3.63-21.48 9.92l-36.77 43.17v14.37l36.61 42.33a28.21 28.21 0 0 0 21.34 9.76h12.73l-52.81-59.69Zm-58.93-60.03v89.1l-18-27.18-7.82 18.73 15.01 22.71a36.478 36.478 0 0 0 30.42 16.36V127.92c0-10.83-8.78-19.61-19.61-19.61Zm-35.04 39.02L430 124.66a36.5 36.5 0 0 0-30.43-16.35v119.72c10.83 0 19.61-8.78 19.61-19.61v-69.66l18.03 27.28 7.81-18.7Z" fill="#fff"/><path d="M283.91 221.77 197.5 16.86c-5.66-13.43-24.7-13.43-30.37 0L80.72 221.77l43.2-20.49 58.39-138.47 58.39 138.47 43.2 20.49ZM86.81 115.08 63.78 53.72a67.618 67.618 0 0 0-35.03-37.66L8.59 6.78l58.34 155.44 19.88-47.14Zm210.89 47.14L356.04 6.78l-20.16 9.28a67.618 67.618 0 0 0-35.03 37.66l-23.03 61.36 19.88 47.14Z" fill="#0ff"/><path d="M283.91 221.77 197.5 16.86c-5.66-13.43-24.7-13.43-30.37 0L80.72 221.77l43.2-20.49 58.39-138.47 58.39 138.47 43.2 20.49Z" fill="url(#Wink_flat_W_svg__a)"/><path d="M86.81 115.08 63.78 53.72a67.618 67.618 0 0 0-35.03-37.66L8.59 6.78l58.34 155.44 19.88-47.14Z" fill="url(#Wink_flat_W_svg__b)"/><path d="M297.7 162.22 356.04 6.78l-20.16 9.28a67.618 67.618 0 0 0-35.03 37.66l-23.03 61.36 19.88 47.14Z" fill="url(#Wink_flat_W_svg__c)"/></svg>