<?xml version="1.0" encoding="UTF-8"?> <svg xmlns="http://www.w3.org/2000/svg" xmlns:xlink="http://www.w3.org/1999/xlink" version="1.1" id="edf983fe-eed6-4061-9adb-065d06037f03" x="0px" y="0px" viewBox="0 0 2760.3 599.9" style="enable-background:new 0 0 2760.3 599.9;" xml:space="preserve"> <style type="text/css"> .st0{fill:#FFFFFF;} </style> <g> <path class="st0" d="M299.9,0C219.8,0,144.5,31.2,87.8,87.8C31.2,144.5,0,219.8,0,299.9c0,5.5,4.5,10,10,10s10-4.5,10-10 c0-25.6,3.5-50.4,10-74l270-123.4l187.2,85.5l-89.2,33.4c-19.7-32.6-56.2-54.6-97.9-54.6c-41.7,0-78.2,22-97.9,54.6l-55.1-20.6 c-5.2-1.9-10.9,0.7-12.9,5.9c-1.9,5.2,0.7,10.9,5.9,12.9l53.3,20c-4.4,11.7-6.8,24.4-6.8,37.6c0,3.6,1.9,6.8,5,8.6 c3.1,1.8,6.9,1.8,10,0.1c0.5-0.3,51.6-28.9,98.6-28.9s98,28.6,98.6,28.8c1.5,0.9,3.2,1.3,4.9,1.3c1.7,0,3.5-0.5,5-1.4 c3.1-1.8,5-5.1,5-8.6c0-13.2-2.4-25.8-6.8-37.6l59-22.1v66.7c0,1.7,0.4,3.2,1.1,4.6l-12.6,12.6c-1.9,1.9-2.9,4.4-2.9,7.1 s1.1,5.2,2.9,7.1l14.4,14.4c2,2,4.5,2.9,7.1,2.9s5.1-1,7.1-2.9l14.4-14.4c1.9-1.9,2.9-4.4,2.9-7.1s-1.1-5.2-2.9-7.1l-12.6-12.6 c0.7-1.4,1.1-3,1.1-4.6V210l31-11.6c3.8-1.4,6.3-5,6.5-9c0.1-4-2.2-7.8-5.8-9.4L304.1,82.4c-2.6-1.2-5.7-1.2-8.3,0L38.4,200 C78.8,94.9,180.8,20,299.9,20c154.4,0,279.9,125.6,279.9,279.9S454.3,579.9,299.9,579.9c-5.5,0-10,4.5-10,10s4.5,10,10,10 c80.1,0,155.4-31.2,212.1-87.8c56.6-56.6,87.8-132,87.8-212.1S568.7,144.5,512,87.8C455.4,31.2,380,0,299.9,0z M299.9,237 c-35.4,0-71.5,13.8-91.8,23.1c8.3-41.7,46.3-73.2,91.8-73.2s83.6,31.6,91.8,73.2C371.4,250.8,335.3,237,299.9,237z"></path> <path class="st0" d="M1025.8,160.2c-2.1-2.1-4.4-3.6-7.2-4.8c-2.7-1.1-5.6-1.7-8.7-1.7H909.8c-17.7,0-34,3-48.9,9.1 c-14.9,6-27.9,14.5-38.8,25.3c-10.9,10.8-19.5,23.8-25.6,38.8s-9.2,31.5-9.2,49.4v122.5h44.4v-60.2h156.2v60.2h44.4V176.1 c0-3.1-0.6-6-1.7-8.7C1029.5,164.7,1027.9,162.3,1025.8,160.2z M987.9,294.2H831.7v-17.9c0-12.4,1.7-23,5.2-31.7 c3.5-8.7,7.9-16,13.2-21.8c5.4-5.8,11.2-10.4,17.6-13.7c6.4-3.3,12.4-5.8,18.2-7.3c5.8-1.6,10.8-2.6,15.2-3 c4.4-0.4,7.3-0.6,8.6-0.6h78.1V294.2z"></path> <path class="st0" d="M1122.6,156.6c-6,1.9-11.4,4.5-16,7.8c-4.6,3.2-8.6,7-11.9,11.2c-3.3,4.2-6,8.6-8,13.2 c-2.1,4.6-3.6,9.3-4.5,14c-1,4.7-1.5,9.1-1.5,13.2v120.3c0,7.6,1,14.5,2.9,20.6c1.9,6.1,4.5,11.5,7.8,16.1c3.2,4.6,7,8.5,11.2,11.8 c4.2,3.2,8.6,5.9,13.2,7.9c4.6,2.1,9.3,3.6,14,4.5c4.7,1,9.1,1.5,13.2,1.5h160.3v-44.4h-160.3c-5.7,0-10.1-1.6-13.2-4.7 c-3.1-3.1-4.7-7.5-4.7-13.2v-120c0-6,1.5-10.6,4.6-13.7s7.5-4.6,13.3-4.6h160.3v-44.4h-160.3 C1135.4,153.7,1128.6,154.7,1122.6,156.6z"></path> <path class="st0" d="M1579.4,160.2c-2.1-2.1-4.4-3.6-7.2-4.8c-2.7-1.1-5.6-1.7-8.7-1.7h-100.1c-17.7,0-34,3-48.9,9.1 c-14.9,6-27.9,14.5-38.8,25.3c-10.9,10.8-19.5,23.8-25.6,38.8s-9.2,31.5-9.2,49.4v122.5h44.4v-60.2h156.2v60.2h44.4V176.1 c0-3.1-0.6-6-1.7-8.7C1583,164.7,1581.4,162.3,1579.4,160.2z M1541.4,294.2h-156.2v-17.9c0-12.4,1.7-23,5.2-31.7 c3.5-8.7,7.9-16,13.2-21.8c5.4-5.8,11.2-10.4,17.6-13.7c6.4-3.3,12.4-5.8,18.2-7.3c5.8-1.6,10.8-2.6,15.2-3 c4.4-0.4,7.3-0.6,8.6-0.6h78.1V294.2z"></path> <path class="st0" d="M1852.8,182.7c-9.1-9.1-19.9-16.1-32.5-21.3c-12.5-5.1-26.1-7.7-40.8-7.7h-120c-3.2,0-6.2,0.6-8.9,1.7 c-2.7,1.1-5.1,2.7-7.1,4.8c-2,2.1-3.6,4.4-4.7,7.2c-1.1,2.7-1.7,5.6-1.7,8.7v200.3c0,3.2,0.6,6.2,1.7,8.9c1.1,2.7,2.7,5.1,4.7,7.1 c2,2,4.4,3.6,7.1,4.7c2.7,1.1,5.7,1.7,8.9,1.7h120c14.7,0,28.3-2.6,40.8-7.7c12.5-5.1,23.4-12.2,32.5-21.3 c9.1-9.1,16.3-19.9,21.4-32.4c5.2-12.5,7.8-26.3,7.8-41.2v-40c0-14.8-2.6-28.5-7.8-41.1C1869.1,202.6,1861.9,191.8,1852.8,182.7z M1837.6,296.3c0,8.8-1.4,16.7-4.2,23.8c-2.8,7.1-6.8,13.2-11.9,18.3c-5.1,5.1-11.3,9-18.4,11.8c-7.1,2.8-15,4.2-23.7,4.2h-97.9 V198.2h97.9c8.7,0,16.5,1.4,23.7,4.2c7.1,2.8,13.2,6.7,18.4,11.8c5.1,5.1,9.1,11.2,11.9,18.4c2.8,7.2,4.2,15.1,4.2,23.8V296.3z"></path> <rect x="1986.8" y="253.9" class="st0" width="140.3" height="44.8"></rect> <path class="st0" d="M1938.1,155.4c-2.7,1.1-5.1,2.7-7.1,4.8c-2,2.1-3.6,4.4-4.7,7.2c-1.1,2.7-1.7,5.6-1.7,8.7v160.3 c0,11.5,2.1,21.2,6.2,29.1c4.2,7.9,9.3,14.4,15.6,19.3c6.2,5,13,8.5,20.3,10.7c7.3,2.2,14,3.2,20.2,3.2h160.3v-44.4h-160 c-5.9,0-10.4-1.5-13.5-4.6s-4.6-7.5-4.6-13.3V198.2h178.1v-44.4H1947C1943.8,153.7,1940.8,154.3,1938.1,155.4z"></path> <path class="st0" d="M2458.8,151c-5-1.3-9.8-1-14.4,0.9c-4.6,1.8-8.2,4.9-10.9,9.2l-101.2,175.9l-101.2-175.9 c-1.3-2.2-2.8-4-4.6-5.6c-1.8-1.5-3.8-2.7-6.1-3.6c-2.2-0.9-4.5-1.4-6.9-1.5c-2.4-0.2-4.8,0-7.2,0.6c-4.9,1.4-8.9,4-11.9,8 c-3,4-4.5,8.5-4.5,13.7v226.1h44.4V252.9l79.1,138.6c1.9,3.5,4.6,6.2,7.9,8c3.4,1.8,7,2.7,10.9,2.7c4,0,7.7-0.9,11.2-2.7 c3.5-1.8,6.2-4.5,8.1-8l78.8-138.6v145.9h44.8V172.7c0-5.1-1.5-9.7-4.6-13.7C2467.5,155,2463.6,152.4,2458.8,151z"></path> <path class="st0" d="M2715.9,153.7v82c0,7.7-1.2,14-3.6,18.6c-2.4,4.7-5.4,8.3-9.1,10.9c-3.6,2.6-7.7,4.5-12.1,5.6 c-4.4,1.1-8.8,2-13,2.6h-80.2c-5.8,0-11.1-0.9-15.8-2.6c-4.7-1.8-8.7-4.3-12-7.6c-3.3-3.3-5.9-7.3-7.7-11.9 c-1.8-4.6-2.7-9.8-2.7-15.6v-82h-44.4v82c0,10,1.3,19.1,3.8,27.1c2.6,8,6,15.1,10.3,21.2c4.3,6.1,9.2,11.3,14.8,15.6 c5.6,4.3,11.4,7.9,17.5,10.7c6.1,2.8,12.2,4.8,18.5,6.1c6.2,1.3,12,1.9,17.5,1.9h17.8v80.5h44.8v-80.5h17.9 c5.5,0,11.3-0.6,17.5-1.9c6.2-1.3,12.3-3.3,18.4-6.1c6-2.8,11.9-6.4,17.5-10.7c5.6-4.3,10.6-9.5,14.8-15.6 c4.2-6.1,7.6-13.1,10.2-21.1c2.6-8,3.8-17,3.8-27.2v-82H2715.9z"></path> <path class="st0" d="M285.4,377.5l4.6,54.2c0,0,0,0.1,0,0.1c0,0.2,0.1,0.4,0.1,0.6c0,0.1,0,0.3,0.1,0.4c0,0.2,0.1,0.4,0.1,0.6 c0,0.1,0.1,0.3,0.1,0.4c0.1,0.2,0.1,0.3,0.2,0.5c0.1,0.1,0.1,0.3,0.2,0.4c0.1,0.1,0.1,0.3,0.2,0.4c0.1,0.2,0.1,0.3,0.2,0.5 c0.1,0.1,0.1,0.3,0.2,0.4c0.1,0.1,0.2,0.3,0.3,0.4c0.1,0.1,0.2,0.2,0.3,0.4c0.1,0.1,0.2,0.3,0.3,0.4c0.1,0.1,0.2,0.2,0.3,0.4 c0.1,0.1,0.2,0.2,0.3,0.3c0.1,0.1,0.3,0.2,0.4,0.4c0.1,0.1,0.2,0.2,0.3,0.3c0.1,0.1,0.3,0.2,0.5,0.4c0.1,0.1,0.2,0.1,0.3,0.2 c0.2,0.1,0.3,0.2,0.5,0.3c0.1,0.1,0.2,0.1,0.3,0.2c0.2,0.1,0.3,0.2,0.5,0.3c0.1,0.1,0.3,0.1,0.4,0.2c0.2,0.1,0.3,0.1,0.5,0.2 c0.2,0.1,0.3,0.1,0.5,0.2c0.1,0,0.3,0.1,0.4,0.1c0.2,0,0.4,0.1,0.6,0.1c0.1,0,0.3,0,0.4,0.1c0.2,0,0.4,0.1,0.6,0.1c0,0,0.1,0,0.1,0 c0.1,0,0.2,0,0.3,0c0.2,0,0.3,0,0.5,0c0.2,0,0.5,0,0.7,0c0.1,0,0.1,0,0.2,0c0,0,0.1,0,0.1,0c0.3,0,0.5-0.1,0.8-0.1 c0.1,0,0.1,0,0.2,0c0.3-0.1,0.6-0.1,0.8-0.2c0,0,0.1,0,0.1,0c0.3-0.1,0.5-0.2,0.8-0.3c0,0,0.1,0,0.1-0.1c0.2-0.1,0.5-0.2,0.7-0.3 c0.1,0,0.1-0.1,0.2-0.1c0.2-0.1,0.4-0.3,0.7-0.4c0.1,0,0.1-0.1,0.2-0.1c0.2-0.1,0.4-0.3,0.6-0.4c0.1,0,0.1-0.1,0.2-0.1 c0.2-0.2,0.4-0.3,0.5-0.5c0.1-0.1,0.1-0.1,0.2-0.2c0.2-0.2,0.3-0.3,0.5-0.5c0.1-0.1,0.1-0.1,0.2-0.2c0.1-0.2,0.3-0.4,0.4-0.6 c0.1-0.1,0.1-0.1,0.2-0.2c0.1-0.2,0.2-0.4,0.3-0.6c0.1-0.1,0.1-0.2,0.2-0.3c0.1-0.2,0.2-0.3,0.3-0.5c0.1-0.1,0.1-0.2,0.2-0.4 c0.1-0.2,0.1-0.3,0.2-0.5c0.1-0.2,0.1-0.3,0.2-0.5c0-0.1,0.1-0.3,0.1-0.4c0-0.2,0.1-0.4,0.1-0.6c0-0.1,0-0.3,0.1-0.4 c0-0.2,0.1-0.4,0.1-0.6c0,0,0-0.1,0-0.1l4.6-54.2l65.3-22.2V386l-43,26c-2.9,1.8-4.8,5-4.8,8.4l-1.5,102.8 c-0.1,4.3,2.6,8.1,6.6,9.6c1.1,0.4,2.3,0.6,3.4,0.6c3,0,5.8-1.3,7.8-3.7c2.1-2.6,51.6-64.5,51.6-109.5v-22.7l4.3-2.3 c2.8-1.5,4.7-4.3,5.1-7.4l5.4-39.6c0.7-5-2.4-9.7-7.3-11l-7.5-2v-13.9c0-3.3-1.6-6.3-4.3-8.2c-2-1.4-49.3-34.1-95.6-34.1 s-93.6,32.7-95.6,34.1c-2.7,1.9-4.3,4.9-4.3,8.2v13.9l-7.5,2c-4.8,1.3-8,6-7.3,11l5.4,39.6c0.4,3.2,2.3,5.9,5.1,7.4l4.3,2.3v22.7 c0,45,49.5,106.9,51.6,109.5c1.9,2.4,4.8,3.7,7.8,3.7c1.1,0,2.3-0.2,3.4-0.6c4-1.5,6.7-5.3,6.6-9.6l-1.5-102.8 c-0.1-3.4-1.9-6.6-4.8-8.4l-43-26v-30.8L285.4,377.5z"></path> </g> </svg> 