<svg xmlns="http://www.w3.org/2000/svg" width="1973.083" height="1081.632"><defs><linearGradient id="eco-system-bg_svg__a" x1=".014" y1=".134" x2=".976" y2=".917" gradientUnits="objectBoundingBox"><stop offset="0" stop-color="#d0f" stop-opacity="0"/><stop offset=".223" stop-color="#d0f" stop-opacity=".969"/><stop offset=".482" stop-color="#0ff"/><stop offset=".844" stop-color="#d0f"/><stop offset="1" stop-color="#d0f" stop-opacity="0"/></linearGradient></defs><path data-name="Unione 105" d="M1903.33 1081.324a141.723 141.723 0 0 1-22.621-4.248c-16.2-4.241-36.321-11.528-59.792-21.658-21.787-9.4-46.85-21.422-74.492-35.722-25.553-13.219-53.653-28.562-83.517-45.6-115.662-66-239.345-146.8-310.613-197.6a156.926 156.926 0 0 0-16.232-10.053c-5.76-3.123-12.1-6.16-18.851-9.025a358.77 358.77 0 0 0-44.751-15.226c-15.756-4.33-33.521-8.336-52.8-11.907a958.641 958.641 0 0 0-29.822-5.013q-2.687-.4-5.392-.779l-.945-.129a1054.61 1054.61 0 0 0-11.19-1.4l-.712-.078q-9.7-1.012-19.493-1.852l-.156-.013h-.059q-4.071-.309-8.193-.59-4.907-.29-9.833-.532-3.637-.163-7.279-.3-5.8-.165-11.606-.258-4.372-.051-8.743-.06-2.408.006-4.815.025-10.364.127-20.665.5a857.722 857.722 0 0 0-50.855 3.388 874.835 874.835 0 0 0-48.447 6.07 897.738 897.738 0 0 0-46.012 8.325 940.831 940.831 0 0 0-43.553 10.155 1008.077 1008.077 0 0 0-41.067 11.561 1091.46 1091.46 0 0 0-38.557 12.541c-22.146 7.654-44.874 16.264-69.483 26.322-21.449 8.766-41.473 17.466-59.141 25.142-27.072 11.761-50.452 21.919-69.5 28.269-7.831 2.611-15.844 5.341-24.326 8.234-29.495 10.055-62.925 21.451-97.58 30.58-39.848 10.5-74.875 16.293-107.08 17.712-5.185.229-10.338.343-15.415.343-3.949 0-7.852-.068-11.687-.207-9.166-.332-18.225-1.069-26.929-2.192a261.635 261.635 0 0 1-26.6-4.822 239.374 239.374 0 0 1-26.116-7.758 226.033 226.033 0 0 1-50.163-25.541 239.431 239.431 0 0 1-23.737-18.39A264.2 264.2 0 0 1 181.874 827a105.473 105.473 0 0 1-13.862-19.762 123.792 123.792 0 0 1-9.362-22.388 164.609 164.609 0 0 1-5.506-24.62 235.386 235.386 0 0 1-2.3-26.464c-.292-8.731-.205-17.864.264-27.92.418-8.954 1.13-18.437 2.181-28.992.927-9.319 2.055-18.81 3.279-28.32q.2-4.174.467-8.575c.9-14.862 2.3-30.085 3.779-45.078.472-15.649 1.382-31.378 2.28-46.883.321-5.541.645-11.142.949-16.753q.064-8.557.173-17.044c.223-19.494.443-38.675-.266-57.039q-.176-.6-.356-1.2a115.548 115.548 0 0 0-8.647-21.086 96.67 96.67 0 0 0-12.835-18.476 95.261 95.261 0 0 0-9.745-9.5 102.333 102.333 0 0 0-11.524-8.406 117.467 117.467 0 0 0-13.428-7.239 141.737 141.737 0 0 0-15.455-6 201.364 201.364 0 0 0-37.48-7.972 337.626 337.626 0 0 0-47.055-2.113l-.01-.5q4.061-.078 8.033-.078a324.75 324.75 0 0 1 39.093 2.2 201.931 201.931 0 0 1 37.574 7.993 142.286 142.286 0 0 1 15.509 6.018 118.018 118.018 0 0 1 13.485 7.269 102.969 102.969 0 0 1 11.581 8.448 95.782 95.782 0 0 1 9.8 9.552 97.266 97.266 0 0 1 12.9 18.571 115.779 115.779 0 0 1 8.481 20.512q-.19-4.462-.459-8.856a147.4 147.4 0 0 0-4.546-16.723 114.911 114.911 0 0 0-8.881-19.943 97.533 97.533 0 0 0-12.719-17.517c-24.846-27.158-66-40.389-125.7-40.389-1.525 0-3.055.009-4.6.026l-.006-.5a328.293 328.293 0 0 1 45.24 2.38 199.065 199.065 0 0 1 36.248 7.9 129.671 129.671 0 0 1 28.174 12.893 104.012 104.012 0 0 1 11.344 8.15 96.844 96.844 0 0 1 9.67 9.194 98.063 98.063 0 0 1 12.784 17.607 115.377 115.377 0 0 1 8.921 20.03 144.71 144.71 0 0 1 3.857 13.612 380.346 380.346 0 0 0-.284-3.787 165.338 165.338 0 0 0-8.809-36 114.638 114.638 0 0 0-9.114-18.843 98.78 98.78 0 0 0-12.618-16.589C107.259 341.246 66.335 328.328 7.3 328.328h-.789v-.5h.768a317.5 317.5 0 0 1 42.559 2.652 196.514 196.514 0 0 1 34.9 7.813 130.284 130.284 0 0 1 27.346 12.49 101.6 101.6 0 0 1 20.653 16.677 99.254 99.254 0 0 1 12.68 16.672 115.177 115.177 0 0 1 9.155 18.926 157.139 157.139 0 0 1 7.642 28.518c-3.6-34.96-12.675-65.669-34.631-88.063-25.008-25.505-64.763-38.133-121.535-38.604v-.5c56.911.472 96.782 13.149 121.887 38.755a101.181 101.181 0 0 1 12.613 15.785 115.744 115.744 0 0 1 9.406 17.881c5 11.851 8.61 25.276 11.026 41.044 1.018 6.647 1.813 13.6 2.423 21.218-2.463-36.251-7.552-69.532-22.4-96a109.894 109.894 0 0 0-8.561-13.035 102.321 102.321 0 0 0-10.509-11.731 104.354 104.354 0 0 0-12.68-10.319 116.891 116.891 0 0 0-15.07-8.8 141.585 141.585 0 0 0-17.683-7.154 181.577 181.577 0 0 0-20.515-5.417c-7.374-1.51-15.3-2.708-23.567-3.559-8.427-.869-17.456-1.4-26.837-1.588l.01-.5c9.394.186 18.438.721 26.878 1.59 8.281.853 16.226 2.053 23.616 3.567a181.951 181.951 0 0 1 20.572 5.432 142.013 142.013 0 0 1 17.744 7.188 117.269 117.269 0 0 1 15.135 8.835 104.777 104.777 0 0 1 12.74 10.368 102.842 102.842 0 0 1 10.561 11.788 110.526 110.526 0 0 1 8.6 13.094 128.764 128.764 0 0 1 6.856 14.286 159.055 159.055 0 0 1 5.334 15.364 235.942 235.942 0 0 1 6.978 33.513c1.894 13.432 3.028 27.4 3.848 41.888q.109 1.059.21 2.128.142.752.277 1.51c.932 5.2 1.684 10.74 2.244 16.533a171.825 171.825 0 0 1 1.951 11.159 228.327 228.327 0 0 1 2.056 25.294c.24 8.367.124 17.137-.355 26.809a483.325 483.325 0 0 1-1 15.172c1.191 11.986 2.773 23.936 4.958 35.752 1.6 8.632 3.483 16.972 5.608 24.79a249.977 249.977 0 0 0 7.857 24.129 213.619 213.619 0 0 0 10.552 23.244 194.332 194.332 0 0 0 13.693 22.131c79.468 110.87 176.179 134.807 267.525 134.807 36.986 0 73.084-3.923 106.816-7.588 4.03-.437 8.2-.89 12.239-1.322 11.763-1.256 26.454-3.958 46.233-8.5 17.916-4.118 38.682-9.445 60.667-15.088 41.228-10.58 87.957-22.571 140.582-33.243 28.78-5.836 55.806-10.571 82.624-14.475 30.335-4.415 60.327-7.7 89.143-9.774 10.019-.719 20.052-1.3 29.988-1.746q-9.19.332-18.436.812c-53.548 2.78-109.451 9.258-170.9 19.8-52.956 9.087-100.778 19.574-142.97 28.826-26.235 5.753-48.893 10.722-69.143 14.572-22.347 4.249-38.7 6.523-51.475 7.155l-4.155.206c-29.6 1.47-60.2 2.99-91.775 1.9a468.919 468.919 0 0 1-47.786-3.939 378.498 378.498 0 0 1-24.086-4.079 338.405 338.405 0 0 1-24.106-5.822 313.863 313.863 0 0 1-24.045-7.821 298.396 298.396 0 0 1-23.9-10.071 295.227 295.227 0 0 1-23.679-12.575 302.864 302.864 0 0 1-23.374-15.332 319.901 319.901 0 0 1-22.988-18.341c-7.662-6.707-15.239-13.975-22.52-21.6-7.484-7.84-14.876-16.291-21.971-25.117-7.281-9.059-14.461-18.777-21.342-28.885a235.69 235.69 0 0 1-13.558-22.562 254.807 254.807 0 0 1-10.791-23.285 312.892 312.892 0 0 1-14.834-48c-7.405-32.388-10.517-65.025-13.527-96.587-2.425-25.438-4.716-49.464-9.086-71.721a232.4 232.4 0 0 0-8.36-31.754 141.274 141.274 0 0 0-13.047-28 113 113 0 0 0-8.782-12.352 105.963 105.963 0 0 0-10.557-11.131A108.436 108.436 0 0 0 104.6 284.1a120.657 120.657 0 0 0-14.718-8.4 144.35 144.35 0 0 0-17.1-6.9 182.2 182.2 0 0 0-19.691-5.3c-7.052-1.5-14.616-2.712-22.482-3.607-8.014-.913-16.586-1.522-25.475-1.813l.016-.5c8.9.292 17.488.9 25.516 1.816 7.882.9 15.462 2.113 22.53 3.614a182.8 182.8 0 0 1 19.745 5.319 144.675 144.675 0 0 1 17.159 6.917 121.111 121.111 0 0 1 14.777 8.443 108.787 108.787 0 0 1 12.592 9.862 106.515 106.515 0 0 1 10.607 11.182 113.642 113.642 0 0 1 8.821 12.407 141.758 141.758 0 0 1 13.093 28.094 232.828 232.828 0 0 1 8.379 31.821c4.374 22.281 6.666 46.32 9.093 71.771 3.009 31.546 6.119 64.165 13.517 96.522a312.325 312.325 0 0 0 14.81 47.927 254.17 254.17 0 0 0 10.769 23.24 235.274 235.274 0 0 0 13.529 22.513c49.794 73.156 109.832 118.8 183.542 139.546a338.726 338.726 0 0 0 24.07 5.814 377.932 377.932 0 0 0 24.053 4.073 468.476 468.476 0 0 0 47.736 3.935c31.556 1.088 62.148-.431 91.732-1.9l4.156-.206c12.748-.631 29.083-2.9 51.407-7.147 20.243-3.848 42.9-8.816 69.13-14.568 42.2-9.254 90.025-19.742 142.992-28.831 61.472-10.549 117.393-17.029 170.961-19.811 8.147-.423 16.292-.76 24.374-1.011q-6.1.137-12.234.337c-52.557 1.711-107.995 6.8-169.478 15.546-53.11 7.558-101.914 16.572-144.973 24.524-29.949 5.531-55.813 10.308-78.686 13.808-25.227 3.86-43.41 5.606-57.223 5.493-30.492-.246-60.4-.731-91.015-3.913a446.091 446.091 0 0 1-46.779-7.235c-7.994-1.7-15.9-3.639-23.49-5.777a338.864 338.864 0 0 1-23.473-7.538 320.314 320.314 0 0 1-23.394-9.536 312.447 312.447 0 0 1-23.252-11.775 316.602 316.602 0 0 1-23.046-14.254 330.42 330.42 0 0 1-22.779-16.972 356.149 356.149 0 0 1-22.449-19.93c-7.487-7.226-14.908-15.007-22.056-23.126-7.339-8.334-14.606-17.271-21.6-26.562-7.17-9.522-14.263-19.695-21.084-30.236a291.309 291.309 0 0 1-13.279-22.736 311.039 311.039 0 0 1-10.92-23.086 368.361 368.361 0 0 1-16.053-46.668c-8.56-31.142-13.365-61.787-18.012-91.422-3.842-24.505-7.471-47.651-12.924-68.9a233.8 233.8 0 0 0-9.777-30.263A144.916 144.916 0 0 0 132.3 292.08c-24.388-36.21-64.943-54.459-127.629-57.431l.023-.5c8.444.4 16.6 1.093 24.241 2.058 7.511.949 14.75 2.19 21.517 3.687a184.919 184.919 0 0 1 18.977 5.239 148.639 148.639 0 0 1 16.625 6.71 126.05 126.05 0 0 1 14.457 8.1 114.044 114.044 0 0 1 12.472 9.415 111.656 111.656 0 0 1 10.672 10.645 118.261 118.261 0 0 1 9.058 11.794 145.427 145.427 0 0 1 14.017 26.707 234.33 234.33 0 0 1 9.8 30.327c5.458 21.276 9.089 44.433 12.933 68.95 4.645 29.623 9.447 60.253 18 91.368a367.978 367.978 0 0 0 16.032 46.6 311.828 311.828 0 0 0 10.9 23.049 291.753 291.753 0 0 0 13.257 22.7c49.58 76.626 108.266 126.409 179.411 152.194a338.044 338.044 0 0 0 23.438 7.526 369.917 369.917 0 0 0 23.458 5.769 445.58 445.58 0 0 0 46.727 7.227c30.6 3.181 60.489 3.665 90.967 3.911 13.785.112 31.944-1.631 57.144-5.486 22.865-3.5 48.726-8.276 78.671-13.805 43.063-7.953 91.873-16.969 144.994-24.528 61.5-8.752 116.956-13.838 169.532-15.55q12.26-.4 24.381-.549c-119.753.558-234.774 18.129-325.793 32.03-34.042 5.2-63.44 9.689-89.208 12.74-28.417 3.363-48.585 4.472-63.468 3.488-17.8-1.176-31.513-2.311-44.447-3.679-16.361-1.731-31.085-3.817-45.014-6.376-33.487-6.154-63.064-15.245-90.419-27.795a333.111 333.111 0 0 1-22.448-11.35 332.725 332.725 0 0 1-22.3-13.545 345.514 345.514 0 0 1-22.117-15.956 369.317 369.317 0 0 1-21.889-18.584 404.909 404.909 0 0 1-21.622-21.43c-7.213-7.7-14.383-15.94-21.312-24.491-7.1-8.758-14.15-18.1-20.963-27.769-6.969-9.889-13.891-20.408-20.573-31.264-37.031-60.158-50.776-121.506-62.9-175.633-5.339-23.829-10.382-46.337-16.966-66.792a241.575 241.575 0 0 0-11.259-29.056 151.91 151.91 0 0 0-14.953-25.479A120.18 120.18 0 0 0 82.2 229.061a153.294 153.294 0 0 0-16.11-6.529 187.877 187.877 0 0 0-18.25-5.191c-6.484-1.507-13.4-2.781-20.567-3.79-7.282-1.025-15.039-1.805-23.055-2.321l.032-.5c8.029.517 15.8 1.3 23.092 2.326 7.178 1.011 14.112 2.288 20.61 3.8a188.064 188.064 0 0 1 18.3 5.206 154.03 154.03 0 0 1 16.162 6.55 120.685 120.685 0 0 1 46.71 38.365 152.394 152.394 0 0 1 15 25.562 241.918 241.918 0 0 1 11.276 29.114c6.591 20.476 11.636 42.994 16.978 66.835 12.118 54.089 25.853 115.394 62.841 175.48 48.962 79.543 105.554 133.251 173.009 164.2 27.318 12.532 56.855 21.612 90.3 27.757 13.915 2.557 28.627 4.641 44.975 6.37 12.929 1.368 26.631 2.5 44.429 3.678 14.851.981 34.989-.127 63.375-3.487 25.76-3.049 55.156-7.538 89.192-12.737 43.8-6.689 93.434-14.27 146.512-20.368 61.294-7.041 116.085-10.809 167.5-11.518q6.2-.086 12.355-.11-2.722-.011-5.445-.01c-110.614 0-219.069 13.363-306.513 24.138-38.464 4.739-71.682 8.833-100.6 11.321-31.9 2.745-54.2 3.1-70.161 1.118-16.433-2.039-30.819-4.172-43.98-6.516-15.789-2.813-30.158-5.977-43.927-9.673-32-8.59-60.492-20.051-87.089-35.04-7.271-4.1-14.5-8.526-21.5-13.163a361.42 361.42 0 0 1-21.353-15.314 384.96 384.96 0 0 1-21.187-17.658 417.92 417.92 0 0 1-21-20.2 470.19 470.19 0 0 1-20.8-22.928 531.734 531.734 0 0 1-20.573-25.855 610.254 610.254 0 0 1-20.329-28.975c-6.769-10.252-13.521-21.116-20.069-32.29-8.136-13.883-15.8-28.547-22.772-43.588-6.221-13.45-11.974-27.27-17.568-42.25-10.323-27.621-18.036-53.612-25.494-78.747-28.236-95.149-48.637-163.9-172.751-174.3l.041-.5a273.052 273.052 0 0 1 42 6.6c6.178 1.517 12.154 3.281 17.762 5.245a160.889 160.889 0 0 1 15.822 6.479 130.043 130.043 0 0 1 47.113 37.294c24.207 30.479 36.384 71.519 50.487 119.04 14.7 49.549 31.37 105.71 65.806 164.472 48.46 82.691 102.962 140.326 166.622 176.2 26.561 14.968 55.01 26.414 86.973 34.993 13.756 3.692 28.111 6.853 43.886 9.663 13.153 2.343 27.53 4.474 43.953 6.512a194.978 194.978 0 0 0 23.78 1.254c12.637 0 27.85-.788 46.277-2.374 28.906-2.488 62.12-6.58 100.579-11.318 44.372-5.467 94.665-11.665 147.5-16.38 58.472-5.217 110.57-7.763 159.018-7.763 1.972 0 3.933 0 5.894.013q2.912.012 5.813.038c-46.744-.784-97.467.658-154.783 4.4-52.4 3.42-103.147 8.288-147.922 12.584-41.367 3.969-80.44 7.717-112.726 9.523-35.657 1.994-60.2 1.473-77.247-1.64-15.84-2.893-30.072-5.953-43.51-9.358-15.254-3.865-29.266-8.109-42.84-12.974a387.154 387.154 0 0 1-42.189-17.964 365.327 365.327 0 0 1-41.564-24.33 389.279 389.279 0 0 1-40.953-32.062 460.3 460.3 0 0 1-40.363-41.17 589.668 589.668 0 0 1-39.805-51.643c-13.331-19.336-26.543-40.7-39.267-63.489a800.092 800.092 0 0 1-38.143-78.454c-10.526-24.826-19.1-47.828-27.4-70.072-36.686-98.4-60.923-163.41-181.091-176.248l.054-.5a279.314 279.314 0 0 1 40.872 7.254c6.058 1.588 11.933 3.406 17.463 5.406a170.608 170.608 0 0 1 15.691 6.555 143.256 143.256 0 0 1 48.192 37.109c11.8 13.876 22.11 30.745 32.443 53.086 9.315 20.141 17.83 42.98 26.844 67.16 8.291 22.239 16.864 45.235 27.386 70.052a799.523 799.523 0 0 0 38.12 78.405c12.717 22.779 25.92 44.126 39.243 63.449a588.771 588.771 0 0 0 39.771 51.6 459.656 459.656 0 0 0 40.328 41.13 388.507 388.507 0 0 0 40.9 32.021 364.6 364.6 0 0 0 41.5 24.294 386.609 386.609 0 0 0 42.134 17.941c13.558 4.86 27.555 9.1 42.793 12.96 13.428 3.4 27.65 6.461 43.478 9.352 17 3.1 41.513 3.624 77.128 1.633 32.277-1.805 71.345-5.554 112.707-9.522 44.778-4.3 95.531-9.165 147.938-12.585 47.256-3.083 90.04-4.606 129.8-4.606q14.416 0 28.317.266c-15.244-.419-30.529-.61-45.776-.61-85.516 0-170.176 5.987-243.865 11.2-46.068 3.258-89.582 6.335-125.43 7.333q-12.386.344-23.152.346c-27.324 0-47.17-1.675-61.5-5.135-15.42-3.721-29.5-7.71-43.037-12.2a416.456 416.456 0 0 1-41.74-16.278 377.556 377.556 0 0 1-40.65-21.542 382.368 382.368 0 0 1-39.752-28 433.441 433.441 0 0 1-39.052-35.646 538.071 538.071 0 0 1-38.55-44.479c-12.9-16.573-25.767-34.909-38.248-54.5-12.808-20.1-25.643-42.214-38.148-65.713-24.149-45.377-42.21-85.931-58.145-121.711-24.341-54.658-43.567-97.83-71.682-129.415-29.907-33.6-68.4-51.956-124.825-59.524l.067-.495c29.376 3.94 53.728 10.8 74.447 20.98 5 2.457 9.878 5.157 14.493 8.024a160.464 160.464 0 0 1 13.172 9.129 167.072 167.072 0 0 1 23.021 21.554c28.166 31.642 47.407 74.846 71.766 129.543 15.931 35.772 33.988 76.318 58.129 121.68 12.5 23.488 25.328 45.586 38.128 65.679 12.473 19.58 25.333 37.9 38.221 54.464a537.515 537.515 0 0 0 38.515 44.438 432.825 432.825 0 0 0 39.006 35.6 381.965 381.965 0 0 0 39.7 27.963 376.9 376.9 0 0 0 40.6 21.514 415.816 415.816 0 0 0 41.7 16.256c13.526 4.483 27.59 8.469 43 12.187 18.061 4.36 44.919 5.876 84.525 4.774 35.838-1 79.346-4.073 125.409-7.331 45.008-3.183 96.022-6.791 147.82-9.01 34.543-1.48 66.523-2.218 96.516-2.218 18.572 0 36.38.283 53.57.847-24.045-.984-49.5-1.475-76.733-1.475-18.153 0-37.1.218-56.954.652-51.025 1.115-99.9 3.43-147.164 5.668-50.9 2.411-98.977 4.688-138.542 4.749-21.075.032-38.463-.552-53.163-1.787-16.249-1.365-29.056-3.5-39.153-6.538-30.765-9.243-57.984-20.57-83.21-34.627a373.994 373.994 0 0 1-39.106-25.126 407.011 407.011 0 0 1-37.94-31.675 491.339 491.339 0 0 1-37.148-39.23c-12.336-14.5-24.7-30.578-36.734-47.791-12.235-17.5-24.582-36.793-36.7-57.357-12.263-20.819-24.725-43.674-37.037-67.931-11.7-23.044-22.108-44.105-32.178-64.474-71.62-144.852-104.302-210.964-230.512-232.06l.083-.493a319.822 319.822 0 0 1 43.282 10.11 239.28 239.28 0 0 1 18.84 6.768 206.862 206.862 0 0 1 17.23 7.977 190.348 190.348 0 0 1 15.812 9.232c4.992 3.252 9.9 6.8 14.587 10.538a207.311 207.311 0 0 1 26.273 25.18 298.789 298.789 0 0 1 23.694 30.973c7.264 10.774 14.679 22.927 22.669 37.152 15.115 26.912 30.577 58.189 48.479 94.4 10.069 20.368 20.48 41.43 32.175 64.47 12.307 24.248 24.764 47.094 37.022 67.9 12.108 20.553 24.448 39.84 36.676 57.325 12.029 17.2 24.377 33.266 36.7 47.753a491.128 491.128 0 0 0 37.11 39.19 406.683 406.683 0 0 0 37.893 31.637 373.6 373.6 0 0 0 39.054 25.091c25.2 14.04 52.382 25.352 83.111 34.584 18.844 5.662 47.639 8.306 90.522 8.306h1.651c39.553-.062 87.625-2.338 138.519-4.749 47.268-2.238 96.146-4.553 147.177-5.668 19.858-.434 38.813-.652 56.968-.652 31.79 0 61.139.667 88.67 2.009-40.118-2.262-81.159-3.065-121.879-3.065-52.547 0-104.559 1.335-153.467 2.588-42.365 1.087-82.954 2.128-119.033 2.128-11.435 0-22.409-.1-32.854-.345-23.138-.533-42.147-1.687-58.112-3.53-8.573-.989-16.388-2.2-23.226-3.6a138.218 138.218 0 0 1-18.822-5.107 395.869 395.869 0 0 1-42.09-17.889 361.841 361.841 0 0 1-39.55-22.886 375.677 375.677 0 0 1-37.561-28.706 439.486 439.486 0 0 1-36.126-35.348c-11.827-12.941-23.684-27.346-35.244-42.814-11.6-15.516-23.343-32.709-34.918-51.1-11.549-18.35-23.374-38.608-35.148-60.213-11.683-21.437-23.773-45.039-35.933-70.149C178.242 181.737 131.268 121.031 1.889 94.135l.1-.49a399.958 399.958 0 0 1 44.727 11.784 264.156 264.156 0 0 1 38.6 16.087 223.383 223.383 0 0 1 33.991 21.606 250.369 250.369 0 0 1 30.893 28.337 359.693 359.693 0 0 1 29.3 36.276c9.5 13.315 19.062 28.174 29.227 45.428 18.131 30.776 37.968 68.765 64.319 123.177 12.157 25.1 24.243 48.7 35.923 70.127 11.768 21.6 23.589 41.845 35.131 60.187 11.568 18.38 23.308 35.562 34.9 51.068 11.55 15.455 23.4 29.847 35.213 42.775a438.926 438.926 0 0 0 36.085 35.308 375.148 375.148 0 0 0 37.502 28.669 361.227 361.227 0 0 0 39.5 22.854 395.318 395.318 0 0 0 42.036 17.867 137.671 137.671 0 0 0 18.752 5.087c6.824 1.4 14.624 2.606 23.184 3.594 15.95 1.84 34.943 2.994 58.066 3.527 43.385 1 96.077-.352 151.861-1.783 48.493-1.244 100.376-2.574 152.883-2.574 41.342 0 83.072.825 123.851 3.165-34.228-2.237-72.015-3.676-114.568-4.371-24.8-.406-49.454-.539-73.818-.539-23.863 0-47.451.128-70.651.254-21.688.118-42.955.233-63.481.233-36.91 0-71.441-.373-101.849-1.776-25.258-1.166-45.923-2.949-63.179-5.454-9.277-1.346-17.689-2.931-25-4.711a134.5 134.5 0 0 1-19.961-6.346 352.722 352.722 0 0 1-41.612-20.732 340.102 340.102 0 0 1-19.574-12.373 346.682 346.682 0 0 1-18.873-13.817 382.552 382.552 0 0 1-36.011-32.288 480.054 480.054 0 0 1-34.308-39.023c-22.089-27.925-43.822-60.9-66.442-100.811-21.295-37.575-43.682-81.875-68.44-135.432-11.552-24.988-23.045-48-34.164-68.393-10.957-20.1-22.013-38.507-32.863-54.717-20.971-31.333-42.168-56.139-64.8-75.835a264.09 264.09 0 0 0-33.439-24.841 278.188 278.188 0 0 0-35.127-18.6A380.839 380.839 0 0 0 42.2 82.411c-11.859-3.842-24.815-7.56-40.773-11.7l.125-.483c15.968 4.142 28.933 7.862 40.8 11.708a381.617 381.617 0 0 1 37.626 14.243 278.591 278.591 0 0 1 35.189 18.637 264.538 264.538 0 0 1 33.5 24.886c22.667 19.726 43.892 44.564 64.888 75.935 10.858 16.222 21.921 34.645 32.886 54.756 11.123 20.4 22.623 43.424 34.179 68.422 24.752 53.545 47.133 97.833 68.422 135.4 22.606 39.888 44.326 72.842 66.4 100.747a479.385 479.385 0 0 0 34.272 38.983 382.028 382.028 0 0 0 35.963 32.246 348.128 348.128 0 0 0 18.846 13.8 338.541 338.541 0 0 0 19.545 12.354 351.978 351.978 0 0 0 41.553 20.7c37.7 15.809 115.522 18.248 209.716 18.248 20.5 0 41.756-.115 63.56-.233 23.2-.126 46.794-.255 70.655-.255 24.368 0 49.014.134 73.824.539 45.669.747 85.853 2.349 122.038 4.876-31.725-2.467-66.824-4.336-106.3-5.67-47.985-1.622-96.048-2.269-142.528-2.9-65.532-.883-127.429-1.716-178.718-5.2-27.412-1.861-49.759-4.332-68.319-7.552a273.716 273.716 0 0 1-26.791-5.9 131.588 131.588 0 0 1-21.081-7.669c-7.183-3.443-14.279-7.17-21.094-11.079s-13.54-8.11-20.023-12.505a321.209 321.209 0 0 1-19.07-13.987 338.906 338.906 0 0 1-18.231-15.527c-23.277-21.273-45.145-46.986-66.852-78.609-10.453-15.222-20.726-31.576-31.407-49.997-10.166-17.528-20.4-36.408-31.3-57.719-10.138-19.835-20.643-41.39-32.116-65.9-10.268-21.933-21.345-46.311-33.862-74.527-10.208-23.241-20.855-44.862-31.646-64.264a523.437 523.437 0 0 0-32.011-50.847 406.246 406.246 0 0 0-16.133-21 350.728 350.728 0 0 0-16.214-18.363 312.847 312.847 0 0 0-16.291-15.972 289.582 289.582 0 0 0-16.366-13.822 275.555 275.555 0 0 0-32.942-22.159A313.3 313.3 0 0 0 92.912 78.61C70.689 69.118 47.871 62.016 25.8 55.149 17.667 52.617 9.252 50 .952 47.287l.156-.475c8.3 2.71 16.709 5.328 24.845 7.86 22.079 6.871 44.909 13.976 67.156 23.478a313.754 313.754 0 0 1 33.258 16.474 276.017 276.017 0 0 1 33 22.2c5.557 4.345 11.073 9 16.393 13.846a311.946 311.946 0 0 1 16.318 16 350.92 350.92 0 0 1 16.238 18.389 405.387 405.387 0 0 1 16.154 21.021 524.06 524.06 0 0 1 32.041 50.9c10.8 19.416 21.453 41.052 31.667 64.305 12.516 28.212 23.592 52.588 33.858 74.517 11.471 24.5 21.974 46.053 32.108 65.883 10.888 21.3 21.121 40.176 31.284 57.7 10.678 18.409 20.945 34.752 31.385 49.961 21.686 31.59 43.529 57.275 66.777 78.522a338.315 338.315 0 0 0 18.2 15.5 321.317 321.317 0 0 0 19.04 13.966c6.474 4.388 13.2 8.589 19.993 12.485s13.889 7.625 21.061 11.062a131.09 131.09 0 0 0 21 7.638 273.2 273.2 0 0 0 26.741 5.893c18.543 3.217 40.873 5.685 68.267 7.546 51.277 3.481 113.167 4.315 178.691 5.2 46.483.625 94.548 1.273 142.538 2.9 40.594 1.372 76.558 3.31 108.989 5.881-75.349-6.592-156.84-9.135-234.015-11.544-70.268-2.193-136.64-4.264-191.918-9.155-29.585-2.617-53.624-5.828-73.492-9.814a274.888 274.888 0 0 1-28.582-7.177 129.655 129.655 0 0 1-22.176-9.065 298.291 298.291 0 0 1-20.946-12.432 298.155 298.155 0 0 1-19.7-13.995 311.123 311.123 0 0 1-18.591-15.591 338.108 338.108 0 0 1-17.619-17.221c-21.983-23.091-42.758-51.173-63.516-85.848-18.473-30.859-37.218-67.276-58.99-114.605-20.081-43.654-40.54-91.736-63.28-145.531-32.453-77.202-71.685-132.178-119.946-168.085a268.918 268.918 0 0 0-31.533-20.182 301.226 301.226 0 0 0-31.311-14.773c-20.711-8.415-40.828-14.28-60.283-19.952C33.853 35.617 16.515 30.561.483 23.86l.194-.46c16 6.69 33.331 11.741 51.674 17.089 19.467 5.676 39.6 11.545 60.332 19.969a301.873 301.873 0 0 1 31.363 14.8 269.529 269.529 0 0 1 31.591 20.22 279.219 279.219 0 0 1 31.392 27.3 329.864 329.864 0 0 1 30.771 36.041 429.656 429.656 0 0 1 29.714 46.439 595.729 595.729 0 0 1 28.241 58.494c22.738 53.79 43.195 101.868 63.274 145.516 21.764 47.313 40.5 83.714 58.964 114.558 20.738 34.643 41.492 62.7 63.448 85.76 23.369 24.549 48.469 43.895 76.732 59.144a129.163 129.163 0 0 0 22.089 9.029 274.664 274.664 0 0 0 28.53 7.164c19.85 3.982 43.872 7.189 73.438 9.8 55.264 4.89 121.628 6.961 191.889 9.154 45.959 1.435 93.483 2.918 140.291 5.274 37.548 1.89 70.871 4.169 100.878 6.908-71.084-7.073-148.615-10.788-224.039-14.4-74.852-3.587-145.552-6.975-204.8-13.373-31.757-3.429-57.487-7.428-78.658-12.223a277.592 277.592 0 0 1-30.364-8.522 128.377 128.377 0 0 1-23.239-10.529 279.358 279.358 0 0 1-18.972-12.464 283.122 283.122 0 0 1-17.785-13.869c-5.673-4.8-11.3-9.94-16.716-15.281a327.091 327.091 0 0 1-15.768-16.7c-19.5-22.147-37.81-48.7-55.979-81.174-15.867-28.359-31.88-61.583-50.395-104.557-16.719-38.808-34.092-82.368-52.485-128.486q-11.191-28.061-23.234-58.058c-29.611-73.519-67.9-125.417-117.062-158.661-18.851-12.748-39.534-22.925-63.23-31.112-9.264-3.2-19.231-6.187-30.472-9.131-9.922-2.6-19.533-4.828-28.828-6.987-12.226-2.839-23.773-5.52-34.4-8.662C16.961 8.352 7.79 4.72 0 .438L.24 0C8 4.263 17.137 7.883 29 11.391c10.609 3.137 22.15 5.818 34.368 8.654 9.3 2.159 18.913 4.391 28.841 6.99 11.255 2.946 21.234 5.936 30.51 9.141 23.737 8.2 44.458 18.4 63.346 31.171a252.6 252.6 0 0 1 31.5 25.246 286.546 286.546 0 0 1 30.485 33.827 361.256 361.256 0 0 1 28.805 44.013 490.516 490.516 0 0 1 26.459 55.8q12.087 30.011 23.234 58.06c18.391 46.114 35.763 89.672 52.481 128.474 18.507 42.958 34.512 76.167 50.371 104.511 18.151 32.443 36.443 58.967 55.918 81.086a325.742 325.742 0 0 0 15.744 16.677 298.305 298.305 0 0 0 16.688 15.255 283.156 283.156 0 0 0 17.753 13.845 279.12 279.12 0 0 0 18.938 12.442 127.894 127.894 0 0 0 23.148 10.485 276.749 276.749 0 0 0 30.308 8.507c21.153 4.792 46.863 8.787 78.6 12.214 59.236 6.4 129.929 9.784 204.772 13.37 88.989 4.265 180.923 8.67 261.739 18.564a868.377 868.377 0 0 1 36.632 2.544c19.2 1.743 38.7 4.169 57.967 7.208a928.04 928.04 0 0 1 60.275 11.592 983.696 983.696 0 0 1 62.559 16.4c21.463 6.385 43.27 13.664 64.817 21.634 50.8 18.793 98.522 35.364 141.849 49.253 41.166 13.2 79.539 24.35 114.054 33.151 32.6 8.312 62.708 14.766 89.488 19.183 12.773 2.107 25.067 3.8 36.54 5.022 11.083 1.184 21.719 1.968 31.61 2.332 9.527.35 18.639.32 27.081-.09a223.472 223.472 0 0 0 22.957-2.244 158.619 158.619 0 0 0 19.236-4.129 117.553 117.553 0 0 0 15.921-5.746 93.683 93.683 0 0 0 13.006-7.091 82.7 82.7 0 0 0 10.509-8.177 86.419 86.419 0 0 0 15.144-18.546l.425.263a86.9 86.9 0 0 1-15.231 18.653 83.111 83.111 0 0 1-10.574 8.226 94.018 94.018 0 0 1-13.081 7.132 118.089 118.089 0 0 1-15.988 5.771 159.33 159.33 0 0 1-19.3 4.142 223.9 223.9 0 0 1-23.009 2.249c-8.456.41-17.582.441-27.123.09-9.9-.364-20.55-1.149-31.644-2.335-11.484-1.227-23.787-2.917-36.569-5.026-26.794-4.419-56.916-10.877-89.53-19.192-34.525-8.8-72.908-19.958-114.084-33.158-43.333-13.891-91.066-30.465-141.87-49.261-21.536-7.967-43.333-15.242-64.786-21.624-20.785-6.183-41.821-11.7-62.527-16.392a934.941 934.941 0 0 0-33.671-6.985 908.543 908.543 0 0 1 34.57 7.332 937.886 937.886 0 0 1 59.853 16.043 986.96 986.96 0 0 1 61.557 20.967c48.84 18.446 94.9 34.893 136.9 48.883 40.141 13.371 77.724 24.882 111.705 34.214 32.324 8.876 62.329 16.038 89.179 21.286a653.052 653.052 0 0 0 69.323 10.1c9.839.83 19.275 1.3 28.05 1.4 8.479.1 16.583-.154 24.086-.742a190.481 190.481 0 0 0 20.457-2.664 136.247 136.247 0 0 0 17.161-4.369c18.763-6.18 32.639-16.039 42.421-30.139l.41.285c-9.845 14.193-23.8 24.114-42.674 30.329a136.6 136.6 0 0 1-17.225 4.385 191.038 191.038 0 0 1-20.51 2.671c-6.476.507-13.4.762-20.622.762q-1.744 0-3.51-.02c-8.786-.1-18.236-.571-28.086-1.4a653.32 653.32 0 0 1-69.376-10.108c-26.863-5.251-56.88-12.415-89.216-21.295-33.99-9.334-71.581-20.848-111.731-34.222-42.008-13.993-88.075-30.442-136.922-48.89a982.319 982.319 0 0 0-61.527-20.957 937.525 937.525 0 0 0-59.82-16.035 909.09 909.09 0 0 0-36.635-7.725 880.662 880.662 0 0 1 37.758 8.149 893.468 893.468 0 0 1 57.03 15.66 920.08 920.08 0 0 1 58.2 20.26c46.91 18.11 91.308 34.432 131.961 48.514 39.14 13.557 75.933 25.426 109.356 35.276 32.072 9.453 61.971 17.321 88.87 23.388 25.7 5.8 49.418 10.119 70.493 12.846a396.314 396.314 0 0 0 54.23 3.653c7.649-.081 14.942-.484 21.676-1.2a159.418 159.418 0 0 0 18.4-2.989 113.189 113.189 0 0 0 15.391-4.609 83.959 83.959 0 0 0 12.647-6.059 67.711 67.711 0 0 0 10.172-7.339 61.334 61.334 0 0 0 7.966-8.452l.4.307a61.92 61.92 0 0 1-8.031 8.52 68.227 68.227 0 0 1-10.247 7.394 84.33 84.33 0 0 1-12.722 6.095 113.592 113.592 0 0 1-15.459 4.63 160.031 160.031 0 0 1-18.46 3c-6.749.716-14.057 1.12-21.722 1.2q-1.447.015-2.919.015a405.283 405.283 0 0 1-51.382-3.672c-21.09-2.729-44.823-7.053-70.539-12.854-26.908-6.069-56.819-13.941-88.9-23.4-33.432-9.853-70.232-21.724-109.38-35.284-40.658-14.083-85.062-30.407-131.977-48.52a919.114 919.114 0 0 0-58.17-20.248 891.98 891.98 0 0 0-57-15.651 877.896 877.896 0 0 0-33.585-7.334 850.982 850.982 0 0 1 34.885 7.806 846.68 846.68 0 0 1 54.112 15.247 852.851 852.851 0 0 1 54.778 19.515c45.014 17.789 87.75 33.986 127.02 48.14 38.172 13.757 74.175 25.984 107.01 36.339 31.847 10.043 61.642 18.619 88.558 25.49 26.038 6.646 50.149 11.892 71.662 15.592a480.949 480.949 0 0 0 56.323 6.648 229.51 229.51 0 0 0 42.534-1.342 127.638 127.638 0 0 0 16.582-3.365 88.371 88.371 0 0 0 13.717-5 64.806 64.806 0 0 0 11.05-6.511 53.187 53.187 0 0 0 8.583-7.9l.378.328a53.654 53.654 0 0 1-8.665 7.978 65.4 65.4 0 0 1-11.134 6.561 88.947 88.947 0 0 1-13.8 5.028 128.349 128.349 0 0 1-16.646 3.379 189.009 189.009 0 0 1-19.693 1.613q-3.857.125-7.93.126c-4.813 0-9.833-.131-15.006-.394a481.5 481.5 0 0 1-56.382-6.654c-21.527-3.7-45.651-8.951-71.7-15.6-26.925-6.873-56.729-15.451-88.584-25.5-32.841-10.356-68.851-22.585-107.029-36.345-39.275-14.156-82.015-30.354-127.034-48.146a851.573 851.573 0 0 0-54.745-19.5 846.732 846.732 0 0 0-54.081-15.238 849.297 849.297 0 0 0-33.778-7.582 820.605 820.605 0 0 1 35.158 8.1 801.163 801.163 0 0 1 51.13 14.811 789.044 789.044 0 0 1 51.323 18.747c43.168 17.493 84.24 33.565 122.076 47.767 37.245 13.981 72.458 26.563 104.662 37.4 31.657 10.653 61.347 19.937 88.247 27.591 26.4 7.513 50.907 13.684 72.833 18.339a582.064 582.064 0 0 0 58.416 9.643 273.781 273.781 0 0 0 44.995 1.507 145.937 145.937 0 0 0 17.773-2.12 95.1 95.1 0 0 0 14.789-3.94 64.108 64.108 0 0 0 11.931-5.684 47.652 47.652 0 0 0 9.2-7.355l.359.347a48.165 48.165 0 0 1-9.3 7.433 64.6 64.6 0 0 1-12.008 5.742 95.668 95.668 0 0 1-14.867 3.961 146.577 146.577 0 0 1-17.834 2.129q-5.966.366-12.533.366a309.833 309.833 0 0 1-32.545-1.876 582.561 582.561 0 0 1-58.468-9.651c-21.937-4.657-46.453-10.831-72.866-18.347-26.907-7.657-56.606-16.943-88.269-27.6-32.209-10.839-67.428-23.424-104.678-37.407-37.84-14.2-78.917-30.276-122.089-47.771a796.609 796.609 0 0 0-142.259-42.615 786.146 786.146 0 0 1 41.315 9.648 752.703 752.703 0 0 1 48.108 14.355 724.94 724.94 0 0 1 47.866 17.959c41.4 17.236 80.806 33.183 117.133 47.4 36.374 14.233 70.8 27.175 102.314 38.465s61.094 21.279 87.937 29.7c26.794 8.4 51.692 15.5 74 21.085 22.233 5.572 42.592 9.824 60.509 12.639a325.2 325.2 0 0 0 47.451 4.354 167.5 167.5 0 0 0 18.964-.877 103.917 103.917 0 0 0 15.86-2.881 64.961 64.961 0 0 0 12.811-4.86 43.96 43.96 0 0 0 9.821-6.81l.341.365a44.482 44.482 0 0 1-9.932 6.889 65.415 65.415 0 0 1-12.91 4.9 104.461 104.461 0 0 1-15.936 2.9 165.644 165.644 0 0 1-17.688.884h-1.334a325.733 325.733 0 0 1-47.525-4.36c-17.933-2.817-38.3-7.072-60.554-12.648-22.319-5.593-47.227-12.69-74.03-21.093-26.85-8.419-56.443-18.411-87.957-29.7s-65.948-24.235-102.326-38.47c-36.331-14.216-75.744-30.164-117.144-47.4a725.638 725.638 0 0 0-47.833-17.947 752.31 752.31 0 0 0-48.075-14.344 792.398 792.398 0 0 0-38.877-9.143 753.04 753.04 0 0 1 40.282 9.744 704.167 704.167 0 0 1 45.076 13.878 662.114 662.114 0 0 1 44.443 17.162c39.745 17.036 77.491 32.858 112.19 47.024 35.58 14.526 69.213 27.824 99.965 39.527 31.406 11.951 60.887 22.649 87.626 31.8 27.213 9.31 52.505 17.328 75.172 23.832 23 6.6 44.061 11.86 62.6 15.635a383.513 383.513 0 0 0 49.908 7.2 192.647 192.647 0 0 0 20.156.37 114.816 114.816 0 0 0 16.932-1.822 67.167 67.167 0 0 0 13.693-4.034 41.622 41.622 0 0 0 10.44-6.265l.321.383a42.121 42.121 0 0 1-10.565 6.342 67.71 67.71 0 0 1-13.794 4.065 115.346 115.346 0 0 1-17.007 1.83q-3.043.119-6.288.119c-4.4 0-9.057-.164-13.919-.489a384.091 384.091 0 0 1-49.975-7.214c-18.552-3.777-39.626-9.041-62.638-15.644-22.676-6.506-47.974-14.527-75.2-23.84-26.744-9.149-56.231-19.849-87.641-31.8-30.756-11.7-64.393-25-99.977-39.532-34.7-14.167-72.45-29.99-112.2-47.028a662.81 662.81 0 0 0-44.409-17.149 703.36 703.36 0 0 0-45.044-13.867 750.869 750.869 0 0 0-39.147-9.5 716.315 716.315 0 0 1 40.474 10.115 653.52 653.52 0 0 1 42.07 13.388c14.008 5 27.831 10.5 41.086 16.366 165.014 73 282.112 119.941 368.516 147.721 23.773 7.644 45.538 13.911 64.693 18.63a448.95 448.95 0 0 0 52.367 10.053c7.669.926 14.851 1.47 21.347 1.615a127.613 127.613 0 0 0 18.006-.76 70.612 70.612 0 0 0 14.577-3.209 40.232 40.232 0 0 0 11.062-5.72l.3.4a40.751 40.751 0 0 1-11.2 5.793 71.115 71.115 0 0 1-14.681 3.233 121.668 121.668 0 0 1-14.526.8q-1.75 0-3.552-.04c-6.512-.146-13.711-.69-21.4-1.619a449.252 449.252 0 0 1-52.427-10.064c-19.166-4.721-40.943-10.992-64.726-18.639-23.01-7.4-48.7-16.343-76.361-26.585-26.593-9.849-55.975-21.255-87.328-33.9-58.484-23.6-125.5-52.135-204.877-87.251-41.217-18.235-84.27-31.509-128.178-40.864q3.067.667 6.1 1.354c13.706 3.108 27.228 6.606 40.189 10.4 13.368 3.911 26.528 8.248 39.114 12.89 12.957 4.778 25.682 10.019 37.821 15.575 79.28 36.291 142.06 64.232 197.575 87.934 65.1 27.794 118.912 49.163 164.512 65.326 24.545 8.7 47.013 15.976 66.783 21.626a520 520 0 0 0 54.821 12.9c8.1 1.372 15.684 2.335 22.537 2.862a142.215 142.215 0 0 0 19.078.3 75.1 75.1 0 0 0 15.458-2.382 39.6 39.6 0 0 0 11.682-5.178l.28.414a40.053 40.053 0 0 1-11.829 5.245 75.608 75.608 0 0 1-15.562 2.4q-3.3.194-6.917.194c-3.842 0-7.932-.166-12.228-.5-6.868-.527-14.466-1.492-22.583-2.866a520.57 520.57 0 0 1-54.875-12.916c-19.779-5.653-42.258-12.932-66.811-21.635-45.609-16.168-99.431-37.539-164.542-65.337-55.518-23.7-118.3-51.646-197.587-87.939-12.127-5.551-24.84-10.786-37.786-15.561-12.576-4.638-25.725-8.971-39.081-12.878-12.953-3.79-26.465-7.286-40.161-10.391l-1.942-.437q2.791.639 5.547 1.3c12.861 3.061 25.5 6.474 37.566 10.145 12.435 3.784 24.622 7.951 36.224 12.386 11.938 4.564 23.6 9.543 34.664 14.8 53.992 25.655 124.413 58.914 190.281 88.628 65.644 29.613 119.736 52.567 165.368 70.176 25.308 9.766 48.48 18.05 68.874 24.622 21.551 6.944 40.821 12.245 57.279 15.753 8.534 1.819 16.518 3.2 23.729 4.107a159.938 159.938 0 0 0 19.715 1.362h.438a80.531 80.531 0 0 0 16.344-1.558 39.518 39.518 0 0 0 12.306-4.636l.26.427a40.026 40.026 0 0 1-12.461 4.7 81.017 81.017 0 0 1-16.447 1.57h-.439a160.41 160.41 0 0 1-19.777-1.365c-7.225-.909-15.223-2.293-23.771-4.115-16.474-3.512-35.761-8.816-57.327-15.766-20.4-6.574-43.584-14.862-68.9-24.63-45.642-17.612-99.742-40.57-165.394-70.187-65.873-29.716-136.3-62.977-190.292-88.633-11.052-5.251-22.7-10.225-34.627-14.783-11.591-4.431-23.768-8.594-36.192-12.375-12.056-3.667-24.684-7.078-37.536-10.137q-1.31-.312-2.629-.62 3.017.723 5.988 1.465c12.028 3.005 23.8 6.328 34.994 9.874 11.526 3.654 22.771 7.652 33.422 11.884 10.952 4.352 21.594 9.076 31.629 14.044 59.216 29.309 122.123 60.349 182.989 89.317 66.061 31.441 120.433 55.981 166.223 75.023 26.051 10.834 49.927 20.127 70.962 27.618 22.463 8 42.561 14.259 59.734 18.6 8.964 2.268 17.348 4.07 24.919 5.355a176.69 176.69 0 0 0 21.225 2.422 86.813 86.813 0 0 0 17.229-.731 39.975 39.975 0 0 0 12.928-4.093l.24.439a40.483 40.483 0 0 1-13.091 4.148 78.828 78.828 0 0 1-12.157.859q-2.509 0-5.171-.122a177.168 177.168 0 0 1-21.286-2.429c-7.584-1.287-15.981-3.092-24.959-5.362-17.188-4.348-37.3-10.612-59.778-18.617-21.044-7.494-44.927-16.79-70.988-27.627-45.8-19.046-100.177-43.59-166.245-75.034-60.869-28.969-123.778-60.01-183-89.32-31.925-15.8-67.177-27.838-104.6-36.881q3.9.969 7.719 1.97c11.215 2.943 22.146 6.169 32.49 9.589 10.647 3.522 20.983 7.352 30.72 11.384 10.006 4.145 19.671 8.623 28.727 13.312 57.555 29.8 117.068 60.606 175.7 90.005 66.2 33.2 120.855 59.324 167.079 79.871 26.771 11.9 51.35 22.2 73.053 30.615 23.363 9.057 44.285 16.276 62.187 21.454 9.392 2.717 18.176 4.938 26.109 6.6a196.579 196.579 0 0 0 22.3 3.484 93.938 93.938 0 0 0 18.112.1 40.781 40.781 0 0 0 13.551-3.55l.219.449a41.3 41.3 0 0 1-13.718 3.6 76.334 76.334 0 0 1-8.014.394c-3.184 0-6.591-.163-10.2-.49a197.042 197.042 0 0 1-22.354-3.493c-7.944-1.666-16.741-3.89-26.145-6.611-17.915-5.183-38.853-12.406-62.229-21.469-21.711-8.416-46.3-18.72-73.076-30.623-46.231-20.551-100.891-46.68-167.1-79.882-58.63-29.4-118.146-60.212-175.7-90.008-30.053-15.559-65.152-28.107-105.8-37.753 16.634 4.058 32.312 8.624 46.773 13.625 9.8 3.388 19.263 7.052 28.126 10.891 9.1 3.943 17.839 8.184 25.965 12.605l1.362.742c51.877 28.229 110.677 60.225 168.146 90.541 65.752 34.686 120.543 62.312 167.5 84.458 27.375 12.909 52.581 24.173 74.918 33.479 24.171 10.07 45.853 18.211 64.442 24.2 9.787 3.151 18.943 5.778 27.214 7.808a216.909 216.909 0 0 0 23.3 4.517 101.623 101.623 0 0 0 18.944.907 41.959 41.959 0 0 0 14.142-3.007l.2.458a42.449 42.449 0 0 1-14.312 3.048q-2.13.128-4.448.129a113.859 113.859 0 0 1-14.59-1.04 217.416 217.416 0 0 1-23.353-4.528c-8.283-2.032-17.451-4.663-27.249-7.817-18.6-5.99-40.3-14.135-64.48-24.21-22.344-9.31-47.557-20.577-74.938-33.489-46.968-22.148-101.766-49.777-167.524-84.467-57.473-30.318-116.274-62.315-168.152-90.544l-1.362-.742c-29.447-16.023-63.886-28.18-101.7-37.345a484.291 484.291 0 0 1 47.8 14.38c8.986 3.256 17.615 6.759 25.646 10.41 8.242 3.747 16.1 7.761 23.342 11.929 104.337 60.015 224.48 128.442 329.9 180.957 28.111 14.005 54.094 26.321 77.232 36.607 25.119 11.167 47.694 20.3 67.1 27.155 10.242 3.616 19.828 6.676 28.49 9.1a240.625 240.625 0 0 0 24.444 5.608 110.566 110.566 0 0 0 19.884 1.75 43.54 43.54 0 0 0 14.8-2.467l.181.466a44.038 44.038 0 0 1-14.975 2.5q-.62.011-1.254.011a114.746 114.746 0 0 1-18.722-1.767 240.844 240.844 0 0 1-24.5-5.62c-8.673-2.422-18.269-5.485-28.522-9.105-19.417-6.856-42-16-67.135-27.169-23.144-10.289-49.135-22.609-77.252-36.616-48.375-24.1-103.592-53.4-168.807-89.581-57.855-32.095-113.5-64-161.114-91.391-24.083-13.853-53.6-25.385-88.986-34.7 14.4 3.911 27.781 8.214 39.926 12.838 8.209 3.126 16.042 6.469 23.279 9.94a232.825 232.825 0 0 1 20.856 11.282c56.007 34.289 106.321 64.408 153.816 92.079 63.146 36.787 120.222 68.554 169.643 94.417 28.726 15.034 55.414 28.358 79.321 39.6 25.972 12.217 49.372 22.312 69.551 30.007 10.664 4.066 20.649 7.546 29.679 10.343 9.344 2.9 17.928 5.14 25.514 6.673a120.107 120.107 0 0 0 20.768 2.578 45.347 45.347 0 0 0 15.427-1.922l.162.473a43.913 43.913 0 0 1-14.05 1.967q-.764 0-1.55-.017a120.678 120.678 0 0 1-20.856-2.588c-7.6-1.535-16.2-3.785-25.563-6.684-9.04-2.8-19.035-6.284-29.709-10.354-20.191-7.7-43.6-17.8-69.585-30.021-23.913-11.247-50.607-24.575-79.339-39.612-49.428-25.868-106.511-57.638-169.663-94.429-47.5-27.672-97.816-57.793-153.826-92.084-22.246-13.62-50.547-25.039-85.362-34.374a389.916 389.916 0 0 1 40.927 13.62c7.467 3 14.543 6.188 21.029 9.484a193.1 193.1 0 0 1 18.5 10.668c31.886 20.953 83.19 54.056 146.52 92.765 61.652 37.684 119.015 71.081 170.5 99.266 61.363 33.594 112.981 58.982 153.417 75.457 22.579 9.2 41.911 15.7 57.458 19.326a130.368 130.368 0 0 0 21.655 3.406c6.386.366 11.787-.1 16.054-1.38l.144.479a42.557 42.557 0 0 1-12.116 1.522q-1.983 0-4.111-.121a130.732 130.732 0 0 1-21.74-3.419c-15.572-3.63-34.929-10.14-57.533-19.349-40.454-16.482-92.088-41.877-153.468-75.48-51.488-28.188-108.859-61.59-170.518-99.278-63.337-38.713-114.644-71.818-146.533-92.774-21.376-14.048-49.152-25.168-81.5-34.031a351.887 351.887 0 0 1 41.437 14.307c6.763 2.872 13.12 5.915 18.895 9.045a157.645 157.645 0 0 1 16.285 10.085c71.257 50.791 194.924 131.58 310.571 197.572 29.858 17.039 57.952 32.379 83.5 45.595 27.632 14.295 52.683 26.308 74.46 35.707 40.322 17.4 70.075 26.174 88.727 26.174a40.619 40.619 0 0 0 10.213-1.145l.127.484a41.438 41.438 0 0 1-10.384 1.16q-3.044-.041-6.465-.349ZM153.787 676.9c-1.048 10.545-1.761 20.021-2.178 28.966-.468 10.042-.554 19.162-.263 27.88a234.611 234.611 0 0 0 2.293 26.407 163.958 163.958 0 0 0 5.489 24.545 123.291 123.291 0 0 0 9.322 22.3 105.005 105.005 0 0 0 13.8 19.669 263.608 263.608 0 0 0 22.59 22.5 238.78 238.78 0 0 0 23.686 18.352A225.463 225.463 0 0 0 278.576 893a238.581 238.581 0 0 0 26.061 7.742 260.833 260.833 0 0 0 26.549 4.813c8.688 1.12 17.732 1.857 26.882 2.187 8.753.316 17.858.271 27.062-.135 32.17-1.418 67.162-7.206 106.976-17.7 34.637-9.125 68.058-20.518 97.545-30.57 8.484-2.893 16.5-5.624 24.33-8.235 19.028-6.342 42.4-16.5 69.46-28.254 17.67-7.677 37.7-16.378 59.151-25.147 24.617-10.061 47.354-18.674 69.508-26.331a1096.639 1096.639 0 0 1 38.575-12.547 1003.12 1003.12 0 0 1 41.088-11.566 939.255 939.255 0 0 1 43.576-10.161 898.756 898.756 0 0 1 46.038-8.33 870.984 870.984 0 0 1 41.116-5.329 931.434 931.434 0 0 0-33.39 3.838 966.453 966.453 0 0 0-46.053 7.29 1022.075 1022.075 0 0 0-43.824 9.033 1100.277 1100.277 0 0 0-41.53 10.38c-12.824 3.47-26 7.282-39.17 11.329-22.548 6.931-45.771 14.754-71 23.917-21.991 7.988-42.594 15.934-60.772 22.947-30.06 11.6-56.021 21.611-76.367 27.248-7.623 2.112-15.366 4.313-23.564 6.642-29.033 8.251-61.941 17.6-95.7 24.551-36.125 7.433-68.149 11.067-97.638 11.067q-3.19 0-6.336-.057c-8.93-.16-17.765-.671-26.261-1.517a287.616 287.616 0 0 1-26.095-3.8A260.374 260.374 0 0 1 309 869.934a244.181 244.181 0 0 1-25.349-9.23 238.468 238.468 0 0 1-24.77-12.376 243.608 243.608 0 0 1-24.052-15.809 260.453 260.453 0 0 1-23.2-19.526 290.959 290.959 0 0 1-22.2-23.531A121.247 121.247 0 0 1 175.583 769a140.022 140.022 0 0 1-9.666-22.715 179.822 179.822 0 0 1-6.086-24.612 247.554 247.554 0 0 1-3.109-26.159c-.582-8.588-.822-17.536-.732-27.355.041-4.4.148-8.917.323-13.628a921.787 921.787 0 0 0-2.526 22.369Zm36.025 112.24c59.416 70.3 131.434 92.112 203.527 92.112 67.84 0 135.744-19.3 193.348-35.67 8.2-2.33 15.943-4.531 23.567-6.643 20.323-5.631 46.273-15.642 76.321-27.233 18.181-7.013 38.786-14.962 60.782-22.951 25.234-9.166 48.466-16.991 71.022-23.925a1207.738 1207.738 0 0 1 39.186-11.334c13.9-3.762 27.884-7.256 41.549-10.384a1021.267 1021.267 0 0 1 43.845-9.038 966.392 966.392 0 0 1 46.077-7.294 929.912 929.912 0 0 1 38.733-4.34 987.923 987.923 0 0 0-29.908 2.911c-125.1 14.1-229.866 49.7-306.362 75.7-16.939 5.756-32.938 11.194-47.112 15.684-15.708 4.977-27.7 8.327-37.742 10.542a3845.268 3845.268 0 0 0-21.685 4.871c-14.714 3.334-29.929 6.781-45.666 10.018-17.84 3.67-33.682 6.508-48.433 8.676-17.916 2.633-34.344 4.315-50.222 5.142-8.672.452-17.244.64-25.476.561a357.474 357.474 0 0 1-25.556-1.145 313.937 313.937 0 0 1-25.515-3.126 282.954 282.954 0 0 1-25.35-5.38 262.047 262.047 0 0 1-25.062-7.908 249.844 249.844 0 0 1-48.769-24.5 262.237 262.237 0 0 1-23.46-17.139 284.3 284.3 0 0 1-22.678-20.761 320.426 320.426 0 0 1-21.775-24.657 140.178 140.178 0 0 1-13.872-21.1 159.047 159.047 0 0 1-10.009-22.982 197.649 197.649 0 0 1-6.7-24.547c-1.67-8.053-3-16.734-3.949-25.8-1.184-11.3-1.759-22.873-1.925-34.6-1.179 8.473-2.358 17.043-3.46 25.6-2.56 53.717 2.209 104.291 32.729 140.639Zm7.573-37.525c50.249 63.031 113.138 96.815 192.261 103.284 8.256.675 16.842 1.06 25.52 1.144 8.222.08 16.784-.11 25.446-.561 15.862-.825 32.275-2.506 50.176-5.137 14.74-2.166 30.574-5 48.4-8.671 15.732-3.236 30.945-6.683 45.656-10.016 7.524-1.7 14.63-3.315 21.687-4.872 10.027-2.211 22.006-5.557 37.7-10.529 14.169-4.489 30.165-9.926 47.1-15.682 18.715-6.36 39.927-13.568 62.454-20.78 25.83-8.269 49.525-15.3 72.439-21.509 28.171-7.628 54.866-13.938 81.609-19.294 14.719-2.947 29.519-5.6 43.989-7.9a1037.441 1037.441 0 0 1 45.976-6.24 1005.57 1005.57 0 0 1 37.394-3.5c-9.145.6-18.348 1.326-27.525 2.171-124.06 11.428-231.363 43.273-309.712 66.525-19.257 5.715-37.447 11.113-53.347 15.439-17.591 4.784-30.847 7.843-41.715 9.623-5.885.964-11.751 1.948-17.961 2.991-29.729 4.99-60.469 10.148-92.813 12.96-17.548 1.526-33.623 2.191-49.145 2.032-8.47-.086-16.84-.429-24.878-1.019a346.561 346.561 0 0 1-24.938-2.728 308.785 308.785 0 0 1-24.89-4.7 283.987 283.987 0 0 1-24.733-6.935 269.058 269.058 0 0 1-24.466-9.436 263.793 263.793 0 0 1-24.092-12.2 269.322 269.322 0 0 1-23.607-15.225 285.557 285.557 0 0 1-23.014-18.516c-7.631-6.812-15.138-14.237-22.312-22.068-7.371-8.045-14.606-16.753-21.5-25.882a164.278 164.278 0 0 1-13.819-21.684 183.168 183.168 0 0 1-10.31-23.186 220.864 220.864 0 0 1-7.3-24.41c-1.9-7.957-3.512-16.489-4.787-25.362-1.464-10.189-2.457-20.548-3.119-30.989-1.245 9.54-2.579 19.105-3.892 28.512l-.333 2.383c.379 49.277 7.653 95.907 36.401 131.965Zm-28.557-131.941c1.273 8.858 2.88 17.375 4.778 25.317a220.3 220.3 0 0 0 7.279 24.354 182.549 182.549 0 0 0 10.281 23.122 163.623 163.623 0 0 0 13.784 21.622C254.741 780 316.331 817.538 393.239 828.858a346.203 346.203 0 0 0 24.9 2.723c8.028.589 16.388.932 24.847 1.018 15.5.158 31.564-.506 49.1-2.03 32.324-2.81 63.054-7.967 92.773-12.955a4661.93 4661.93 0 0 1 17.964-2.992c10.85-1.777 24.089-4.831 41.664-9.612 15.894-4.324 34.081-9.72 53.336-15.435s41.095-12.2 64.129-18.634c26.389-7.377 50.5-13.625 73.722-19.1 28.52-6.727 55.424-12.245 82.248-16.869a1198.367 1198.367 0 0 1 43.989-6.754c15.315-2.057 30.7-3.8 45.721-5.185 13.2-1.216 26.467-2.185 39.53-2.888-134.226 6.128-253.511 36.738-341.041 59.2-21.989 5.643-42.757 10.972-60.679 15.09-19.8 4.55-34.51 7.256-46.292 8.514-4.041.432-8.209.885-12.24 1.323-33.494 3.639-69.568 7.558-106.592 7.558-27.22 0-54.951-2.118-82.558-8.023a308.056 308.056 0 0 1-24.395-6.259 289.142 289.142 0 0 1-24.245-8.492 279.381 279.381 0 0 1-24-10.983 280.308 280.308 0 0 1-23.661-13.729 291.838 291.838 0 0 1-23.227-16.731c-7.736-6.167-15.372-12.893-22.7-19.99-7.534-7.3-14.961-15.209-22.072-23.5-7.3-8.519-14.487-17.7-21.353-27.274a195.022 195.022 0 0 1-13.728-22.189 214.2 214.2 0 0 1-10.577-23.3 250.684 250.684 0 0 1-7.872-24.178c-2.128-7.83-4.018-16.184-5.617-24.829-2.026-10.953-3.534-22.02-4.693-33.123-.278 3.25-.591 6.6-.941 10.075-.888 8.8-1.961 17.793-3.123 26.821.657 11.31 1.689 22.527 3.272 33.548Zm-11.41 22.363c1-7.538 2.046-15.065 3.084-22.505q-.067-8.771.132-17.633c-1.288 13.437-2.451 26.866-3.216 40.139Zm3.556-25.895c1.383-9.916 2.787-20 4.079-30.035-.4-6.831-.657-13.695-.82-20.571-.549 5.668-1.116 11.32-1.677 16.915q-.628 6.262-1.25 12.541a672.67 672.67 0 0 0-.331 21.151Zm2.62-68.12c-.755 13.038-1.514 26.152-2.02 39.206l.484-4.826c.7-6.992 1.413-14.076 2.085-21.164-.122-6.73-.159-13.469-.147-20.191q-.196 3.501-.401 6.977Zm1.808 35.351c1.03-8.12 1.979-16.2 2.778-24.122.447-4.431.834-8.663 1.163-12.739-.723-7.279-1.3-14.576-1.783-21.859q-.076 1.316-.16 2.657c-.689 11.085-1.674 22.521-2.758 33.944.136 7.391.373 14.774.758 22.121Zm-.83-26.725c.913-9.9 1.733-19.765 2.329-29.369q.218-3.513.39-6.856c-.526-8.6-.93-17.182-1.289-25.706l-.017.878c-.233 11.61-.791 23.662-1.442 35.666-.062 8.439-.077 16.914.031 25.388Zm5-13.011c.321-4.256.578-8.348.775-12.327.478-9.66.594-18.417.354-26.771a227.756 227.756 0 0 0-2.05-25.237q-.469-3.3-1.046-6.508.1 1.318.191 2.652c.529 7.913.737 16.209.635 25.363a487.135 487.135 0 0 1-.634 19.61 700.382 700.382 0 0 0 1.772 23.219Zm-4.885-79.318c.419 16.162.232 32.541.033 49.883l-.056 4.924c.373-7.947.671-15.842.825-23.541.074-3.684.114-7.213.12-10.618l-.153-3.879c-.29-7.358-.578-14.657-.916-21.872l-.008-.029q.084 2.513.152 5.133Zm2.832 51.376c.224-5.2.36-10.133.412-14.891.1-9.141-.107-17.425-.635-25.324q-.249-3.725-.6-7.329-.5-2.4-1.071-4.733.172 3.456.284 7.084c.141 4.612.207 9.4.2 14.457.401 10.17.826 20.434 1.407 30.741Zm-1.279-51.876q-.474-4.09-1.078-7.979.181 2.453.327 4.981.385 1.479.747 2.998Z" fill="url(#eco-system-bg_svg__a)"/></svg>