<svg xmlns="http://www.w3.org/2000/svg" width="1569.023" height="440.43"><g data-name="Raggruppa 2735"><g data-name="Raggruppa 2725"><g data-name="Raggruppa 197"><path data-name="Tracciato 62" d="M.25 23.11V.25h158.86l15.14 15.14v22.86H15.4Z" fill="none" stroke="#0ff" stroke-miterlimit="10" stroke-width=".5"/><g data-name="Raggruppa 34"><path data-name="Unione 14" d="M170.75 11.759v-2.36l1.57 1.57a1.673 1.673 0 0 1 0 2.361Zm-3-2.99v-2.37l2 2v2.37Zm-3-3V3.398l2 2v2.371ZM161 2.019a1.672 1.672 0 0 1 2.36 0l.391.39v2.36Z" fill="#0ff"/></g><path data-name="Tracciato 67" d="M.25 27.11 11.4 38.25H.25Z" fill="#0ff"/></g><g data-name="Raggruppa 2429"><path data-name="Tracciato 62" d="M.25 73.11V50.25h158.86l15.14 15.14v22.86H15.4Z" fill="none" stroke="#0ff" stroke-miterlimit="10" stroke-width=".5"/><g data-name="Raggruppa 34"><path data-name="Unione 14" d="M170.75 61.759v-2.36l1.57 1.57a1.673 1.673 0 0 1 0 2.361Zm-3-2.99v-2.37l2 2v2.37Zm-3-3v-2.371l2 2v2.371Zm-3.75-3.75a1.672 1.672 0 0 1 2.36 0l.391.39v2.36Z" fill="#0ff"/></g><path data-name="Tracciato 67" d="M.25 77.11 11.4 88.25H.25Z" fill="#0ff"/></g></g><g data-name="Raggruppa 2727" transform="translate(-523.474 -458.52)" fill="#0ff"><path data-name="Ellisse 437" d="M1308.633 480.676h9.587l.161.007h.507l.161.008h.508l.159.008h1.105l.163.009h.502l.164.01h.503l.082.005.079.005h.42l.243.016h.423l.164.011.075.005h.339l.077.006.162.012h.423l.072.005h.008l.082.006.076.006h.341l.076.006.244.019h.015l.065.005h.179l.064.005h.016l.243.02h.007l.071.006h.018l.063.005h.019l.06.005h.02l.064.005h.016l.068.006h.012l.243.021h.009l.07.006h.015l.065.006h.017l.064.006h.018l.067.006h.012l.073.006h.007l.163.014.077.007h.008l.071.006h.014l.068.006h.013l.065.006h.017l.067.006h.012l.243.022h.008l.073.007h.011l.088.574h.015l.065.006h.017l.064.006h.017l.072.007h.005l.245.031h.011l.07.007h.014l.065.006h.018l.064.006h.016l.065.006h.015l.076.007.244.024h.012l.068.007h.015l.065.006h.017l.064.006h.016l.067.007h.013l.079.008.243.024h.016l.063.006h.019l.061.006h.019l.062.006h.018l.066.007h.012l.242.025h.008l.07.007h.017l.063.007h.017l.065.007h.014l.07.007h.009l.078.008.245.026.073.008h.014l.066.007h.015l.067.007h.013l.072.008h.007l.326.036.077.009h.009l.072.008h.008l.074.008h.006l.407.046h.006l.072.008h.014l.067.008h.013l.072.008h.005l.406.047h.008l.072.008h.012l.072.008h.007l.077.009.326.039.077.009h.007l.072.009h.01l.072.009h.007l.406.05.077.01h.006l.075.009h.007l.077.01.407.051h.005l.074.009h.009l.069.009h.013l.072.009h.007l.406.052.08.01.076.01h.007l.486.064.08.011.081.011.488.066.08.011.569.078.079.011.568.08.649.093q.569.083 1.137.169l.081.012.567.087a207.663 207.663 0 0 1 40.5 10.514l-.645 1.74a206.578 206.578 0 0 0-71.988-12.796v-1.855Zm89.764 20.189q1.582.753 3.15 1.532l.65.324.062.031.058.029.01.005.057.028h.008l.057.029h.01l.057.029h.006l.06.03.451.228.057.029.012.006.056.028h.009l.057.029h.008l.059.03.061.031h.005l.514.263.063.032.06.031h.008l.058.03h.007l.057.03h.009l.058.03.447.231h.007l.058.03h.007l.058.03h.008l.059.03h.006l.059.03h.007l.64.334.061.032.058.031h.009l.058.031.7.372h.005l.062.033a209.812 209.812 0 0 1 51.873 38.892l-1.329 1.295a207.838 207.838 0 0 0-59.447-42.53Zm72.366 56.829a209.763 209.763 0 0 1 15.264 21.3l.038.06.343.551.036.058v.005l.033.053.007.011.033.053v.008l.033.053.006.009.034.055.036.058.221.357.007.012.03.049.009.014.029.047.011.017.028.046.009.015.03.048.009.015.03.049.007.012.031.051.005.008.181.3v.007l.03.049.009.016.029.047.01.017.027.044.013.022.026.043.012.02.027.044.011.018.029.047.008.012.03.05.008.013.135.223.009.015.026.044.012.02.025.041.015.024.024.04.014.023.024.04.016.026.022.036.017.029.021.035.02.033.018.031.02.034.019.031.021.035.018.029.02.034.08.133.015.025.022.037.017.028.02.033.02.033.019.031.021.035.017.029.022.036.019.031.02.033.019.032.02.033.019.032.021.036.016.027.023.039.016.027.033.056v.008l.039.066.009.014.031.053.009.016.029.048.014.024.025.042.014.024.024.041.015.025.024.04.016.027.022.037.017.029.023.039.015.025.028.047.01.016.036.06v.005l.119.2v.006l.035.06.006.011.032.055.008.014.032.054.006.01.034.057.006.01.033.057.006.01.034.057.006.01.236.4.037.064.036.062v.008l.035.06v.007l.036.062v.006l.038.065.237.409.038.066.036.062v.007l.035.06v.008l.036.062q1 1.745 1.972 3.51l.036.065v.006l.033.06.007.012.031.056.007.013.028.051.01.018.028.051.009.016.03.055.007.012.033.061v.007l.074.135.011.02.025.047.015.027.021.039.017.031.019.034.019.035.017.032.018.033.019.035.017.031.019.035.017.031.018.033.02.036.014.027.022.04.011.021.122.227.007.012.028.051.007.013.027.05.009.016.027.05.008.014.027.05.009.016.027.05.007.012.029.055v.006a208.017 208.017 0 0 1 12.275 27.5l.024.066.023.065v.006l.023.065.023.064v.007l.169.471v.009l.02.055.006.018.019.052.007.018.018.051.008.022.018.049.007.02.018.051.007.021.018.051.006.018.019.053v.014l.065.183v.013l.017.049.008.023.017.048.008.024.016.045.01.027.016.044.01.029.014.041.012.033.014.039.012.034.013.037.013.037.013.037.013.036.012.035.014.041.011.032.025.071.006.017.019.055.009.026.017.048.009.025.017.049.008.023.018.052.008.022.017.05.009.026.017.048.009.025.017.05.008.022.019.055.006.018.019.056.006.018.077.223.023.068.005.015.021.061v.011l.022.063v.013l.021.062v.012l.021.061v.014l.022.065v.007l.007.02-1.756.6a206.913 206.913 0 0 0-35.421-63.906Zm41.048 82.338q.536 2.2 1.026 4.411l.1.468v.007l.019.089.081.373v.008l.018.084v.01l.019.09.06.28v.009l.018.082v.013l.017.08v.012l.059.278v.007l.018.084v.014l.017.081v.011l.019.088.039.186v.009l.017.082v.014l.016.077v.015l.017.083v.007l.039.187.018.087v.015l.016.076v.018l.016.075v.016l.056.274v.016l.015.073v.022l.015.072v.019l.016.081v.009l.037.183v.019l.014.07v.024l.013.066.005.026.014.07v.019l.036.181v.019l.014.07.005.027.013.064.005.028.012.061.006.031.013.066v.022l.017.088v.021l.013.067.006.033.011.056.007.035.011.056.006.032.012.063.005.026.017.088v.017l.014.071.007.034.011.056.007.034.01.054.007.036.011.057.006.031.015.08v.007l.017.088.006.03.011.057.007.038.01.051.007.038.01.05.007.039.01.053.007.035.016.084.006.034.01.055.007.038.009.049.008.041.009.048.007.04.01.053.007.035.015.08.007.04.01.052.008.042.009.048.007.04.009.049.007.04.009.048.008.041.009.046.014.076.009.049.008.042.008.045.008.045.008.043.008.046.007.041.009.047.008.042.013.074.009.052.009.048.007.04.009.048.007.041.009.048.007.04.008.046.008.044.008.045.013.072.01.055.007.04.009.049.007.04.009.049.007.038.009.05.007.038.009.051v.026l.02.112.005.029.009.051.007.038.009.051.006.035.009.054.005.03.01.058v.02l.035.2.006.032.009.053.006.035.009.051.006.037.009.052.005.03.034.2v.025l.01.058v.029l.009.056.005.032.009.056v.029l.01.057v.019l.022.13v.016l.01.06v.027l.01.057.005.031.01.057v.026l.01.061v.017l.022.135v.012l.009.056.005.031.009.054.005.033.009.056v.03l.009.056v.03l.033.2v.02l.01.058.005.031.009.055v.03l.009.057v.028l.035.215v.008l.01.062v.027l.009.059v.028l.009.058v.026l.01.063.035.221v.025l.009.059v.027l.009.059v.028l.009.059v.022l.032.207v.021l.009.061v.027l.009.058v.03l.009.059v.022l.032.211v.018l.009.06v.027l.009.06v.026l.009.062v.02l.045.3v.017l.009.063v.024l.009.063v.02l.01.066v.011l.034.23v.005l.01.07v.018l.01.066v.021l.01.065v.018l.033.229.01.068v.02l.009.065v.02l.009.066v.016l.043.3v.018l.009.065v.021l.009.064v.021l.009.066v.007l.032.226v.015l.009.067v.019l.009.066v.02l.009.067v.013l.032.23v.006l.009.068v.019l.009.065v.021l.009.066v.014l.041.305v.016l.009.066v.02l.009.066v.018l.009.069v.007l.031.236.009.07v.018l.009.067v.017l.009.071v.005l.041.312v.016l.009.069v.016l.009.069v.013l.039.3v.019l.008.066v.02l.009.067v.015l.039.314.009.073v.014l.009.069v.017l.009.071.039.315v.014l.008.07v.016l.009.07v.01l.038.313v.011l.008.07v.017l.008.069v.014l.037.312v.009l.008.069v.019l.008.067v.017l.008.071v.006l.027.234v.009l.008.066v.022l.008.066v.019l.008.07v.008l.035.31v.019l.007.066v.021l.007.065v.02l.033.3v.015l.007.066v.023l.007.063v.024l.007.064v.017l.024.218v.018l.007.063v.025l.007.062v.025l.007.064v.016l.024.225v.011l.007.064v.026l.006.06v.027l.006.061v.026l.006.062v.016l.022.215v.025l.006.059v.032l.006.057v.03l.006.059v.026l.021.206v.025l.006.059v.029l.006.06v.027l.006.06v.025l.022.222v.008l.006.064v.026l.006.061v.025l.006.063v.024l.006.065v.051l.021.224v.023l.006.064v.024l.006.061v.027l.006.063v.013l.02.22v.022l.006.062v.026l.006.062v.025l.006.064v.018l.02.222v.014l.006.064v.025l.005.06v.031l.005.06v.025l.006.064v.009l.013.151v.007l.006.065v.024l.005.062v.027l.005.061v.027l.005.061v.023l.018.21v.024l.005.059v.204l.017.205v.366l.011.138v.375l.01.135v.363l.015.2v.375l.009.129v.37l.009.133v.37l.014.2v.38l.008.116v.39l.008.124v.37l.012.2v.391l.006.1v.405l.005.1v17.808c0 .077 0 .151-.007.228v.528c0 .1-.007.211-.01.309v.438c0 .133-.01.263-.015.4v.357l-.02.492v.164l-.029.666q-.328 7.141-1.128 14.151l-1.843-.21a210.4 210.4 0 0 0 1.34-23.7 208.224 208.224 0 0 0-5.908-49.341Zm-.121 91.634 1.817.373a207.549 207.549 0 0 1-8.576 30.092l-.2.54v.006l-.022.06v.01l-.021.057v.013l-.021.057v.011l-.021.057-.006.016-.02.054-.005.014-.021.056v.01l-.07.188v.008l-.017.046-.01.025-.016.042-.011.031-.014.037-.013.036-.014.036-.014.036-.013.034-.014.038-.013.034-.015.04-.011.03-.017.044-.011.028-.02.051-.007.019-.027.072-.026.069-.006.015-.021.055-.01.025-.018.048-.009.023-.019.05-.008.022-.02.051-.008.021-.02.052-.008.02-.023.06v.01l-.17.444-.027.071q-1.823 4.729-3.865 9.343l-.03.068v.008l-.029.065v.007l-.029.065v.007l-.03.068-.16.359-.005.011-.026.058-.007.015-.025.055-.008.017-.024.055-.007.015-.025.055-.008.018-.025.056-.006.013-.028.062v.009l-.064.142-.005.012-.026.059-.008.017-.023.051-.01.023-.021.047-.011.025-.019.042-.014.03-.018.04-.013.03-.018.041-.012.027-.021.047-.01.022-.024.053-.008.017-.064.14-.007.016-.024.052-.012.027-.019.042-.014.031-.017.038-.014.031-.017.038-.015.033-.016.036-.015.033-.016.036-.016.035-.016.035-.015.033-.017.038-.015.032-.013.029-.043.094v.009l-.021.045-.011.024-.02.044-.011.024-.02.044-.011.024-.02.044-.011.023-.02.044-.012.025-.021.045-.009.019-.023.049-.007.015-.144.311-.025.055-.006.014-.025.054-.006.013-.025.053-.006.013-.026.055v.01l-.027.057v.007l-.241.514-.029.063a208.674 208.674 0 0 1-11.915 21.842l-1.638-.96a206.019 206.019 0 0 0 27.19-67.919Zm-37.622 83.057 1.48 1.119q-1.334 1.764-2.7 3.5l-.042.053-.005.007-.04.051-.006.007-.038.048-.01.012-.038.047-.005.007-.041.051-.266.335-.04.05-.007.008-.037.047-.01.012-.036.045-.011.013-.034.042-.014.018-.032.04-.015.019-.032.04-.015.019-.032.04-.014.018-.032.04-.015.019-.032.04-.01.013-.121.151-.006.007-.033.042-.014.017-.031.038-.016.02-.031.038-.016.02-.03.037-.018.022-.029.036-.018.022-.028.035-.02.025-.027.034-.02.024-.027.033-.021.026-.028.034-.017.022-.029.036-.021.026-.026.032-.046.057-.021.026-.025.031-.026.032-.022.028-.024.029-.023.029-.024.03-.024.029-.025.031-.021.026-.027.033-.022.027-.024.03-.023.029-.024.03-.023.029-.025.031-.02.025-.028.034-.019.024-.028.034-.022.027-.025.031-.047.057-.015.019-.032.039-.022.027-.026.032-.021.025-.028.034-.02.025-.027.033-.022.027-.025.03-.024.029-.024.03-.022.027-.027.033-.021.026-.027.032-.022.026-.026.032-.022.027-.029.036-.018.021-.035.042-.014.017-.048.058-.014.017-.034.041-.022.027-.027.032-.021.025-.028.033-.02.024-.03.036-.018.022-.031.037-.018.021-.032.039-.016.019-.032.039-.016.02-.033.04-.015.018-.033.04-.016.02-.037.044-.011.014-.04.049-.009.01-.1.118-.008.01-.04.048-.013.016-.035.042-.017.02-.032.038-.018.022-.03.036-.02.024-.029.035-.018.022-.032.038-.017.02-.035.041-.013.016-.035.042-.015.019-.036.042-.013.015-.042.05-.007.008-.1.117-.014.017-.035.042-.014.017-.035.041-.015.017-.035.042-.014.017-.033.039-.019.022-.03.036-.019.022-.031.036-.018.022-.032.037-.018.021-.031.036-.019.022-.037.043-.011.013-.149.176-.01.012-.039.046-.013.015-.036.042-.017.02-.032.038-.018.021-.03.035-.021.024-.03.035-.017.02-.033.039-.017.02-.033.038-.016.019-.033.039-.016.019-.037.044-.011.013-.04.047-.011.012-.1.116-.011.013-.04.047-.01.012-.038.045-.017.019-.033.039-.018.021-.031.036-.02.023-.031.036-.018.021-.03.035-.02.023-.03.035-.02.023-.03.035-.019.022-.035.041-.014.017-.038.044-.011.013-.1.115-.014.016-.036.042-.017.019-.032.037-.021.024-.029.033-.02.023-.029.033-.023.026-.027.031-.022.026-.027.031-.024.027-.028.032-.021.024-.028.033-.023.026-.027.031-.022.025-.031.035-.019.022-.1.112-.023.026-.028.032-.022.025-.028.032-.022.026-.028.033-.023.026-.025.029-.025.029-.025.029-.024.028-.025.029-.024.027-.028.032-.021.025-.026.029-.026.029-.023.027-.026.03-.027.031-.022.025-.036.041-.03.034-.033.037-.024.027-.027.031-.021.024-.028.032-.025.028-.024.028-.027.03-.022.024-.03.034-.02.022-.028.032-.023.026-.028.031-.021.024-.028.032-.021.023-.03.034-.019.021-.03.034-.019.021-.169.191-.008.009-.04.045-.009.01-.036.04-.015.017-.034.038-.015.017-.034.038-.017.019-.034.038-.014.016-.035.04-.014.015-.037.041-.01.011-.04.045-.007.008-.283.317-.045.05-.042.047-.008.009-.041.046-.008.009-.04.044-.011.012-.039.044-.009.01-.039.044-.01.012-.041.046-.333.368-.008.009-.043.048v.005l-.044.048-.006.007-.044.048v.005l-.044.048-.005.006-.581.637q-5.866 6.408-12.246 12.316-1.541 1.427-3.109 2.822l-.053.047-.052.046-.538.477-.049.043-.008.007-.044.039-.012.011-.044.039-.01.009-.043.038-.013.011-.044.039-.008.007-.046.04-.011.01-.316.277-.049.042-.007.006-.044.038-.014.012-.041.036-.014.012-.042.036-.014.013-.042.037-.013.011-.043.038-.013.011-.044.038-.008.007-.048.042-.267.232-.006.005-.045.039-.012.01-.043.037-.014.012-.04.035-.016.014-.04.035-.017.014-.038.033-.018.016-.04.034-.015.013-.04.034-.018.016-.039.034-.014.012-.042.036-.011.01-.154.132-.039.034-.019.016-.037.032-.019.016-.036.031-.022.019-.033.029-.024.02-.032.028-.026.022-.032.027-.022.019-.036.031-.02.017-.036.031-.02.017-.037.032-.021.018-.036.031-.018.015-.128.109-.023.019-.034.029-.023.02-.036.031-.02.017-.036.03-.023.02-.031.027-.026.022-.031.026-.027.023-.03.026-.027.023-.031.026-.029.024-.027.023-.032.027-.027.023-.03.026-.027.023-.024.02-.119.1-.028.023-.03.026-.027.023-.031.026-.026.022-.03.025-.03.025-.026.022-.031.026-.029.024-.029.024-.03.026-.026.022-.031.026-.028.023-.03.025-.027.023-.03.025-.03.025-.027.023-.033.028-.025.021-.057.048-.022.019-.035.029-.031.026-.026.022-.031.026-.027.023-.031.026-.027.022-.031.026-.027.023-.03.025-.028.024-.029.024-.03.025-.029.024-.029.024-.029.024-.029.024-.03.025-.033.027-.024.02-.035.029-.025.021-.057.048-.055.045-.018.015-.041.034-.021.017-.036.03-.026.022-.032.027-.027.022-.031.025-.029.024-.029.024-.031.026-.025.021-.033.028-.026.022-.031.025-.03.025-.027.022-.034.028-.025.02-.034.028-.024.02-.057.047-.014.011-.045.037-.019.015-.04.033-.023.019-.035.029-.026.021-.034.028-.022.018-.038.031-.022.018-.036.03-.023.019-.036.029-.023.019-.037.03-.021.017-.039.032-.02.016-.042.034-.016.013-.045.037-.015.012-.118.1-.014.012-.045.037-.018.015-.04.033-.021.017-.04.032-.019.015-.04.032-.02.016-.04.033-.019.015-.04.032-.02.016-.042.034-.018.014-.043.035-.016.013-.047.038-.013.01-.057.046-.121.1-.008.007-.051.041-.016.013-.043.034-.021.017-.038.031-.021.017-.039.032-.02.016-.04.032-.018.014-.042.034-.019.015-.043.034-.015.012-.046.037-.014.011-.055.044-.059.047-.122.1-.056.045-.009.007-.049.039-.018.014-.042.034-.019.015-.04.032-.019.016-.041.033-.019.015-.039.031-.021.017-.04.032-.019.015-.045.036-.013.011-.053.042-.007.006-.243.193-.008.006-.051.04-.016.012-.044.035-.017.013-.042.034-.02.016-.04.032-.019.015-.04.032-.021.016-.041.032-.018.014-.044.035-.017.013-.045.035-.015.012-.045.036-.016.012-.121.1-.058.046h-.006l-.053.041-.013.01-.048.038-.013.01-.046.036-.017.013-.044.035-.016.013-.043.034-.018.014-.045.035-.015.012-.049.039-.009.007-.057.045-.247.192-.056.044-.011.009-.049.038-.013.01-.048.037-.013.01-.048.037-.012.01-.049.038-.012.01-.05.039-.01.008-.052.04-.009.007-.367.283-.012.009-.049.038-.012.009-.048.037-.015.011-.047.036-.016.012-.044.034-.018.014-.046.035-.014.011-.05.038-.01.008-.056.043h-.005l-.06.046-.186.142h-.005l-.055.042-.014.011-.047.036-.013.01-.047.036-.016.012-.044.033-.018.013-.043.033-.018.014-.046.035-.014.011-.048.037-.014.01-.051.039-.009.007-.056.042h-.006l-.186.141h-.006l-.054.041-.014.011-.048.036-.014.011-.046.034-.018.013-.045.034-.017.012-.045.034-.016.012-.047.035-.014.011-.048.036-.013.01-.052.039-.009.007-.061.046-.188.141h-.005l-.055.041-.014.011-.047.035-.014.011-.047.035-.016.012-.046.034-.015.012-.046.034-.017.013-.046.035-.014.01-.112.095-.013.009-.059.044-.062.046-.249.185-.01.007-.053.039-.01.007-.051.038-.014.01-.049.036-.013.01-.046.034-.017.013-.047.035-.013.01-.05.037-.011.008-.056.041h-.005l-.252.185-.058.043-.014.01-.048.036-.013.01-.049.036-.014.01-.048.035-.013.01-.047.035-.016.012-.048.035-.012.009-.05.036-.014.01-.051.037-.01.008-.053.039-.01.007-.25.182-.01.007-.053.039-.01.008-.05.036-.016.011-.047.034-.015.011-.046.033-.017.012-.048.034-.014.01-.051.037-.011.008-.058.042-.253.183h-.005l-.056.04-.015.011-.047.034-.016.011-.046.033-.018.013-.046.033-.015.011-.047.034-.017.012-.047.033-.015.011-.047.034-.017.012-.051.037-.009.007-.055.039-.009.006-.251.179-.015.01-.048.034-.017.012-.044.031-.021.015-.042.03-.022.015-.039.028-.024.017-.04.029-.021.015-.044.031-.017.012-.05.035-.012.009-.056.04h-.007l-.191.135-.059.042-.013.009-.051.036-.011.008-.052.037-.012.008-.051.036-.013.009-.048.034-.017.012-.047.033-.015.011-.048.034-.015.01-.051.036-.012.008-.052.037-.012.008-.19.134h-.006l-.056.039-.016.011-.048.034-.016.011-.046.032-.02.014-.043.03-.02.014-.042.029-.021.015-.043.03-.019.014-.043.03-.021.014-.044.031-.018.013-.047.033-.015.011-.055.038-.008.006-.063.044-.013.009-.049.034-.021.015-.041.029-.023.016-.04.028-.021.015-.042.029-.022.015-.041.028-.021.015-.041.029-.022.016-.041.028-.021.015-.043.03-.02.013-.046.032-.016.011-.046.032-.018.012-.06.041-.065.044-.062.042-.017.011-.045.031-.024.017-.039.027-.024.016-.039.027-.024.016-.039.027-.025.017-.036.025-.029.02-.034.023-.028.019-.036.025-.025.017-.041.028-.022.015-.039.027-.024.017-.048.033-.014.009-.064.043-.06.041-.023.016-.039.026-.03.02-.034.023-.028.019-.034.023-.031.021-.031.021-.033.022-.029.019-.034.023-.029.02-.033.022-.03.02-.034.023-.027.018-.036.024-.024.017-.039.027-.018.012-.058.053-.019.013-.077.052-.026.018-.036.024-.026.018-.033.022-.032.021-.031.021-.031.021-.033.022-.031.021-.033.022-.029.02-.034.023-.03.02-.033.022-.029.019-.037.021-.027.018-.036.024-.025.017-.038.025-.022.015-.161.107-.045.03-.018.012-.041.027-.022.014-.039.026-.025.017-.036.024-.027.018-.034.023-.029.019-.036.024-.024.016-.039.026-.023.015-.04.026-.022.015-.04.027-.02.013-.044.029h-.005l-.163.108-.015.01-.05.033-.011.007-.045.03-.019.012-.041.027-.021.014-.04.026-.023.015-.041.027-.02.013-.043.028-.021.014-.04.027-.023.015-.038.025-.027.018-.036.024-.024.016-.04.026-.018.012-.221.145-.008.005-.049.032-.014.009-.042.028-.022.014-.042.027-.02.013-.043.028-.02.013-.044.028-.019.012-.043.028-.021.014-.043.028-.017.011-.046.03-.013.008-.348.226-.01.007-.052.034-.009.006-.051.033-.013.008-.049.032-.013.008-.049.032-.014.009-.049.032-.011.007-.052.033-.009.006-.054.035-.3.2-1-1.562a208.424 208.424 0 0 0 53.7-49.71Zm-69.6 58.936.859 1.645q-5.225 2.729-10.622 5.17l-.577.26-.577.258-.068.03-.068.03-.07.031-.505.223h-.008l-.064.028h-.008l-.063.028h-.009l-.068.03-.362.158h-.006l-.065.028h-.009l-.061.026-.013.006-.063.027h-.006l-.07.03-.291.126-.067.029-.012.005-.058.025-.016.007-.057.024-.013.005-.059.025-.014.006-.06.026h-.01l-.063.027h-.008l-.216.093h-.007l-.063.027-.014.006-.059.025-.012.005-.057.024-.016.007-.056.024-.016.007-.056.024-.015.007-.062.026h-.009l-.215.091-.015.006-.055.024-.02.008-.05.021-.024.01-.047.02-.023.01-.046.02-.026.011-.049.021-.019.008-.056.024-.015.006-.143.06h-.006l-.066.028h-.01l-.059.025-.019.008-.054.023-.018.008-.051.021-.022.009-.052.022-.018.007-.056.023-.015.006-.062.026h-.009l-.216.09h-.011l-.06.025-.016.007-.053.022-.023.01-.049.02-.019.008-.054.022-.018.008-.055.023-.016.007-.059.024-.013.005-.216.089-.014.006-.055.023-.021.009-.052.021-.02.008-.049.02-.024.01-.048.02-.023.009-.049.02-.021.009-.057.024-.013.005-.145.059-.068.028-.02.008-.051.021-.022.009-.048.02-.025.01-.046.019-.025.01-.046.019-.027.011-.044.018-.027.011-.046.019-.025.01-.068.027-.072.029h-.012l-.06.024-.017.007-.053.022-.022.009-.05.02-.024.01-.046.018-.026.011-.047.019-.024.01-.049.02-.022.009-.051.021-.021.008-.053.021-.018.007-.071.028-.015.006-.057.023-.023.009-.047.019-.028.011-.042.017-.031.012-.04.016-.029.012-.043.017-.03.012-.041.016-.029.012-.041.016-.031.012-.047.019-.023.009-.069.027-.027.011-.044.018-.028.011-.042.017-.03.012-.042.017-.03.012-.039.016-.034.013-.036.014-.035.014-.034.014-.036.014-.037.014-.034.013-.041.016-.029.012-.069.027-.026.01-.045.018-.031.012-.039.015-.034.013-.037.014-.035.014-.035.014-.034.014-.037.014-.034.013-.039.015-.03.012-.046.018-.025.01-.06.023h-.01l-.071.028-.023.009-.049.019-.028.011-.042.016-.031.012-.04.015-.034.013-.036.014-.036.014-.036.014-.034.013-.037.014-.034.013-.037.014-.034.013-.033.013-.038.015-.016.006-.091.035-.03.012-.041.016-.03.011-.041.016-.028.011-.042.016-.03.012-.037.014-.035.013-.037.014-.033.013-.038.014-.03.012-.042.016-.023.009-.047.018-.122.047h-.012l-.051.019-.019.007-.045.017-.027.01-.042.016-.028.01-.043.016-.027.01-.044.017-.026.01-.044.017-.028.011-.043.016-.023.009-.167.063-.017.006-.048.018-.022.008-.047.018-.023.008-.048.018-.023.009-.046.017-.025.01-.046.017-.023.009-.047.018-.021.008-.05.019h-.012l-.252.094h-.009l-.052.019-.02.007-.049.018-.02.008-.049.018-.022.008-.048.018-.021.008-.05.018-.018.007-.054.02-.264.1h-.005l-.06.022h-.01l-.058.021h-.012l-.055.02-.016.006-.055.02h-.011l-.06.022-.4.145h-.009l-.058.021h-.011l-.057.021h-.012l-.058.021h-.008l-.063.023-.541.2q-3.932 1.413-7.934 2.672a207.677 207.677 0 0 1-24.46 6.088l-.577.106-.069.013-.066.012h-.008l-.066.012h-.006l-.067.012-.425.077h-.008l-.063.011h-.012l-.059.011h-.017l-.057.01h-.019l-.054.01h-.021l-.057.01h-.008l-.272.048h-.013l-.055.01H1345l-.05.009h-.027l-.045.008-.034.006-.043.007-.031.005-.046.008h-.028l-.048.008h-.028l-.048.008h-.025l-.107.018h-.016l-.044.008-.034.006-.036.006-.043.007-.033.006-.044.008-.033.006-.043.007-.036.006-.042.007-.033.006-.045.008-.033.006-.047.008-.03.005-.055.009-.038.006-.061.01h-.025l-.051.009-.031.005-.048.008h-.03l-.047.008-.031.005-.049.008h-.028l-.049.008h-.029l-.051.009h-.026l-.056.009h-.021l-.156.026h-.018l-.06.01h-.021l-.057.009h-.024l-.055.009h-.022l-.056.009h-.024l-.058.009h-.018l-.062.01h-.017l-.074.012-.24.039h-.063l-.072.012h-.008l-.07.011h-.012l-.069.011h-.011l-.068.011h-.013l-.074.012-.484.076-.076.012h-.006c-2.08.325-4.164.618-6.264.88l-.23-1.841a205.861 205.861 0 0 0 69.831-21.82Zm-160.617 13.11a207.087 207.087 0 0 0 64.786 10.325c2.552 0 5.135-.047 7.678-.14l.067 1.854c-.755.028-1.506.051-2.262.07h-18.087l-.153-.009h-1.431l-.075-.005h-.254l-.076-.005h-.253l-.078-.005h-.254l-.075-.005h-.18l-.074-.005h-.257l-.073-.005h-.259l-.072-.005h-.258l-.075-.006h-.179l-.066-.005h-.016l-.07-.006h-.177l-.076-.006h-.014l-.062-.005h-.179l-.074-.006h-.257l-.073-.006h-.182l-.069-.006-.075-.006h-.179l-.074-.006h-.017l-.062-.005h-.181l-.074-.007h-.178l-.057-.005h-.019l-.075-.007h-.017l-.059-.005h-.102l-.062-.006h-.014l-.074-.007h-.179l-.075-.007-.074-.007h-.178l-.073-.007h-.021l-.054-.005h-.181l-.073-.007h-.022l-.053-.005h-.106l-.055-.005h-.019l-.072-.007h-.183l-.059-.006h-.018l-.07-.007h-.18l-.073-.007h-.012l-.062-.006h-.184l-.069-.007h-.259l-.07-.007h-.264l-.064-.007h-.026l-.05-.005h-.027l-.05-.005h-.026l-.066-.007h-.02l-.062-.007h-.027l-.048-.005h-.029l-.049-.005h-.026l-.072-.008h-.021l-.053-.006h-.106l-.053-.006h-.021l-.073-.008h-.022l-.055-.006h-.024l-.055-.006h-.022l-.067-.007h-.008l-.074-.008h-.025l-.05-.006h-.028l-.05-.006h-.026l-.069-.008h-.005l-.073-.008h-.026l-.052-.006h-.025l-.054-.006h-.021l-.074-.008h-.016l-.058-.007h-.031l-.044-.005h-.031l-.052-.006h-.022l-.075-.009h-.012l-.061-.007h-.027l-.051-.006h-.025l-.058-.007h-.017l-.074-.009h-.022l-.052-.006h-.029l-.05-.006h-.024l-.063-.007h-.014l-.074-.009h-.022l-.053-.006h-.026l-.054-.006h-.021l-.075-.009-.072-.009h-.022l-.054-.006h-.026l-.054-.007h-.02l-.075-.009h-.013l-.063-.008h-.023l-.052-.006h-.026l-.055-.007h-.02l-.073-.009h-.021l-.053-.007h-.029l-.047-.006h-.029l-.06-.008h-.012l-.073-.009h-.025l-.051-.006h-.028l-.049-.006h-.026l-.068-.009h-.01l-.069-.009h-.03l-.043-.005h-.033l-.042-.005h-.033l-.069-.009h-.023l-.052-.007h-.028l-.049-.006h-.027l-.052-.007h-.024l-.073-.009h-.017l-.058-.007h-.025l-.051-.007h-.025l-.057-.007h-.019l-.074-.01h-.018l-.057-.007h-.025l-.052-.007h-.024l-.063-.008h-.011l-.073-.01h-.026l-.048-.006h-.03l-.048-.006h-.026l-.061-.008h-.034l-.051-.007h-.031l-.043-.006h-.032l-.046-.006h-.028l-.07-.009h-.025l-.05-.007h-.028l-.047-.006h-.03l-.049-.007h-.024l-.07-.01h-.028l-.048-.007h-.03l-.044-.006h-.031l-.054-.007h-.02l-.072-.01h-.027l-.047-.006h-.031l-.047-.007h-.028l-.071-.01h-.007l-.067-.009h-.03l-.046-.006h-.029l-.051-.007h-.022l-.074-.01h-.013l-.061-.009h-.028l-.047-.007h-.028l-.051-.007h-.024l-.072-.01h-.022l-.051-.007h-.03l-.047-.007h-.028l-.051-.007h-.023l-.071-.01h-.026l-.049-.007h-.03l-.048-.007h-.026l-.063-.009h-.013l-.071-.01h-.026l-.046-.007h-.031l-.047-.007h-.026l-.072-.011h-.012l-.062-.009h-.027l-.046-.007h-.031l-.056-1.186h-.024l-.071-.011h-.023l-.052-.008h-.028l-.045-.007h-.03l-.051-.008h-.023l-.071-.011h-.024l-.05-.008h-.027l-.047-.007h-.03l-.052-.008h-.021l-.069-.011h-.031l-.043-.007-.033-.005-.04-.006-.034-.005-.05-.008-.042-.006-.05-.008h-.031l-.042-.006-.033-.005-.041-.006-.034-.005-.068-.011h-.025l-.047-.007-.033-.005-.043-.007h-.031l-.048-.007h-.025l-.071-.011h-.022l-.052-.008h-.029l-.046-.007h-.028l-.053-.008h-.022l-.07-.011h-.027l-.046-.007h-.03l-.049-.008h-.025l-.061-.01h-.02l-.065-.01h-.026l-.049-.008h-.027l-.053-.008h-.02l-.073-.012h-.014l-.061-.01h-.023l-.051-.008h-.027l-.053-.009h-.021l-.072-.012h-.021l-.053-.009h-.027l-.048-.008h-.029l-.057-.009h-.014l-.072-.012h-.028l-.047-.008h-.03l-.044-.007-.03-.005-.053-.009h-.027l-.062-.01-.031-.005-.044-.007h-.029l-.048-.008h-.028l-.066-.011h-.021l-.055-.009h-.03l-.046-.008h-.029l-.046-.008h-.029l-.07-.012h-.023l-.051-.009h-.029l-.046-.008h-.028l-.05-.008h-.024l-.072-.012h-.02l-.052-.009-.03-.005-.048-.008h-.024l-.065-.011h-.009l-.073-.012h-.026l-.046-.008-.033-.006-.041-.007-.031-.005-.057-.01-.029-.005-.057-.01-.031-.005-.043-.007-.03-.005-.048-.008h-.025l-.07-.012h-.022l-.05-.009-.031-.005-.041-.007-.034-.006-.042-.007-.029-.005-.069-.012h-.026l-.048-.009-.03-.005-.04-.007-.035-.006-.045-.008h-.026l-.069-.012-.033-.006-.038-.007-.037-.007-.036-.006-.046-.231-.045-.008-.037-.007-.056-.01-.034-.006-.041-.007-.031-.006-.043-.008-.03-.005-.07-.013h-.015l-.058-.01-.029-.005-.044-.008-.03-.005-.047-.009h-.027l-.069-.013h-.027l-.045-.008-.033-.006-.041-.008-.033-.006-.041-.008-.031-.006-.068-.013-.027-.005-.048-.02-.033-.006-.038-.007-.035-.006-.038-.007-.057-.011-.043-.008-.036-.007-.036-.007-.037-.007-.038-.007-.034-.006-.047-.009-.045-.008-.047-.009-.034-.006-.04-.008-.034-.006-.04-.007-.033-.006-.045-.008-.057-.011-.037-.007-.035-.007-.038-.007-.034-.007-.04-.008-.033-.006-.066-.013-.035-.007-.037-.007-.035-.007-.039-.007-.034-.007-.039-.008-.05-.009-.049-.009-.035-.007-.04-.008-.034-.007-.037-.007-.036-.007-.042-.008-.05-.01-.046-.009-.035-.007-.037-.007-.035-.007-.038-.007-.035-.007-.053-.01-.043-.008-.041-.008-.037-.007-.037-.007-.035-.007-.039-.008-.033-.006-.066-.013-.034-.007-.037-.007-.037-.007-.037-.007-.034-.007-.042-.008-.031-.006-.065-.013-.038-.008-.033-.006-.039-.008-.035-.007-.036-.007-.039-.008-.052-.01-.046-.009-.034-.007-.038-.008-.036-.007-.036-.007-.036-.007-.04-.008-.059-.012-.039-.008-.037-.007-.033-.007-.039-.008-.036-.007-.035-.007-.067-.014-.028-.006-.043-.009-.036-.007-.035-.007-.037-.008-.037-.008-.034-.007-.065-.013-.039-.008-.032-.007-.04-.008-.031-.006-.041-.008-.032-.007-.068-.007-.031-.006-.041-.008-.03-.006-.04-.008-.032-.007-.04-.008-.031-.007-.071-.015-.032-.007-.038-.008-.035-.007-.038-.008-.032-.007-.04-.008-.028-.006-.074-.015-.032-.007-.039-.008-.032-.007-.038-.008-.034-.007-.038-.008-.065-.014-.036-.007-.034-.007-.04-.008-.032-.007-.04-.008-.03-.006-.067-.014-.038-.008-.035-.008-.037-.008-.036-.008-.038-.008-.034-.007-.04-.009-.056-.012-.042-.009-.034-.007-.038-.008-.035-.008-.037-.008-.036-.008-.035-.007-.069-.015-.031-.007-.038-.008-.036-.008-.037-.008-.035-.008-.036-.008-.042-.009-.059-.013-.035-.008-.036-.008-.035-.008-.036-.008-.038-.008-.034-.007-.064-.014-.037-.008-.035-.008-.036-.008-.037-.008-.036-.008-.037-.008-.059-.013-.039-.008-.04-.009-.032-.007-.039-.009-.032-.007-.039-.009-.032-.007-.075-.017-.025-.006-.043-.01-.027-.006-.042-.009-.029-.007-.042-.009-.027-.006-.074-.016-.032-.007-.037-.008-.037-.008-.035-.008-.034-.008-.037-.008-.051-.011-.052-.012-.031-.007-.042-.009-.029-.006-.041-.009-.03-.007-.066-.015-.038-.009-.039-.009-.03-.007-.043-.01-.027-.006-.043-.01-.024-.005-.086-.02h-.021l-.044-.01-.025-.006-.045-.01-.027-.006-.042-.009-.031-.007-.074-.017-.028-.006-.042-.01-.026-.006-.044-.01-.025-.006-.153-.035-.023-.005-.045-.01-.023-.005-.048-.011h-.016l-.158-.036-.026-.006-.043-.01-.026-.006-.044-.01-.026-.006-.075-.017-.032-.007-.039-.009-.03-.007-.042-.01-.026-.006-.045-.01-.022-.005-.079-.019-.029-.007-.042-.01-.029-.007-.041-.01-.029-.007-.041-.01-.025-.006-.08-.019-.027-.006-.041-.01-.03-.007-.04-.01-.028-.007-.147-.035-.027-.006-.04-.009-.033-.008-.038-.009-.03-.007-.081-.019-.022-.005-.039-.009-.032-.008-.041-.01-.027-.007-.043-.01-.022-.005-.083-.02-.027-.007-.04-.01-.028-.007-.042-.01-.028-.007-.043-.01h-.017l-.09-.022-.024-.006-.042-.01-.029-.007-.042-.01-.029-.007-.04-.01h-.02l-.091-.022h-.019l-.047-.011-.022-.005-.046-.011-.023-.006-.153-.038-.022-.005-.044-.011-.026-.006-.045-.011h-.017l-.158-.039-.022-.006-.046-.011-.021-.005-.048-.012h-.014l-.093-.023-.022-.005-.045-.011-.024-.006-.044-.011-.023-.006-.166-.041h-.007l-.051-.013h-.019l-.049-.012h-.015l-.166-.042h-.012l-.051-.013h-.017l-.05-.013h-.013l-.165-.042h-.016l-.049-.012-.021-.005-.048-.012h-.008l-.113-.029-.051-.013h-.016l-.053-.014h-.008l-.179-.046-.056-.014h-.009l-.057-.015-.178-.046h-.006l-.055-.014h-.011l-.233-.061h-.012l-.053-.014h-.011l-.234-.061h-.012l-.051-.013h-.015l-.229-.06h-.015l-.052-.014h-.009l-.169-.045h-.013l-.051-.013h-.016l-.052-.014h-.009l-.175-.046-.056-.015h-.009l-.237-.063h-.008l-.056-.015h-.007l-.237-.064h-.008l-.055-.015h-.009l-.235-.064h-.01l-.057-.015-.181-.049-.057-.016h-.007l-.3-.083h-.005l-.242-.067-.367-.1-.239-.067h-.007l-.242-.068q-4.419-1.24-8.758-2.666Zm-78.212-46.893a207.561 207.561 0 0 0 61.02 40.38l-.734 1.7q-7.255-3.127-14.22-6.778l-.637-.335h-.008l-.055-.029-.011-.006-.053-.028-.012-.007-.053-.028-.012-.006-.052-.027-.015-.008-.052-.028-.01-.005-.056-.029h-.008l-.25-.133-.059-.031h-.006l-.053-.028-.014-.008-.048-.026-.018-.01-.045-.024-.023-.012-.044-.024-.019-.01-.048-.025-.019-.01-.046-.025-.021-.011-.044-.024-.024-.013-.042-.023-.019-.01-.153-.082-.024-.013-.04-.021-.026-.014-.039-.021-.027-.015-.039-.021-.028-.015-.037-.02-.031-.016-.036-.02-.031-.017-.035-.019-.033-.018-.033-.018-.036-.019-.029-.016-.038-.021-.03-.016-.034-.018-.034-.018-.028-.015-.063-.034-.04-.022-.027-.015-.039-.021-.03-.017-.037-.02-.03-.016-.037-.02-.03-.016-.038-.021-.028-.016-.037-.02-.03-.016-.038-.021-.028-.016-.039-.021-.028-.015-.042-.023-.024-.013-.045-.024-.022-.012-.055-.03-.011-.006-.137-.075h-.005l-.06-.033-.02-.011-.047-.026-.022-.012-.045-.025-.025-.014-.041-.023-.026-.014-.042-.023-.024-.013-.047-.026-.018-.01-.05-.028-.018-.01-.054-.03-.011-.006-.062-.034h-.005l-.206-.114-.067-.037-.064-.036h-.006l-.06-.033-.012-.007-.056-.031-.011-.006-.057-.032-.011-.006-.058-.032-.01-.006-.057-.032-.011-.006-.065-.036-.343-.193-.064-.036h-.005l-.062-.035h-.008l-.063-.035-.066-.037-.685-.388-.82-.469-.067-.038q-3.523-2.028-6.958-4.187l-.564-.386-.062-.039-.06-.038-.009-.005-.057-.036-.009-.005-.055-.035-.012-.008-.059-.038-.065-.041-.264-.168-.008-.005-.058-.037-.01-.006-.053-.034-.017-.011-.048-.031-.018-.011-.044-.028-.022-.014-.043-.028-.021-.013-.042-.027-.023-.014-.044-.028-.021-.013-.046-.029-.018-.012-.06-.039-.066-.042-.063-.04-.016-.01-.047-.03-.038-.028-.039-.025-.026-.017-.038-.024-.028-.018-.037-.024-.027-.017-.037-.024-.027-.018-.039-.025-.024-.015-.039-.025-.027-.017-.034-.022-.03-.019-.034-.022-.031-.02-.033-.022-.129-.084-.021-.019-.035-.023-.027-.018-.036-.023-.027-.018-.037-.024-.024-.016-.04-.026-.022-.015-.041-.027-.021-.013-.042-.027-.021-.014-.043-.028-.014-.009-.049-.032-.009-.006-.35-.23h-.007l-.055-.036h-.006l-.056-.037h-.005l-.057-.037-.056-.037h-.005l-.48-.317q-5.732-3.8-11.193-7.96l-.112-.086h-.005l-.568-.435-.055-.042-.071-.064h-.005l-.053-.041-.4-.306-.055-.043-.051-.04-.008-.007-.05-.039-.007-.005-.049-.038-.011-.008-.049-.038-.007-.006-.05-.039-.007-.006-.052-.04-.276-.215-.011-.009-.048-.038-.009-.007-.047-.037-.012-.009-.046-.036-.012-.009-.044-.035-.016-.012-.044-.034-.012-.01-.046-.036-.011-.008-.048-.037-.007-.005-.051-.04-.226-.177-.051-.04-.008-.006-.052-.044-.016-.012-.041-.032-.018-.014-.038-.03-.022-.018-.038-.03-.019-.015-.039-.031-.02-.016-.04-.031-.018-.014-.04-.031-.02-.016-.04-.031-.008-.006-.139-.11-.027-.021-.03-.024-.028-.022-.033-.026-.026-.02-.034-.027-.024-.019-.034-.027-.026-.02-.032-.026-.027-.022-.031-.025-.029-.023-.03-.024-.03-.024-.028-.022-.034-.027-.025-.02-.038-.03-.021-.017-.058-.047-.017-.014-.041-.033-.027-.022-.032-.026-.026-.021-.034-.027-.026-.02-.034-.027-.025-.02-.033-.027-.028-.023-.03-.024-.028-.023-.03-.024-.03-.024-.028-.022-.031-.025-.027-.022-.033-.026-.028-.022-.029-.024-.04-.032-.013-.022-.059-.047-.015-.012-.042-.034-.026-.021-.033-.027-.026-.021-.032-.026-.026-.021-.033-.027-.027-.022-.03-.024-.029-.024-.031-.025-.026-.021-.035-.029-.023-.019-.037-.03-.022-.018-.035-.029-.024-.02-.041-.034-.017-.014-.059-.048-.055-.045-.022-.018-.036-.029-.025-.021-.034-.028-.029-.015-.039-.032-.02-.016-.038-.031-.022-.018-.036-.029-.024-.02-.035-.029-.022-.018-.037-.031-.022-.018-.037-.03-.022-.018-.038-.031-.021-.018-.117-.1-.014-.012-.044-.036-.02-.017-.038-.031-.023-.019-.037-.031-.022-.018-.036-.03-.023-.019-.036-.03-.023-.019-.035-.029-.024-.02-.036-.029-.023-.019-.036-.024-.02-.017-.044-.036-.014-.012-.053-.044h-.005l-.119-.1-.008-.007-.051-.042-.012-.01-.046-.038-.017-.014-.041-.034-.018-.015-.041-.034-.02-.016-.04-.033-.018-.015-.041-.034-.019-.015-.043-.036-.015-.012-.049-.041-.009-.007-.238-.2-.007-.006-.052-.043-.011-.009-.046-.038-.017-.015-.042-.035-.016-.013-.043-.036-.016-.013-.044-.037-.015-.012-.042-.036-.017-.014-.045-.038-.013-.011-.054-.045-.179-.151-.054-.046-.014-.019-.049-.041-.014-.012-.042-.036-.019-.016-.04-.034-.017-.014-.042-.036-.016-.014-.044-.038-.013-.011-.044-.038-.015-.013-.05-.043-.006-.005-.058-.049-.119-.1-.055-.047-.054-.046-.01-.009-.048-.041-.011-.009-.048-.041-.012-.01-.048-.041-.011-.009-.046-.039-.014-.012-.046-.039-.012-.01-.046-.039-.013-.011-.055-.047-.178-.153-.056-.048-.009-.008-.048-.041-.015-.013-.043-.037-.016-.014-.042-.036-.017-.015-.042-.036-.014-.012-.044-.038-.015-.013-.047-.041-.01-.008-.049-.043-.009-.008-.231-.2-.018-.016-.041-.035-.016-.014-.041-.036-.017-.015-.042-.036-.015-.013-.04-.035-.02-.017-.039-.034-.018-.015-.042-.036-.015-.013-.045-.04-.012-.01-.05-.043-.008-.007-.232-.2-.013-.011-.044-.039-.015-.013-.043-.037-.017-.015-.039-.035-.019-.016-.037-.032-.023-.02-.036-.032-.019-.017-.042-.036-.015-.014-.047-.041-.009-.008-.048-.042-.011-.009-.115-.1-.009-.008-.048-.043-.012-.011-.043-.038-.019-.017-.039-.035-.017-.015-.039-.034-.02-.018-.036-.032-.022-.019-.034-.03-.023-.021-.033-.03-.024-.021-.033-.029-.024-.022-.032-.029-.024-.022-.036-.032-.021-.018-.055-.049-.025-.022-.031-.028-.029-.026-.027-.024-.027-.024-.03-.027-.027-.024-.029-.026-.027-.024-.029-.026-.028-.025-.029-.026-.027-.024-.029-.026-.03-.027-.022-.02-.033-.03-.023-.02-.034-.03-.021-.019-.034-.03-.015-.013-.088-.079-.006-.006-.043-.038-.012-.011-.036-.033-.021-.019-.036-.032-.018-.016-.038-.034-.018-.016-.037-.033-.018-.016-.036-.032-.021-.019-.035-.032-.017-.016-.038-.034-.016-.014-.04-.036-.012-.011-.043-.039-.006-.006-.2-.182-.008-.008-.046-.041-.008-.008-.045-.041-.01-.009-.045-.041-.009-.008-.044-.04-.012-.011-.044-.04-.008-.007-.047-.043-.422-.384-.052-.047-.051-.047q-1.6-1.46-3.161-2.952Zm-50.611-75.864a207.226 207.226 0 0 0 37.877 62.6l-1.393 1.225q-2.211-2.515-4.341-5.1l-.042-.051-.006-.007-.04-.048-.007-.009-.038-.046-.011-.013-.036-.044-.009-.011-.038-.046-.008-.01-.04-.048-.18-.22-.034-.042-.014-.017-.031-.038-.017-.021-.028-.035-.02-.024-.028-.034-.02-.025-.027-.032-.021-.026-.027-.033-.021-.026-.025-.03-.025-.031-.022-.027-.03-.036-.017-.021-.033-.041-.016-.019-.047-.058-.008-.009-.04-.049-.016-.02-.032-.04-.016-.02-.031-.038-.019-.024-.029-.036-.018-.022-.031-.039-.015-.019-.034-.042-.014-.017-.034-.043-.013-.016-.038-.047-.009-.011-.046-.057-.245-.3-.045-.056-.007-.008-.043-.053v-.006l-.044-.054-.006-.007-.044-.055-.046-.058-.391-.49q-6.329-7.955-11.882-16.52l-.041-.063-.339-.525v-.007l-.038-.059v-.006l-.066-.076-.006-.01-.036-.056-.006-.01-.036-.055-.006-.01-.04-.063-.212-.331-.039-.061-.005-.008-.036-.056-.008-.012-.034-.053-.008-.012-.034-.053-.008-.013-.034-.054-.006-.01-.034-.054-.008-.013-.04-.066-.126-.2v-.006l-.037-.058-.009-.014-.032-.05-.011-.017-.03-.048-.011-.018-.028-.045-.013-.021-.029-.047-.01-.017-.03-.048-.011-.017-.033-.052-.008-.013-.031-.05-.01-.016-.041-.063v-.006l-.082-.131-.008-.013-.04-.05-.015-.024-.025-.04-.015-.024-.026-.041-.016-.026-.023-.037-.017-.028-.023-.036-.019-.03-.023-.037-.015-.025-.026-.042-.015-.024-.027-.043-.013-.02-.03-.047-.011-.018-.081-.13-.008-.013-.032-.051-.015-.024-.024-.039-.019-.03-.022-.036-.018-.029-.021-.034-.02-.032-.02-.033-.02-.032-.019-.03-.021-.034-.02-.033-.02-.032-.018-.03-.022-.036-.011-.025-.023-.037-.013-.021-.087-.142-.017-.027-.021-.034-.019-.03-.02-.032-.019-.032-.022-.036-.017-.027-.023-.037-.017-.027-.024-.039-.014-.023-.025-.04-.014-.023-.025-.048-.012-.02-.026-.043-.013-.021-.027-.044-.006-.01-.106-.174-.031-.05-.008-.014-.027-.045-.012-.02-.027-.045-.01-.017-.028-.046-.011-.019-.026-.043-.013-.021-.026-.042-.014-.023-.025-.042-.011-.019-.028-.047-.008-.013-.031-.051-.145-.24v-.005l-.029-.049-.01-.016-.028-.046-.011-.018-.028-.046-.01-.016-.03-.049-.008-.014-.029-.048-.01-.017-.029-.049-.006-.011-.032-.054-.219-.366-.034-.057v-.006l-.032-.054-.006-.01-.053-.06-.006-.01-.031-.053-.007-.012-.032-.053v-.007l-.034-.056-.256-.433-.035-.059v-.005l-.034-.057v-.006l-.033-.056v-.008l-.033-.057-.035-.059-.291-.5-.033-.057v-.007l-.032-.055-.005-.009-.033-.057a418.66 418.66 0 0 1-.4-.687q-1.813-3.135-3.52-6.339-.375-.7-.745-1.411l-.032-.061-.032-.061-.263-.506-.005-.01-.029-.056v-.009l-.029-.057v-.009l-.03-.057v-.006l-.03-.059v-.006l-.263-.511-.032-.062-.031-.061-.031-.06v-.006l-.029-.057-.006-.011-.029-.057-.227-.445v-.009l-.028-.055-.006-.011-.027-.053-.071-.052-.027-.053-.006-.013-.027-.054-.007-.013-.027-.053-.005-.01-.029-.056v-.006l-.19-.377-.005-.01-.028-.055-.006-.011-.026-.052-.008-.016-.026-.051-.008-.015-.025-.05-.009-.017-.026-.052v-.009l-.028-.057v-.009l-.159-.318-.026-.052-.009-.017-.025-.05-.007-.015-.025-.049-.01-.02-.023-.046-.011-.021-.022-.045-.012-.024-.022-.045-.009-.019-.024-.048-.009-.018-.025-.05v-.009l-.028-.057-.093-.188v-.009l-.023-.047-.011-.022-.021-.044-.012-.024-.021-.043-.012-.025-.021-.043-.012-.025-.019-.039-.015-.031-.019-.038-.014-.029-.019-.04-.012-.025-.022-.045-.009-.018-.024-.048-.009-.018-.081-.166-.008-.016-.02-.041-.014-.029-.018-.037-.014-.03-.019-.039-.015-.03-.019-.039-.014-.028-.019-.04-.014-.03-.019-.038-.014-.029-.019-.039-.014-.03-.019-.039-.015-.031-.018-.036-.018-.037-.015-.032-.014-.029-.039-.08-.012-.024-.02-.042-.013-.026-.02-.041-.013-.028-.018-.038-.015-.032-.017-.036-.017-.034-.016-.032-.018-.037-.016-.033-.017-.035-.016-.033-.017-.035-.016-.034-.018-.037-.015-.031-.019-.04-.014-.029-.032-.067-.006-.013-.027-.056-.01-.022-.023-.049-.01-.021-.022-.046-.013-.026-.021-.044-.012-.026-.02-.042-.013-.028-.02-.042-.013-.027-.019-.041-.014-.029-.021-.044-.011-.024-.024-.051-.008-.017-.029-.061v-.008l-.067-.142v-.006l-.03-.064-.007-.015-.025-.054-.01-.021-.023-.048-.011-.024-.022-.048-.01-.02-.024-.05-.01-.021-.023-.049-.01-.02-.023-.05-.01-.021-.025-.054-.006-.014-.03-.064v-.005l-.067-.143-.033-.07-.03-.064-.007-.015-.026-.056-.007-.015-.025-.055-.008-.017-.025-.055-.007-.016-.025-.055-.007-.016-.028-.059v-.01l-.031-.068-.166-.359-.031-.067v-.007l-.03-.064v-.008l-.08-.077v-.011l-.028-.062v-.008l-.03-.065v-.005l-.23-.5-.032-.07-.031-.068-.03-.067v-.006q-2.584-5.671-4.819-11.503Zm-14.913-90.399 1.85.142a210.895 210.895 0 0 0-.613 16.058 207.664 207.664 0 0 0 7.868 56.763l-1.785.507-.009-.031-.011-.037-.008-.03-.017-.06-.008-.029-.011-.038-.009-.032-.011-.039-.014-.049-.011-.037-.008-.029-.014-.049-.01-.035-.013-.045-.009-.031-.01-.037-.012-.044-.013-.055-.009-.031-.011-.04-.008-.028-.017-.06-.008-.028-.01-.037-.009-.032-.016-.057-.009-.031-.01-.036-.009-.034-.012-.043-.012-.043-.009-.032-.01-.037-.009-.032-.016-.058-.009-.031-.01-.036-.01-.036-.011-.041-.013-.046-.01-.035-.009-.033-.009-.034-.016-.059-.008-.03-.01-.035-.009-.034-.013-.049-.011-.042-.009-.032-.01-.035-.01-.036-.015-.056-.008-.031-.01-.035-.01-.036-.015-.054-.009-.033-.01-.036-.009-.031-.016-.059-.008-.026-.01-.038-.007-.028-.016-.058-.01-.036-.01-.036-.008-.029-.01-.037-.008-.038-.017-.061-.008-.029-.01-.037-.009-.033-.016-.058-.008-.03-.01-.037-.009-.033-.016-.06-.007-.028-.011-.04-.007-.027-.015-.058-.009-.034-.01-.037-.008-.03-.013-.049-.007-.041-.01-.036-.008-.029-.01-.037-.008-.032-.016-.061-.008-.029-.01-.038-.006-.023-.024-.073v-.02l-.011-.04-.007-.025-.019-.074-.005-.02-.011-.042-.005-.021-.021-.079v-.017l-.011-.041-.006-.024-.024-.09-.012-.044v-.017l-.037-.142v-.019l-.012-.045v-.008l-.024-.091v-.014l-.012-.046v-.017l-.022-.086v-.011l-.013-.049v-.01l-.039-.151v-.01l-.038-.148v-.014l-.037-.145v-.017l-.012-.046v-.009l-.023-.09v-.016l-.011-.045v-.015l-.023-.091v-.007l-.012-.048v-.012l-.037-.148v-.014l-.037-.146v-.016l-.037-.148v-.012l-.037-.149v-.012l-.012-.047v-.016l-.021-.086v-.012l-.012-.048v-.013l-.024-.1-.011-.045-.005-.021-.035-.14v-.019l-.035-.143v-.017l-.012-.047-.024-.1v-.009l-.012-.048v-.012l-.024-.1-.012-.051v-.008l-.037-.15v-.016l-.035-.145v-.016l-.036-.147v-.014l-.012-.049-.025-.1-.012-.051v-.007l-.037-.155v-.006l-.037-.154v-.011l-.035-.148v-.016l-.036-.152v-.005l-.05-.213v-.006l-.037-.156v-.007l-.037-.156v-.005l-.037-.156v-.007l-.036-.156v-.006l-.05-.214-.037-.159-.036-.155v-.012l-.034-.15v-.012l-.035-.152v-.009l-.049-.214-.036-.159-.035-.156v-.01l-.035-.156-.035-.157v-.007l-.185-.192-.012-.052v-.006l-.035-.158-.035-.159v-.008l-.034-.155v-.008l-.034-.153v-.012l-.034-.157-.011-.051v-.009l-.034-.156v-.006l-.034-.155v-.011l-.033-.152v-.012l-.033-.154v-.008l-.034-.16-.011-.051v-.012l-.033-.154v-.006l-.033-.154v-.012l-.032-.153v-.008l-.032-.153v-.011l-.033-.158-.011-.051v-.009l-.033-.157-.033-.159v-.008l-.032-.157v-.007l-.033-.159-.045-.218-.066-.326v-.005l-.032-.157v-.009l-.068-.177-.043-.216v-.006l-.032-.158v-.006l-.035-.162v-.008l-.031-.156v-.009l-.031-.155v-.009l-.032-.161-.01-.051v-.014l-.03-.152v-.008l-.03-.154v-.012l-.036-.153v-.014l-.01-.049-.02-.1v-.012l-.01-.051-.031-.162v-.009l-.03-.156v-.007l-.029-.155v-.013l-.029-.152v-.011l-.029-.152v-.014l-.009-.049-.02-.106-.01-.051v-.012l-.029-.155v-.007l-.029-.157v-.01l-.028-.15v-.017l-.009-.047v-.009l-.017-.092v-.016l-.009-.048v-.009l-.018-.1v-.018l-.009-.05v-.014l-.028-.152v-.01l-.027-.151v-.018l-.027-.147v-.016l-.027-.152v-.012l-.009-.051-.019-.1v-.006l-.009-.048v-.018l-.016-.092v-.007l-.008-.048v-.018l-.025-.144v-.023l-.008-.043v-.007l-.016-.092v-.02l-.008-.045v-.017l-.014-.078v-.027l-.007-.041v-.021l-.015-.085v-.014l-.008-.045v-.021l-.016-.094-.009-.05v-.013l-.025-.147v-.024l-.007-.043v-.025l-.012-.07v-.026l-.007-.043v-.02l-.013-.077v-.024l-.007-.043v-.023l-.013-.078v-.019l-.008-.044v-.023l-.015-.089v-.008l-.008-.046v-.021l-.024-.143v-.023l-.13-.051v-.021l-.013-.078v-.022l-.008-.045v-.012l-.015-.089v-.019l-.008-.046v-.014l-.015-.088v-.016l-.007-.044v-.022l-.014-.083v-.017l-.007-.044v-.022l-.023-.143v-.022l-.023-.144v-.021l-.007-.045v-.019l-.013-.08v-.021l-.007-.046v-.018l-.013-.081v-.02l-.007-.044v-.024l-.014-.086v-.011l-.007-.046v-.022l-.022-.142v-.025l-.007-.042v-.03l-.011-.068v-.025l-.007-.042v-.026l-.011-.07v-.028l-.006-.041v-.023l-.012-.079v-.02l-.006-.041v-.028l-.012-.075v-.021l-.007-.043v-.023l-.021-.139v-.028l-.006-.041v-.02l-.012-.079v-.022l-.007-.045v-.019l-.012-.079v-.024l-.007-.044v-.021l-.012-.078v-.022l-.006-.042v-.027l-.01-.069v-.028l-.006-.042v-.026l-.021-.139v-.028l-.006-.039-.008-.056-.006-.039v-.032l-.006-.039v-.028l-.01-.066v-.032l-.006-.037v-.031l-.01-.065v-.03l-.006-.038v-.033l-.009-.063v-.031l-.006-.039v-.03l-.006-.038-.008-.058-.005-.038v-.032l-.005-.038-.008-.056-.005-.037v-.034l-.006-.038v-.033l-.009-.061v-.033l-.006-.039v-.031l-.009-.061v-.033l-.005-.038v-.034l-.008-.058-.005-.035-.006-.04v-.031l-.005-.037-.008-.059-.005-.037v-.033l-.005-.037-.007-.052-.006-.042v-.07l-.006-.042-.232-.038v-.042l-.005-.036v-.034l-.008-.058-.005-.037v-.035l-.005-.037-.007-.052-.006-.041-.005-.038v-.032l-.005-.037-.008-.059-.005-.037v-.033l-.005-.037-.008-.06v-.068l-.005-.037v-.037l-.043-.053-.005-.038v-.072l-.008-.056v-.035l-.005-.038v-.035l-.006-.046-.006-.048v-.105l-.008-.061v-.034l-.005-.038v-.033l-.008-.063v-.029l-.005-.04v-.034l-.005-.04-.007-.054v-.11l-.006-.049-.006-.044v-.033l-.005-.039-.006-.043-.006-.05v-.106l-.007-.059v-.108l-.006-.05-.005-.042v-.072l-.005-.043-.006-.049v-.114l-.006-.044-.128-.046v-.031l-.005-.044v-.028l-.008-.061v-.105l-.008-.062v-.032l-.005-.041v-.031l-.008-.064v-.025l-.006-.046v-.03l-.006-.051v-.039l-.005-.045v-.071l-.006-.051-.053-.043v-.033l-.005-.042v-.03l-.008-.063v-.03l-.005-.043v-.029l-.008-.064v-.104l-.034-.062v-.103l-.005-.044-.005-.047v-.158l-.006-.049v-.033l-.005-.043v-.028l-.007-.064v-.104l-.007-.061v-.105l-.007-.066v-.022l-.006-.049v-.029l-.006-.05v-.04l-.005-.046v-.115l-.091-.054v-.104l-.007-.062v-.103l-.007-.064v-.102l-.007-.064v-.146l-.005-.05v-.156l-.006-.052v-.104l-.007-.063v-.103l-.007-.065v-.102l-.007-.065v-.309l-.006-.054v-.149l-.006-.058v-.106l-.006-.06v-.107l-.005-.053v-.356l-.006-.057v-.106l-.218-.064v-.103l-.006-.063v-.104l-.006-.066v-.35l-.005-.055v-.103l-.071-.062v-.103l-.012-.068v-.102l-.006-.066v-.34l-.006-.066v-.102l-.006-.066v-.101l-.006-.068v-.099l-.076-.069v-.015l-.005-.058v-.024l-.006-.064v-.016l-.005-.064v-.099l-.006-.067v-.101l-.006-.066v-.101l-.006-.066v-.101l-.006-.069v-.34l-.005-.066v-.1l-.005-.068v-.099l-.088-.066v-.101l-.006-.07v-.34l-.005-.067v-.269l-.005-.067v-.1l-.005-.069v-.342l-.005-.072v-.096l-.005-.071v-.096l-.005-.074v-.094l-.113-.072v-.165l-.013-.078v-14.519h-.5v-6.688c0-.057 0-.114.005-.171v-.081l.006-.171v-.092q0-.086.006-.172v-.077l.006-.174v-.078l.006-.173v-.08l.007-.174v-.078l.007-.177v-.075l.007-.178v-.075l.008-.182v-.069c0-.06.005-.119.008-.178v-.075l.011-.242v-.009c0-.081.007-.162.011-.243v-.069l.008-.181v-.07l.008-.178v-.078l.009-.177v-.074l.009-.18v-.084l.009-.177v-.078l.009-.17v-.079l.009-.163v-.154l.005-.1v-2.21l.005-.079v-.092l.016-.239v-.008l.005-.078.011-.165c.037-.533.076-1.07.117-1.6Zm27.1-87.917 1.608.925a205.887 205.887 0 0 0-24.645 68.884l-1.83-.3c.322-1.932.672-3.863 1.046-5.777l.015-.077.015-.076.079-.4.015-.075v-.01l.013-.067v-.014l.013-.063v-.017l.012-.062v-.015l.013-.064v-.014l.014-.07v-.007l.047-.235v-.016l.012-.06v-.024l.01-.051.006-.029.01-.048.006-.03.009-.045.007-.032.009-.044.007-.034.008-.04.007-.036.009-.044.007-.032.011-.053.01-.048.01-.048.007-.035.009-.041.007-.035.008-.041.007-.035.008-.041.008-.037.008-.038.008-.037.008-.039.008-.038.008-.036.008-.04.007-.035.009-.042.007-.035.008-.04v-.023l.02-.1.006-.03.009-.043.007-.032.009-.043.007-.033.009-.044.006-.029.01-.048.006-.028.01-.047.006-.028.01-.046.006-.031.01-.046v-.022l.036-.171.006-.028.01-.049.005-.025.011-.051.005-.024.011-.051v-.023l.011-.05.006-.026.011-.05v-.022l.011-.053v-.02l.012-.055v-.015l.013-.059v-.009l.059-.271v-.011l.013-.06v-.013l.013-.057v-.018l.012-.056v-.016l.013-.057v-.016l.013-.06.109-.493v-.009l.085-.083v-.008l.014-.064v-.009l.015-.066.112-.5.016-.07.016-.07a207.524 207.524 0 0 1 7.1-24.318q.979-2.722 2.031-5.409l.026-.065.237-.6.025-.062v-.007l.024-.06v-.009l.024-.061.157-.395v-.007l.022-.056.005-.014.022-.055.006-.014.021-.054.006-.016.022-.054.005-.014.022-.055.005-.013.1-.25v-.009l.021-.051.007-.018.019-.048.009-.022.018-.045.01-.025.017-.041.013-.031.016-.04.011-.027.018-.044.01-.025.018-.045.009-.022.019-.047.007-.016.043-.105.006-.014.017-.041.012-.03.014-.036.014-.035.014-.036.014-.035.015-.036.014-.033.016-.038.014-.033.014-.034.016-.039.013-.032.017-.041.011-.028.02-.048.01-.024.029-.071.027-.065.01-.024.019-.047.011-.028.017-.041.013-.031.017-.04.012-.03.017-.041.012-.029.019-.045.01-.025.02-.047.01-.023.022-.054.007-.017.059-.142.007-.016.022-.054.01-.025.019-.047.01-.023.02-.048.01-.024.02-.048.009-.021.021-.05.009-.022.021-.051.008-.019.024-.056.006-.015.06-.143v-.012l.026-.061.006-.014.023-.056.009-.021.022-.052.008-.018.021-.05.01-.024.02-.048.009-.021.021-.051.008-.02.023-.056.006-.015.025-.06v-.011l.092-.216v-.007l.027-.063.006-.014.025-.059.005-.012.025-.059.007-.015.025-.058.005-.013.026-.061v-.011l.124-.289.031-.072.029-.069v-.008l.027-.064v-.009l.027-.063v-.009l.251-.58q2.247-5.18 4.762-10.21v-.005l.033-.065v-.005l.033-.066.211-.421v-.008l.031-.061v-.01l.029-.058.008-.015.028-.055.007-.014.028-.056.007-.013.033-.065.035-.07.071-.14v-.007l.031-.061.007-.014.026-.051.013-.025.022-.043.013-.025.022-.043.013-.025.023-.044.012-.024.022-.043.013-.026.023-.045.011-.022.069-.134.016-.031.018-.034.019-.038.015-.029.018-.035.017-.033.018-.035.016-.031.102-.066.016-.031.019-.036.016-.032.017-.034.016-.032.019-.037.011-.022.082-.158.008-.015.023-.045.01-.02.022-.043.013-.024.021-.041.012-.024.022-.042.013-.025.022-.043.01-.02.025-.049.006-.011.193-.372.032-.061.031-.06q1.959-3.752 4.059-7.403Zm62.245-67.766 1.058 1.524a208.458 208.458 0 0 0-51.832 51.654l-1.52-1.064.009-.012.041-.059.006-.008.038-.054.009-.013.035-.05.009-.013.034-.048.012-.017.034-.049.009-.012.037-.053.007-.01.042-.059.224-.318.008-.011.037-.053.007-.009.038-.054.007-.01.038-.053.008-.011.035-.05.011-.015.035-.049.01-.013.036-.05.009-.012.038-.053.007-.01.041-.058.181-.255.042-.059v-.006l.04-.056.007-.01.038-.053.008-.011.036-.051.01-.014.039-.054v-.006l.042-.059.273-.381.044-.06.042-.059.005-.007.04-.056.006-.008.067-.077.007-.01.041-.057.043-.06.322-.444.044-.061.006-.008.041-.056.041-.056.007-.009.041-.056.044-.06.417-.569.044-.059v-.006l.044-.059.512-.692a210.284 210.284 0 0 1 48.809-47.284Zm85.276-34.521.3 1.831a205.878 205.878 0 0 0-68.969 24.4l-.919-1.611q1.395-.8 2.8-1.57l.057-.031.01-.005.054-.03h.009l.053-.029.013-.007.053-.029.3-.165.012-.006.05-.027.015-.008.046-.025.02-.011.045-.024.02-.011.044-.024.021-.011.045-.025.017-.009.048-.026.015-.008.162-.088.015-.008.032-.018.037-.02.028-.015.036-.02.033-.018.034-.018.032-.017.035-.019.031-.017.036-.02.031-.017.034-.018.032-.017.039-.021.027-.015.134-.072h.008l.058-.031.019-.01.049-.026.018-.01.049-.026.022-.012.044-.024.023-.013.044-.023.024-.013.049-.026.015-.008.056-.03.013-.007.274-.146h.008l.06-.032.011-.006.056-.03.014-.008.058-.031h.008l.062-.033h.006l.487-.258.069-.036a207.833 207.833 0 0 1 33.9-14.185l.612-.194.766-.239q2.226-.691 4.472-1.332l.619-.176.774-.217.074-.021.076-.021.543-.15.073-.02h.006l.617-.168h.007l.072-.02.622-.167.076-.02.075-.02.075-.02.467-.123.075-.02.072-.019h.006l.074-.019.468-.122.075-.019h.008l.071-.018h.006l.07-.018h.008l.073-.019.076-.02.312-.08.074-.019.072-.018h.008l.07-.018h.008l.067-.017h.012l.072-.018.389-.1h.007l.069-.017h.012l.063-.016h.017l.062-.015h.013l.065-.016h.012l.31-.077.073-.018h.008l.067-.017h.016l.061-.015h.015l.061-.015h.017l.062-.015h.014l.067-.017h.008l.309-.076h.015l.063-.015h.014l.062-.015h.018l.06-.014h.017l.06-.014h.018l.062-.015h.014l.069-.017h.007l.233-.056h.01l.066-.016h.017l.06-.014h.018l.056-.013.024-.006.053-.013.023-.005.054-.013.022-.005.055-.013.021-.005.054-.013.023-.005.152-.036h.015l.06-.014.026-.006.05-.012.029-.007.047-.011.028-.007.048-.011.029-.007.047-.011.028-.007.047-.011.03-.007.055-.013h.017l.069-.016h.009l.077-.018h.013l.06-.014.03-.007.047-.011.03-.007.044-.01.035-.008.04-.009.037-.009.037-.008.039-.009.038-.009.109-.148.038-.009.037-.009.04-.009.035-.008.07-.016.028-.006.05-.011.035-.008.041-.009.038-.009.037-.008.038-.009.037-.008.041-.009.033-.008.041-.009.034-.008.042-.009.034-.008.041-.009.032-.007.046-.01h.013l.129-.029.045-.01.031-.007.047-.01.027-.006.047-.011.03-.007.045-.01.029-.007.044-.01.032-.007.043-.01.03-.007.046-.01.027-.006.049-.011h.02l.189-.042h.01l.057-.012h.018l.051-.011.025-.006.05-.011.024-.005.049-.011.026-.006.049-.011.025-.005.049-.011.026-.006.051-.011h.015l.267-.058h.009l.055-.012h.022l.053-.011h.02l.052-.011.025-.005.051-.011h.022l.052-.011h.021l.056-.012h.008l.35-.075.065-.014h.008l.063-.013h.01l.064-.014h.008l.065-.014h.008l.567-.119h.005l.069-.014q4.432-.972 8.928-1.705Zm33.897-2.733v1.855c-5.108 0-10.269.188-15.34.559l-.135-1.85c.789-.058 1.584-.111 2.375-.16l.16-.01h.949l.1-.006h.078l.177-.069h.013q3.667-.2 7.368-.275h4.256Z"/><path data-name="Ellisse 438" d="M1308.633 532.108a158.876 158.876 0 0 0-31.784 3.2 156.836 156.836 0 0 0-56.39 23.729 158.168 158.168 0 0 0-57.138 69.39 156.908 156.908 0 0 0-9.189 29.6 159.253 159.253 0 0 0 0 63.568 156.837 156.837 0 0 0 23.729 56.39 158.168 158.168 0 0 0 69.386 57.138 156.908 156.908 0 0 0 29.6 9.189 159.254 159.254 0 0 0 63.568 0 156.838 156.838 0 0 0 56.39-23.729 158.168 158.168 0 0 0 57.138-69.387 156.907 156.907 0 0 0 9.189-29.6 159.254 159.254 0 0 0 0-63.568 156.838 156.838 0 0 0-23.729-56.39 158.168 158.168 0 0 0-69.387-57.139 156.908 156.908 0 0 0-29.6-9.189 158.875 158.875 0 0 0-31.784-3.2m0-.928A158.633 158.633 0 1 1 1150 689.813a158.633 158.633 0 0 1 158.633-158.633Z"/><path data-name="Linea 8" d="m1306.909 690.816-.471-.8 181.326-106.77.471.8Z"/><path data-name="Ellisse 439" d="M1308.632 621.46a68.029 68.029 0 0 0-38.216 11.672 68.555 68.555 0 0 0-24.764 30.075 68.261 68.261 0 0 0 6.3 64.825 68.554 68.554 0 0 0 30.074 24.766 68.262 68.262 0 0 0 64.822-6.3 68.555 68.555 0 0 0 24.766-30.074 68.262 68.262 0 0 0-6.3-64.822 68.556 68.556 0 0 0-30.076-24.77 67.924 67.924 0 0 0-26.606-5.372m0-.928a69.28 69.28 0 1 1-69.28 69.28 69.28 69.28 0 0 1 69.28-69.28Z"/><path data-name="Tracciato 2372" d="m1446.601 534.893-.7-.61 60.862-69.877h263.345v.927h-262.922Z"/><ellipse data-name="Ellisse 441" cx="5.18" cy="4.532" rx="5.18" ry="4.532" transform="translate(1765.107 461.252)"/><circle data-name="Ellisse 443" cx="3.237" cy="3.237" r="3.237" transform="translate(1305.396 686.575)"/><ellipse data-name="Ellisse 444" cx="3.885" cy="4.532" rx="3.885" ry="4.532" transform="translate(1181.079 586.863)"/><ellipse data-name="Ellisse 445" cx="2.59" cy="3.237" rx="2.59" ry="3.237" transform="translate(1241.942 705.999)"/><circle data-name="Ellisse 446" cx="2.59" cy="2.59" r="2.59" transform="translate(1292.446 844.56)"/></g><g data-name="Raggruppa 2728" transform="translate(180.822 -305.655)" fill="#0ff"><path data-name="Ellisse 438" d="M1305.201 570.819a82.878 82.878 0 0 0-16.58 1.671 81.811 81.811 0 0 0-29.415 12.378 82.508 82.508 0 0 0-29.805 36.195 81.844 81.844 0 0 0-4.794 15.441 83.074 83.074 0 0 0 0 33.16 81.811 81.811 0 0 0 12.378 29.415 82.507 82.507 0 0 0 36.2 29.806 81.843 81.843 0 0 0 15.441 4.793 83.074 83.074 0 0 0 33.16 0 81.811 81.811 0 0 0 29.415-12.378 82.507 82.507 0 0 0 29.806-36.2 81.843 81.843 0 0 0 4.793-15.441 83.074 83.074 0 0 0 0-33.16 81.811 81.811 0 0 0-12.378-29.415 82.508 82.508 0 0 0-36.2-29.8 81.845 81.845 0 0 0-15.441-4.794 82.877 82.877 0 0 0-16.58-1.671m0-.735a83 83 0 1 1-83 83 83 83 0 0 1 83-83Z"/><path data-name="Linea 8" d="M1269.577 653.789h-47.009v-.735h47.009Z"/><path data-name="Linea 9" d="M1387.834 653.789h-47.009v-.735h47.009Z"/><path data-name="Ellisse 439" d="M1305.201 617.828a35.266 35.266 0 0 0-13.723 67.742 35.268 35.268 0 0 0 27.446-64.977 35.035 35.035 0 0 0-13.723-2.765m0-.735a35.991 35.991 0 1 1-35.991 35.991 35.991 35.991 0 0 1 35.991-35.991Z"/><circle data-name="Ellisse 443" cx="1.469" cy="1.469" r="1.469" transform="translate(1303.732 651.615)"/><path data-name="Linea 10" d="M1304.833 617.797v-47.009h.735v47.009Z"/><path data-name="Linea 11" d="M1304.833 736.054v-47.009h.735v47.009Z"/></g></g></svg>