<svg xmlns="http://www.w3.org/2000/svg" width="11.116" height="13.5" viewBox="0 0 11.116 13.5"><g data-name="Raggruppa 1138"><path data-name="Tracciato 1390" d="M9.617 0a.4.4 0 0 0 .088.05 1.785 1.785 0 0 1 1.4 1.856v6.223c0 .475-.021.95 0 1.424a1.861 1.861 0 0 1-1.582 2.022c-.02.16-.03.327-.064.488a1.781 1.781 0 0 1-1.773 1.436H1.859a1.785 1.785 0 0 1-1.863-1.854c-.007-.94 0-1.881 0-2.822V3.866a1.783 1.783 0 0 1 1.918-1.928h4.114a1.558 1.558 0 0 1 1.177.49q.887.9 1.79 1.79a1.615 1.615 0 0 1 .511 1.223c-.008 1.626 0 3.252 0 4.878v.288a.783.783 0 0 0 .693-.683 2.524 2.524 0 0 0 .013-.342V2.014C10.212 1.223 9.885.9 9.089.9H3.156a1.029 1.029 0 0 0-.787.3.263.263 0 0 1-.151.089c-.287.009-.575 0-.908 0A1.853 1.853 0 0 1 2.561.066c.066-.021.13-.045.2-.067ZM6.206 2.829H1.917A.911.911 0 0 0 .898 3.856v7.781a.9.9 0 0 0 .9.965q2.954.012 5.908 0a.894.894 0 0 0 .91-.9c.008-2.11 0-4.22.006-6.33 0-.18-.078-.225-.24-.22-.272.009-.545.007-.818 0a1.311 1.311 0 0 1-1.357-1.37l-.001-.953Z" fill="#0ff"/></g></svg>